<?xml version="1.0" encoding="UTF-8" ?>
<svg xmlns_sketch="http://www.bohemiancoding.com/sketch/ns"
    xmlns="http://www.w3.org/2000/svg" xmlns_xlink="http://www.w3.org/1999/xlink" version="1.1" id="Layer 1" x="0px" y="0px" viewBox="0 0 244 567" enable-background="new 0 0 244 567" xml_space="preserve">
    <title>PosteriorViewSVGImage1</title>
    <desc>Created with Sketch.</desc>
    <g id="Page-1" sketch_type="MSPage">
        <g id="PosteriorViewSVGImage1" sketch_type="MSLayerGroup">
            <path id="L. Dorsal Thumb DIP" sketch_type="MSShapeGroup" fill="#FFCC67" d="M9.4,302.1c1.1,2.2,2.1,4.3,3.2,6.6c-4.9,1.5-7.2,7-12.6,7.1    C-0.2,310.7,4,304.5,9.4,302.1L9.4,302.1L9.4,302.1z" />
            <path id="Crown of The Head" sketch_type="MSShapeGroup" fill="#FFCC67" d="M123,0.1c-7.8-1.1-18.6,4.5-23.2,12    c-1.1,1.8-1.9,3.6-2.4,5.5H146C142.8,8,134.7,1.8,123,0.1L123,0.1L123,0.1z" />
            <path id="L. Upper Back" sketch_type="MSShapeGroup" fill="#FFCC67" d="M110,107.4c-0.8,5.2-8.9,48.4-36.3,48.1c-0.1,0.7-0.2,1.4-0.2,2    c-0.4,4.3-0.8,8.7-1.3,13.1h41.5c0.1-0.7,0.2-1.3,0.2-1.9v-61.3H110L110,107.4z" />
            <path id="R. Mastoid" sketch_type="MSShapeGroup" fill="#FFCC67" d="M136.2,57.1h4.6h2.1c0.4-2.4,2.1-3.4,3.8-4.5    c0.2-0.1,0.3-0.2,0.5-0.3C136.1,44.9,136.2,55.6,136.2,57.1L136.2,57.1L136.2,57.1z" />
            <path id="L. Occipit" sketch_type="MSShapeGroup" fill="#FFCC67" d="M96,33.9c0.2,1.9-0.2,3.2-2.2,3.6c-1.6,0.3-2.1,1.2-1.6,2.9    c0.8,3,1.5,6.1,2.2,9.2c0.2,0.9,0.5,1.5,1,2.2c10.8-7,11.2,2.9,11.1,5.3h7.7l4-7.4l3.5-0.6L96.4,22.3C95.7,26.1,95.6,30,96,33.9    L96,33.9L96,33.9z" />
            <path id="R. Occipit" sketch_type="MSShapeGroup" fill="#FFCC67" d="M146.8,37.1c0.1-0.8,0.1-1.3,0.2-1.9c0.6-4.2,0.6-8.4,0-12.5    l-24.5,26.2l3.5,1l4.2,7.1h5.7c-0.1-1.7-0.2-13.2,11.6-5.3c0.7-0.5,1.2-1.2,1.5-1.9c0.6-1.5,1-3.1,1.2-4.6    c0.4-2.6,0.6-5.2,0.9-7.9C149.2,37.3,148.1,37.2,146.8,37.1L146.8,37.1L146.8,37.1z" />
            <path id="Occipital Region" sketch_type="MSShapeGroup" fill="#FFCC67" d="M146.2,19.2c-0.1-0.4-0.2-0.7-0.3-1H97.3    c-0.4,1.2-0.6,2.2-0.9,3.5L122,48.5l24.8-26.2C146.6,21.3,146.5,20.3,146.2,19.2L146.2,19.2L146.2,19.2z" />
            <path id="L. Posterolateral Neck" sketch_type="MSShapeGroup" fill="#FFCC67" d="M99.5,58.5h14.1v24.8h-10.8    c1.5-5.6,1.9-11-0.7-16.4C101,64.4,100.5,61.6,99.5,58.5L99.5,58.5L99.5,58.5z" />
            <path id="R. Posterolateral Neck" sketch_type="MSShapeGroup" fill="#FFCC67" d="M143.1,58.6c-0.6,2.5-1.1,4.9-1.8,7.1    c-0.8,2.6-1.8,5-2.4,7.5c-0.8,3.2-0.5,6.3,1.7,9.1c-1.6,1.4-1.6,1.4-10.4,0.9V58.6H143.1L143.1,58.6z" />
            <path id="L. Dorsal Thumb PIP" sketch_type="MSShapeGroup" fill="#FFCC67" d="M14.7,296.1c2.2,2,3.6,4.5,3.2,7.7c-0.3,2.3-2,3.6-4,3.9    c-1.1-1.9-2.4-3.6-3.1-5.6c-0.3-0.9,0.4-2.3,1-3.2C12.5,297.8,13.7,297.1,14.7,296.1L14.7,296.1L14.7,296.1z" />
            <path id="L. Dorsal 1st PIP" sketch_type="MSShapeGroup" fill="#FFCC67" d="M14.8,313.8c3.4,2.6,4,9.2,1.8,13.2c-0.2,0.4-1,0.8-1.2,0.6    c-1.1-0.8-2.4-1.5-3-2.6c-0.5-0.9,0-2.2,0.3-3.3C13.4,319.2,14.1,316.5,14.8,313.8L14.8,313.8L14.8,313.8z" />
            <path id="L. Dorsal 1st DIP" sketch_type="MSShapeGroup" fill="#FFCC67" d="M8.9,340.4c-0.4-1.9-1.1-3.2-0.8-4.3c0.5-2.8,1.4-5.6,2.2-8.3    c0.2-0.4,1.1-0.9,1.3-0.8c1.1,1,3.1,1.7,2.6,3.6c-0.5,1.9-1.4,3.9-2.3,5.7C11.2,337.7,10.2,338.7,8.9,340.4L8.9,340.4L8.9,340.4z" />
            <path id="L. Mastoid" sketch_type="MSShapeGroup" fill="#FFCC67" d="M95.3,52.4c0.3,0.4,0.8,0.7,1.5,0.9c0.9,0.3,1.9,1.3,2.2,2.2    c0.5,1.5,1.5,1.5,2.7,1.5h4C105.8,55,105.4,46.2,95.3,52.4L95.3,52.4L95.3,52.4z" />
            <path id="L. Posterior Forearm" sketch_type="MSShapeGroup" fill="#FFCC67" d="M34.7,212c10.4,3.2,20.7,6.3,31.3,9.4    c-4.6,19.5-11.1,38.1-19.9,56.3c-5.8-2.1-11.5-4.2-17.2-6.2C28.7,270.2,34.1,213.9,34.7,212L34.7,212L34.7,212z" />
            <path id="L. Upper Calf" sketch_type="MSShapeGroup" fill="#FFCC67" d="M75.2,457h39c0.7,4,1.8,8,2.1,12.2c0.5,6.6,0.5,13.2,0.5,19.9    c0,0.7-0.5,1.9-1.1,2.1c-4.4,2-8.7,3.9-13.1,5.8c-1.8,0.8-3.5,1-5.3,0.2c-4.3-1.7-8.5-3.9-13-4.8c-4.5-0.9-5.7-3.4-6.5-7.6    C76.1,475.8,74.9,466.6,75.2,457L75.2,457L75.2,457z" />
            <path id="L. Post. Tricep" sketch_type="MSShapeGroup" fill="#FFCC67" d="M66.4,195.1c-2.5-0.7-5.5-1.4-8.4-2.2c-4.8-1.5-9.5-2.9-14.3-4.5    c-0.5-0.2-1.3-0.9-1.3-1.5c-0.1-14.7,0-29.4,0-44.1c0-0.1,0.1-0.2,0.3-0.5c0.5,0.3,1,0.5,1.4,0.9c3.9,4.3,7.8,8.6,11.7,12.9    c4.4,4.9,8.8,9.7,13.1,14.6c0.7,0.8,1.2,2.1,1.1,3.1C68.9,180.7,67.6,187.6,66.4,195.1L66.4,195.1L66.4,195.1z" />
            <path id="L. Lower Calf" sketch_type="MSShapeGroup" fill="#FFCC67" d="M116.2,493c-0.8,9.7-1.5,18.9-2.3,28.1H90.5    c-3.2-9-6.3-17.9-9.6-27.1c1.1,0.1,2.8-0.2,4.2,0.4c3.7,1.4,7.4,2.9,11,4.7c2.1,1,3.9,1,5.9,0.1c3.1-1.5,6.3-2.9,9.5-4.3    C112.8,494.2,114.2,493.7,116.2,493L116.2,493L116.2,493z" />
            <path id="L. Posterior Elbow" sketch_type="MSShapeGroup" fill="#FFCC67" d="M35.5,210.3c1.5-7.4,7.1-13,6.7-21c3,1,5.7,1.9,8.4,2.8    c4.6,1.5,9.2,3,13.8,4.5c1.3,0.4,1.8,1.2,1.8,2.6c0.1,5.8,0.3,11.5,0.4,17.3c0,1.2-0.4,2.4-0.5,3.6    C55.8,216.8,45.7,213.6,35.5,210.3L35.5,210.3L35.5,210.3z" />
            <path id="L. Post. Heel" sketch_type="MSShapeGroup" fill="#FFCC67" d="M94.8,537.5h18.9c0.5,0,1.1,0.2,1.2,0.4c0.8,1.7,1.1,3.6,2.2,5.1    c1.4,1.9,0.1,3.2-0.5,5c-0.5,1.5-0.7,3.3-0.6,5c0.2,3.4,0.6,6.8,0.7,10.2c0,0.6-0.7,1.8-1.3,1.9c-5.7,2-11.5,2.5-17.2,0.4    c-4-1.5-7.2-4.6-3.6-10c2.4-3.6,1.2-7.4,0.8-11.1C95.1,542.1,95,539.9,94.8,537.5L94.8,537.5L94.8,537.5z" />
            <path id="L. Achilles Region" sketch_type="MSShapeGroup" fill="#FFCC67" d="M91,522.5h22.5c0.5,4.6,1,9.1,1.5,13.7H94.6    C93.3,531.6,92.1,527.2,91,522.5L91,522.5L91,522.5z" />
            <path id="L. Dorsal Hand" sketch_type="MSShapeGroup" fill="#FFCC67" d="M26.6,311.9c-1.7,0.3-2.7-0.3-3.1-2c-0.2-0.9-0.5-1.7-0.9-2.4    c-1.8-2.6-0.6-4.7,1.1-6.7c2.3-2.5,4.7-5,7.2-7.3c0.3-0.3,1.2-0.5,1.7-0.3c3.1,1.2,6,2.3,9,3.6c0.3,0.2,0.8,0.7,0.8,1    c-0.3,1.8-0.4,3.7-1.3,5.2c-0.8,1.5-2.5,2.4-3.9,3.5c-1.5,1.1-2.9,2.2-4.5,3.1c-1.9,1.1-3.9,1.9-5.9,2.9    C26.8,312.3,26.7,312.1,26.6,311.9L26.6,311.9L26.6,311.9z" />
            <path id="L. Dorsal Radius" sketch_type="MSShapeGroup" fill="#FFCC67" d="M22.8,287.8c2.1-5.1,4-9.9,6-14.9c2.3,0.9,4.8,1.9,7.2,2.9    c-1.4,4.9-2.7,9.7-4,14.8C28.7,291.1,26,288.3,22.8,287.8L22.8,287.8L22.8,287.8z" />
            <path id="L. Dorsal Ulnar" sketch_type="MSShapeGroup" fill="#FFCC67" d="M44.9,279.3c-1.1,4.9-2.2,9.9-3.5,15.6c-2.2-0.9-4.8-1.9-7.3-2.9    c-0.3-0.2-0.6-1.1-0.5-1.5c1.1-4.3,2.3-8.6,3.7-12.8c0.2-0.5,1.8-0.8,2.6-0.5C41.4,277.6,43,278.5,44.9,279.3L44.9,279.3    L44.9,279.3z" />
            <path id="L. Dorsal Thumb CMC" sketch_type="MSShapeGroup" fill="#FFCC67" d="M29.8,292.2c-3.1,3.4-5.5,7.4-10.1,9.4c-1-2.2-2.1-4.3-2.9-6.5    c-0.2-0.5,0.5-1.5,1.1-2.1c1.2-1.2,2.7-2.3,4.4-3.7C24.2,290,26.9,291.1,29.8,292.2L29.8,292.2L29.8,292.2z" />
            <path id="L. Dorsal 3rd PIP" sketch_type="MSShapeGroup" fill="#FFCC67" d="M30.2,332.9c-3.1-5.9-1.4-9.8,4.3-12.3c1.5,3.2,1.5,6.6-0.2,9.8    C33.3,332.2,31.9,333.1,30.2,332.9L30.2,332.9L30.2,332.9z" />
            <path id="L. Dorsal 2nd DIP" sketch_type="MSShapeGroup" fill="#FFCC67" d="M21.9,347.2c-2.3-2.9-2.9-7.4-2.2-13c0.5-0.1,1-0.2,1.5-0.2    c3.8,0,4.5,0.8,3.5,4.6C23.9,341.4,22.9,344.1,21.9,347.2L21.9,347.2L21.9,347.2z" />
            <path id="L. Dorsal 3rd MCP" sketch_type="MSShapeGroup" fill="#FFCC67" d="M28.7,322.7v-8c1.2-1.1,2.1-2.2,3.4-2.9c0.5-0.4,1.8-0.4,2.2,0    c1.8,1.5,1.1,6.1-0.8,7.5C31.9,320.2,30.5,321.3,28.7,322.7L28.7,322.7L28.7,322.7z" />
            <path id="L. Dorsal 1st MCP" sketch_type="MSShapeGroup" fill="#FFCC67" d="M19.4,305.3c2.9,3.6,3.1,7.9,0.8,12.5c-3.1-0.9-3.1-4-4.1-6.2    C14.2,308,18.5,307.6,19.4,305.3L19.4,305.3L19.4,305.3z" />
            <path id="L. Dorsal 4th MCP" sketch_type="MSShapeGroup" fill="#FFCC67" d="M36.4,316.5c-0.8-5.4,0.5-8.6,4.7-11.1    C44.8,310,41.1,316,36.4,316.5L36.4,316.5L36.4,316.5z" />
            <path id="L. Dorsal 2nd MCP" sketch_type="MSShapeGroup" fill="#FFCC67" d="M26.3,323.9c-1.1-0.2-1.8-0.3-2.4-0.5c-1.1-0.4-2.1-0.9-3.5-1.4    c0.8-2.5,1.5-4.9,2.4-7.3c0.2-0.6,1.1-1.6,1.3-1.5c0.8,0.4,1.7,0.9,2,1.6c0.4,0.9,0.2,2.2,0.2,3.2    C26.4,319.9,26.3,321.7,26.3,323.9L26.3,323.9L26.3,323.9z" />
            <path id="L. Dorsal 2nd PIP" sketch_type="MSShapeGroup" fill="#FFCC67" d="M20.5,324c1.8,0.6,3.4,1.1,4.9,1.8c0.5,0.2,0.8,1,0.9,1.5    c0.2,0.5,0,1.1-0.2,1.6c-1.1,4.3-1.1,4.3-5.7,2.8V324H20.5z" />
            <path id="L. Dorsal 3rd DIP" sketch_type="MSShapeGroup" fill="#FFCC67" d="M32.5,344.8c-0.5-1.5-1.2-2.9-1.6-4.4c-1.4-5.1-1.3-5.1,3.4-7.7    c0.8,4.2-0.2,8-0.8,12C33.2,344.7,32.8,344.8,32.5,344.8L32.5,344.8L32.5,344.8z" />
            <path id="L. Dorsal 4th PIP" sketch_type="MSShapeGroup" fill="#FFCC67" d="M42.9,314.4c0.3,2.8,0.6,5.6,0.9,8.5c-1.2,0.8-2.5,1.5-4.2,2.6    c-0.4-2-1.4-4.3-0.9-6.1c0.5-1.9,2.2-3.5,3.4-5.2C42.3,314.3,42.6,314.4,42.9,314.4L42.9,314.4L42.9,314.4z" />
            <path id="L. Dorsal 4th DIP" sketch_type="MSShapeGroup" fill="#FFCC67" d="M43.7,334.6c-2.6-2.1-3.5-4.5-2.8-7.2c0.2-0.9,1.1-1.5,1.7-2.2    c0.6,0.8,1.7,1.6,1.7,2.4C44.3,329.8,43.9,332.2,43.7,334.6L43.7,334.6L43.7,334.6z" />
            <path id="L. Middle Back" sketch_type="MSShapeGroup" fill="#FFCC67" d="M113.7,222.6L113.7,222.6c0.1-16.9,0.1-33.6,0.1-50.4H71.9v49.1    v5.8h41.8V222.6L113.7,222.6z" />
            <path id="L. Gluteal Region" sketch_type="MSShapeGroup" fill="#FFCC67" d="M113.7,332.2v-40.3H65.3c-0.5,10.8-1,21.4-1.5,32    c7.9,7.9,32.2,28.6,56.8,9.4c0-0.3,0.1-0.7,0.1-1C118.4,332.2,116.1,332.2,113.7,332.2L113.7,332.2L113.7,332.2z" />
            <path id="L. Posterolat. Upper Leg" sketch_type="MSShapeGroup" fill="#FFCC67" d="M63.7,324.7c-0.2,2.9-0.2,5.7-0.4,8.6h-0.2c0,1.4-0.1,2.6,0,3.9    c0.2,2.9,0.3,5.6,0.5,8.5c5,3.9,23.7,22.6,12.4,82.8v0.1h19.3v-86.4C80.8,340.9,68.9,330,63.7,324.7L63.7,324.7L63.7,324.7z" />
            <path id="L. IT Band" sketch_type="MSShapeGroup" fill="#FFCC67" d="M64.1,347.9c0.2,4.4,0.5,8.9,0.8,13.3c1.1,14.2,4,27.9,8.8,41.2    c1.1,3.2,2,6.7,1.8,10.3c-0.2,4.1-0.1,8.2,0,12.3c0,0.6,0.1,1.2,0.2,1.9C85.9,369.4,68.8,351.6,64.1,347.9L64.1,347.9L64.1,347.9z    " />
            <path id="L. Posteromed. Upper Leg" sketch_type="MSShapeGroup" fill="#FFCC67" d="M96.6,342.2v86.3H113v-2.8c-0.2-15.6,1.1-31.3,2.7-46.8    c1.3-12.4,2.9-24.8,4.3-37.2c0.3-2.5,0.4-5,0.6-7.5C112.4,341,104.2,342.9,96.6,342.2L96.6,342.2L96.6,342.2z" />
            <path id="L. Popliteal Fossa" sketch_type="MSShapeGroup" fill="#FFCC67" d="M76.3,429.9v25.8c8.6-0.5,17.3,0.5,25.8,0.2v-26.1H76.3V429.9z" />
            <path id="L. Pes Anserine Region" sketch_type="MSShapeGroup" fill="#FFCC67" d="M111,442.6c-0.2-4.2,0.4-8.4,0.6-12.6h-8.8v26    c3.4-0.1,6.8-0.4,10.2-1C112.2,450.6,111.3,446.6,111,442.6L111,442.6L111,442.6z" />
            <path id="L. AC Joint" sketch_type="MSShapeGroup" fill="#FFCC67" d="M77.1,101.6c0.2-2.2,0.5-4.6,0.7-6.9c-2.4,0.7-4.5,1.2-6.6,2    c-4,1.3-7.9,2.9-11.5,5C63.7,101.4,69.9,101.3,77.1,101.6L77.1,101.6L77.1,101.6z" />
            <path id="L. Post. Shoulder" sketch_type="MSShapeGroup" fill="#FFCC67" d="M59.5,102.3c-4.2,2.6-7.9,6-10.8,10.4c-5,7.4-6.4,15.6-6.3,24.2    c0,1,0.5,2.3,1.1,3.1c7.4,8.5,15,17,22.6,25.5c1.4,1.5,3,2.7,4.9,4.5c2.1-22.8,4-45.2,6.1-67.8C69.9,101.9,63.7,102.1,59.5,102.3    L59.5,102.3L59.5,102.3z" />
            <path id="L. Scapular Region" sketch_type="MSShapeGroup" fill="#FFCC67" d="M109.5,107.6L78,107.7c-0.3,3.9-0.6,7.8-1,11.7    c-1.1,11.9-2.1,23.8-3.3,35.7C100.6,155.3,108.7,112.7,109.5,107.6L109.5,107.6L109.5,107.6z M82.5,108.4c2.7,0,4.8,2.2,4.8,4.9    s-2.1,4.9-4.8,4.9s-4.8-2.2-4.8-4.9S79.8,108.4,82.5,108.4L82.5,108.4L82.5,108.4z M86.6,118.4c5,0,9,2.9,9,6.3c0,3.5-4,6.3-9,6.3    s-9-2.9-9-6.3C77.6,121.2,81.7,118.4,86.6,118.4L86.6,118.4L86.6,118.4z M79.8,153c-2.7,0-4.8-2.2-4.8-4.9c0-2.7,2.1-4.9,4.8-4.9    s4.8,2.2,4.8,4.9C84.7,150.7,82.5,153,79.8,153L79.8,153L79.8,153z M83.9,143.1c-4.3,0-7.8-2.6-7.8-5.6c0-3,3.5-5.6,7.8-5.6    c4.3,0,7.8,2.6,7.8,5.6C91.7,140.5,88.2,143.1,83.9,143.1L83.9,143.1L83.9,143.1z" />
            <path id="L. Distal Nape Region" sketch_type="MSShapeGroup" fill="#FFCC67" d="M114.2,86.6c0-1.7-0.6-2.2-2.2-2.3    c-4.9-0.3-9.6,0.2-14.1,2.1c-5.7,2.4-11.5,5-17.1,7.5c-0.5,0.2-1.1,1.1-1.1,1.6c-0.2,2-0.4,4-0.5,6c17.3,0,31.3,2.2,31.4,4.8h3.7    C114.1,99.8,114.1,93.2,114.2,86.6L114.2,86.6L114.2,86.6z" />
            <path id="R. Upper Back" sketch_type="MSShapeGroup" fill="#FFCC67" d="M134.4,107.4c0.8,5.2,8.9,48.4,36.3,48.1c0.1,0.7,0.2,1.4,0.2,2    c0.4,4.3,0.8,8.7,1.3,13.1h-41.5c-0.1-0.7-0.2-1.3-0.2-1.9v-61.3H134.4L134.4,107.4z" />
            <path id="R. Dorsal Thumb DIP" sketch_type="MSShapeGroup" fill="#FFCC67" d="M235,302.1c-1.1,2.2-2.1,4.3-3.2,6.6c4.9,1.5,7.2,7,12.6,7.1    C244.6,310.7,240.4,304.5,235,302.1L235,302.1L235,302.1z" />
            <path id="R. Dorsal Thumb PIP" sketch_type="MSShapeGroup" fill="#FFCC67" d="M229.7,296.1c-2.2,2-3.6,4.5-3.2,7.7c0.3,2.3,2,3.6,4,3.9    c1.1-1.9,2.4-3.6,3.1-5.6c0.3-0.9-0.4-2.3-1-3.2C231.9,297.8,230.7,297.1,229.7,296.1L229.7,296.1L229.7,296.1z" />
            <path id="R. Dorsal 1st PIP" sketch_type="MSShapeGroup" fill="#FFCC67" d="M229.6,313.8c-3.4,2.6-4,9.2-1.8,13.2c0.2,0.4,1,0.8,1.2,0.6    c1.1-0.8,2.4-1.5,3-2.6c0.5-0.9,0-2.2-0.3-3.3C231,319.2,230.4,316.5,229.6,313.8L229.6,313.8L229.6,313.8z" />
            <path id="R. Dorsal 1st DIP" sketch_type="MSShapeGroup" fill="#FFCC67" d="M235.5,340.4c0.4-1.9,1.1-3.2,0.8-4.3c-0.5-2.8-1.4-5.6-2.2-8.3    c-0.2-0.4-1.1-0.9-1.3-0.8c-1.1,1-3.1,1.7-2.6,3.6c0.5,1.9,1.4,3.9,2.3,5.7C233.2,337.7,234.2,338.7,235.5,340.4L235.5,340.4    L235.5,340.4z" />
            <path id="R. Posterior Forearm" sketch_type="MSShapeGroup" fill="#FFCC67" d="M209.7,212c-10.4,3.2-20.7,6.3-31.3,9.4    c4.6,19.5,11.1,38.1,19.9,56.3c5.8-2.1,11.5-4.2,17.2-6.2C215.7,270.2,210.3,213.9,209.7,212L209.7,212L209.7,212z" />
            <path id="R. Upper Calf" sketch_type="MSShapeGroup" fill="#FFCC67" d="M169.2,457h-39c-0.7,4-1.8,8-2.1,12.2    c-0.5,6.6-0.5,13.2-0.5,19.9c0,0.7,0.5,1.9,1.1,2.1c4.4,2,8.7,3.9,13.1,5.8c1.8,0.8,3.5,1,5.3,0.2c4.3-1.7,8.5-3.9,13-4.8    c4.5-0.9,5.7-3.4,6.5-7.6C168.3,475.8,169.5,466.6,169.2,457L169.2,457L169.2,457z" />
            <path id="R. Post. Tricep" sketch_type="MSShapeGroup" fill="#FFCC67" d="M178,195.1c2.5-0.7,5.5-1.4,8.4-2.2c4.8-1.5,9.5-2.9,14.3-4.5    c0.5-0.2,1.3-0.9,1.3-1.5c0.1-14.7,0-29.4,0-44.1c0-0.1-0.1-0.2-0.3-0.5c-0.5,0.3-1,0.5-1.4,0.9c-3.9,4.3-7.8,8.6-11.7,12.9    c-4.4,4.9-8.8,9.7-13.1,14.6c-0.7,0.8-1.2,2.1-1.1,3.1C175.6,180.7,176.8,187.6,178,195.1L178,195.1L178,195.1z" />
            <path id="R. Lower Calf" sketch_type="MSShapeGroup" fill="#FFCC67" d="M128.2,493c0.8,9.7,1.5,18.9,2.3,28.1h23.4    c3.2-9,6.3-17.9,9.6-27.1c-1.1,0.1-2.8-0.2-4.2,0.4c-3.7,1.4-7.4,2.9-11,4.7c-2.1,1-3.9,1-5.9,0.1c-3.1-1.5-6.3-2.9-9.5-4.3    C131.6,494.2,130.2,493.7,128.2,493L128.2,493L128.2,493z" />
            <path id="R. Posterior Elbow" sketch_type="MSShapeGroup" fill="#FFCC67" d="M209,210.3c-1.5-7.4-7.1-13-6.7-21c-3,1-5.7,1.9-8.4,2.8    c-4.6,1.5-9.2,3-13.8,4.5c-1.3,0.4-1.8,1.2-1.8,2.6c-0.1,5.8-0.3,11.5-0.4,17.3c0,1.2,0.4,2.4,0.5,3.6    C188.6,216.8,198.6,213.6,209,210.3L209,210.3L209,210.3z" />
            <path id="R. Post Heel" sketch_type="MSShapeGroup" fill="#FFCC67" d="M149.6,537.5h-18.9c-0.5,0-1.1,0.2-1.2,0.4    c-0.8,1.7-1.1,3.6-2.2,5.1c-1.4,1.9-0.1,3.2,0.5,5c0.5,1.5,0.7,3.3,0.6,5c-0.2,3.4-0.6,6.8-0.7,10.2c0,0.6,0.7,1.8,1.3,1.9    c5.7,2,11.5,2.5,17.2,0.4c4-1.5,7.2-4.6,3.6-10c-2.4-3.6-1.2-7.4-0.8-11.1C149.3,542.1,149.4,539.9,149.6,537.5L149.6,537.5    L149.6,537.5z" />
            <path id="R. Achilles Region" sketch_type="MSShapeGroup" fill="#FFCC67" d="M153.4,522.5h-22.5c-0.5,4.6-1,9.1-1.5,13.7h20.3    C151.1,531.6,152.2,527.2,153.4,522.5L153.4,522.5L153.4,522.5z" />
            <path id="R. Dorsal Hand" sketch_type="MSShapeGroup" fill="#FFCC67" d="M217.7,311.9c1.7,0.3,2.7-0.3,3.1-2c0.2-0.9,0.5-1.7,0.9-2.4    c1.8-2.6,0.6-4.7-1.1-6.7c-2.3-2.5-4.7-5-7.2-7.3c-0.3-0.3-1.2-0.5-1.7-0.3c-3.1,1.2-6,2.3-9,3.6c-0.3,0.2-0.8,0.7-0.8,1    c0.3,1.8,0.4,3.7,1.3,5.2c0.8,1.5,2.5,2.4,3.9,3.5c1.5,1.1,2.9,2.2,4.5,3.1c1.9,1.1,3.9,1.9,5.9,2.9    C217.6,312.3,217.7,312.1,217.7,311.9L217.7,311.9L217.7,311.9z" />
            <path id="R. Dorsal Radius" sketch_type="MSShapeGroup" fill="#FFCC67" d="M221.6,287.8c-2.1-5.1-4-9.9-6-14.9c-2.3,0.9-4.8,1.9-7.2,2.9    c1.4,4.9,2.7,9.7,4,14.8C215.8,291.1,218.3,288.3,221.6,287.8L221.6,287.8L221.6,287.8z" />
            <path id="R. Dorsal Ulnar" sketch_type="MSShapeGroup" fill="#FFCC67" d="M199.6,279.3c1.1,4.9,2.2,9.9,3.5,15.6c2.2-0.9,4.8-1.9,7.3-2.9    c0.3-0.2,0.6-1.1,0.5-1.5c-1.1-4.3-2.3-8.6-3.7-12.8c-0.2-0.5-1.8-0.8-2.6-0.5C203,277.6,201.4,278.5,199.6,279.3L199.6,279.3    L199.6,279.3z" />
            <path id="R. Dorsal Thumb CMC" sketch_type="MSShapeGroup" fill="#FFCC67" d="M214.6,292.2c3.1,3.4,5.5,7.4,10.1,9.4c1-2.2,2.1-4.3,2.9-6.5    c0.2-0.5-0.5-1.5-1.1-2.1c-1.2-1.2-2.7-2.3-4.4-3.7C220.2,290,217.5,291.1,214.6,292.2L214.6,292.2L214.6,292.2z" />
            <path id="R. Dorsal 3rd PIP" sketch_type="MSShapeGroup" fill="#FFCC67" d="M214.2,332.9c3.1-5.9,1.4-9.8-4.3-12.3c-1.5,3.2-1.5,6.6,0.2,9.8    C211.1,332.2,212.5,333.1,214.2,332.9L214.2,332.9L214.2,332.9z" />
            <path id="R. Dorsal 2nd DIP" sketch_type="MSShapeGroup" fill="#FFCC67" d="M222.5,347.2c2.3-2.9,2.9-7.4,2.2-13c-0.5-0.1-1-0.2-1.5-0.2    c-3.8,0-4.5,0.8-3.5,4.6C220.5,341.4,221.5,344.1,222.5,347.2L222.5,347.2L222.5,347.2z" />
            <path id="R. Dorsal 3rd MCP" sketch_type="MSShapeGroup" fill="#FFCC67" d="M215.8,322.7v-8c-1.2-1.1-2.1-2.2-3.4-2.9    c-0.5-0.4-1.8-0.4-2.2,0c-1.8,1.5-1.1,6.1,0.8,7.5C212.5,320.2,213.9,321.3,215.8,322.7L215.8,322.7L215.8,322.7z" />
            <path id="R. Dorsal 1st MCP" sketch_type="MSShapeGroup" fill="#FFCC67" d="M225,305.3c-2.9,3.6-3.1,7.9-0.8,12.5c3.1-0.9,3.1-4,4.1-6.2    C230.2,308,225.9,307.6,225,305.3L225,305.3L225,305.3z" />
            <path id="R. Dorsal 4th MCP" sketch_type="MSShapeGroup" fill="#FFCC67" d="M208,316.5c0.8-5.4-0.5-8.6-4.7-11.1    C199.6,310,203.3,316,208,316.5L208,316.5L208,316.5z" />
            <path id="R. Dorsal 2nd MCP" sketch_type="MSShapeGroup" fill="#FFCC67" d="M218,323.9c1.1-0.2,1.8-0.3,2.4-0.5c1.1-0.4,2.1-0.9,3.5-1.4    c-0.8-2.5-1.5-4.9-2.4-7.3c-0.2-0.6-1.1-1.6-1.3-1.5c-0.8,0.4-1.7,0.9-2,1.6c-0.4,0.9-0.2,2.2-0.2,3.2V323.9L218,323.9z" />
            <path id="R. Dorsal 2nd PIP" sketch_type="MSShapeGroup" fill="#FFCC67" d="M223.9,324c-1.8,0.6-3.4,1.1-4.9,1.8c-0.5,0.2-0.8,1-0.9,1.5    c-0.2,0.5,0,1.1,0.2,1.6c1.1,4.3,1.1,4.3,5.7,2.8V324H223.9z" />
            <path id="R. Dorsal 3rd DIP" sketch_type="MSShapeGroup" fill="#FFCC67" d="M211.9,344.8c0.5-1.5,1.2-2.9,1.6-4.4c1.4-5.1,1.3-5.1-3.4-7.7    c-0.8,4.2,0.2,8,0.8,12C211.2,344.7,211.6,344.8,211.9,344.8L211.9,344.8L211.9,344.8z" />
            <path id="R. Dorsal 4th PIP" sketch_type="MSShapeGroup" fill="#FFCC67" d="M201.6,314.4c-0.3,2.8-0.6,5.6-0.9,8.5c1.2,0.8,2.5,1.5,4.2,2.6    c0.4-2,1.4-4.3,0.9-6.1c-0.5-1.9-2.2-3.5-3.4-5.2C202.1,314.3,201.8,314.4,201.6,314.4L201.6,314.4L201.6,314.4z" />
            <path id="R. Dorsal 4th DIP" sketch_type="MSShapeGroup" fill="#FFCC67" d="M200.7,334.6c2.6-2.1,3.5-4.5,2.8-7.2c-0.2-0.9-1.1-1.5-1.7-2.2    c-0.6,0.8-1.7,1.6-1.7,2.4C200.1,329.8,200.5,332.2,200.7,334.6L200.7,334.6L200.7,334.6z" />
            <path id="R. Middle Back" sketch_type="MSShapeGroup" fill="#FFCC67" d="M130.7,222.6L130.7,222.6c-0.1-16.9-0.1-33.6-0.1-50.4h41.9    v49.1v5.8h-41.8V222.6L130.7,222.6z" />
            <path id="R. Gluteal Region" sketch_type="MSShapeGroup" fill="#FFCC67" d="M130.7,332.2v-40.3h48.4c0.5,10.8,1,21.4,1.5,32    c-7.9,7.9-32.2,28.6-56.8,9.4c0-0.3-0.1-0.7-0.1-1C126.1,332.2,128.4,332.2,130.7,332.2L130.7,332.2L130.7,332.2z" />
            <path id="R. Posterolat. Upper Leg" sketch_type="MSShapeGroup" fill="#FFCC67" d="M180.6,324.7c0.2,2.9,0.2,5.7,0.4,8.6h0.2c0,1.4,0.1,2.6,0,3.9    c-0.2,2.9-0.3,5.6-0.5,8.5c-5,3.9-23.7,22.6-12.4,82.8v0.1H149v-86.4C163.6,340.9,175.6,330,180.6,324.7L180.6,324.7L180.6,324.7z    " />
            <path id="R. IT Band" sketch_type="MSShapeGroup" fill="#FFCC67" d="M180.3,347.9c-0.2,4.4-0.5,8.9-0.8,13.3    c-1.1,14.2-4,27.9-8.8,41.2c-1.1,3.2-2,6.7-1.8,10.3c0.2,4.1,0.1,8.2,0,12.3c0,0.6-0.1,1.2-0.2,1.9    C158.5,369.4,175.6,351.6,180.3,347.9L180.3,347.9L180.3,347.9z" />
            <path id="R. Posteromed. Upper Leg" sketch_type="MSShapeGroup" fill="#FFCC67" d="M147.8,342.2v86.3h-16.3v-2.8c0.2-15.6-1.1-31.3-2.7-46.8    c-1.3-12.4-2.9-24.8-4.3-37.2c-0.3-2.5-0.4-5-0.6-7.5C132,341,140.2,342.9,147.8,342.2L147.8,342.2L147.8,342.2z" />
            <path id="R. Popliteal Fossa" sketch_type="MSShapeGroup" fill="#FFCC67" d="M168.2,429.9v25.8c-8.6-0.5-17.3,0.5-25.8,0.2v-26.1h25.8V429.9    z" />
            <path id="R. Pes Anserine Region" sketch_type="MSShapeGroup" fill="#FFCC67" d="M133.4,442.6c0.2-4.2-0.4-8.4-0.6-12.6h8.8v26    c-3.4-0.1-6.8-0.4-10.2-1C132.2,450.6,133.2,446.6,133.4,442.6L133.4,442.6L133.4,442.6z" />
            <path id="R. AC Joint" sketch_type="MSShapeGroup" fill="#FFCC67" d="M167.3,101.6c-0.2-2.2-0.5-4.6-0.7-6.9    c2.4,0.7,4.5,1.2,6.6,2c4,1.3,7.9,2.9,11.5,5C180.7,101.4,174.4,101.3,167.3,101.6L167.3,101.6L167.3,101.6z" />
            <path id="R. Post. Shoulder" sketch_type="MSShapeGroup" fill="#FFCC67" d="M184.9,102.3c4.2,2.6,7.9,6,10.8,10.4c5,7.4,6.4,15.6,6.3,24.2    c0,1-0.5,2.3-1.1,3.1c-7.4,8.5-15,17-22.6,25.5c-1.4,1.5-3,2.7-4.9,4.5c-2.1-22.8-4-45.2-6.1-67.8    C174.4,101.9,180.7,102.1,184.9,102.3L184.9,102.3L184.9,102.3z" />
            <path id="R. Scapular Region" sketch_type="MSShapeGroup" fill="#FFCC67" d="M170.7,155.1c-1.1-11.9-2.2-23.8-3.3-35.7    c-0.4-3.9-0.7-7.8-1-11.7l-31.5-0.1C135.8,112.7,143.8,155.3,170.7,155.1L170.7,155.1L170.7,155.1z M166.7,113.3    c0,2.7-2.1,4.9-4.8,4.9c-2.7,0-4.8-2.2-4.8-4.9s2.1-4.9,4.8-4.9S166.7,110.6,166.7,113.3L166.7,113.3L166.7,113.3z M166.8,124.7    c0,3.5-4,6.3-9,6.3s-9-2.9-9-6.3c0-3.5,4-6.3,9-6.3S166.8,121.2,166.8,124.7L166.8,124.7L166.8,124.7z M159.8,148    c0-2.7,2.1-4.9,4.8-4.9s4.8,2.2,4.8,4.9c0,2.7-2.1,4.9-4.8,4.9C161.9,153,159.8,150.7,159.8,148L159.8,148L159.8,148z     M152.7,137.5c0-3.1,3.5-5.6,7.8-5.6c4.3,0,7.8,2.6,7.8,5.6c0,3-3.5,5.6-7.8,5.6C156.2,143.1,152.7,140.6,152.7,137.5L152.7,137.5    L152.7,137.5z" />
            <path id="R. Distal Nape Region" sketch_type="MSShapeGroup" fill="#FFCC67" d="M130.3,86.6c0-1.7,0.6-2.2,2.2-2.3    c4.9-0.3,9.7,0.2,14.2,2.1c5.7,2.4,11.5,5,17.1,7.5c0.5,0.2,1.1,1.1,1.1,1.6c0.2,2,0.4,4,0.5,6c-17.3,0-31.3,2.2-31.5,4.8h-3.7    C130.3,99.8,130.3,93.2,130.3,86.6L130.3,86.6L130.3,86.6z" />
            <path id="L. Lower Back" sketch_type="MSShapeGroup" fill="#FFCC67" d="M113.8,248.1L113.8,248.1l-0.1-19.6H71.9v6.3v1.3    c-0.1,1-0.1,1-0.2,1.9c-0.3,4-1.5,8-1.8,12c-0.5,5.3-1.1,10.7-1.8,16c6.4-1,28-3,39.5,11.5h6C113.8,267.8,113.8,258,113.8,248.1    L113.8,248.1L113.8,248.1z" />
            <path id="L. SI Joint" sketch_type="MSShapeGroup" fill="#FFCC67" d="M107.8,278.2c2.5,3.2,4.5,7.3,5.8,12.3v-12.3H107.8L107.8,278.2    z" />
            <path id="L. Pelvic Region" sketch_type="MSShapeGroup" fill="#FFCC67" d="M68.2,266.6c-0.6,5.3-1.1,10.8-1.7,16.1    c-0.2,2.6-0.1,5.2-0.1,7.8h46.3C106,262.6,75.9,265.4,68.2,266.6L68.2,266.6L68.2,266.6z" />
            <path id="R. Lower Back" sketch_type="MSShapeGroup" fill="#FFCC67" d="M176.2,266.1c-0.6-5.3-1.1-10.7-1.8-16c-0.5-4-1.5-8-1.8-12    c-0.1-0.9-0.2-2-0.2-2v-1.3v-6.3h-41.8v19.6h-0.1v29.6h6C148.3,263,169.8,265.1,176.2,266.1L176.2,266.1L176.2,266.1z" />
            <path id="R. SI Joint" sketch_type="MSShapeGroup" fill="#FFCC67" d="M136.7,278.2h-6v12.3C131.9,285.4,134.1,281.4,136.7,278.2    L136.7,278.2L136.7,278.2z" />
            <path id="R. Pelvic Region" sketch_type="MSShapeGroup" fill="#FFCC67" d="M177.9,282.7c-0.5-5.3-1.1-10.8-1.7-16.1    c-7.7-1.2-37.8-3.9-44.5,23.9H178C178,287.9,178.2,285.3,177.9,282.7L177.9,282.7L177.9,282.7z" />
            <path id="L. Supraspinatus" fill="#FFCC67" d="M78.5,102.2c-0.2,1.5-0.3,3-0.5,4.5l31.8-0.1C109.6,104.2,95.7,102.2,78.5,102.2z M81.3,105.8    c-0.2,0.2-0.4,0.3-0.6,0.3c0,0,0,0-0.1,0c-0.3,0-0.5-0.1-0.7-0.2c-0.2-0.1-0.3-0.4-0.3-0.8c0-0.1,0-0.2,0-0.2h0.6c0,0,0,0,0,0.1    c0,0,0,0,0,0.1c0,0,0,0,0,0.1c0,0.3,0.1,0.5,0.4,0.5c0.1,0,0.1,0,0.2,0l0.1-0.1c0-0.1,0.1-0.1,0.1-0.2c0-0.2-0.1-0.3-0.3-0.5    c-0.1-0.1-0.3-0.2-0.4-0.3c-0.1-0.1-0.2-0.2-0.3-0.3c-0.1-0.1-0.2-0.2-0.2-0.3s-0.1-0.2-0.1-0.3c0,0,0,0,0-0.1    c0-0.5,0.3-0.7,0.8-0.8c0,0,0,0,0.1,0c0.6,0,0.9,0.3,0.9,0.9v0.1H81c0-0.4-0.1-0.5-0.3-0.5c-0.1,0-0.2,0-0.2,0.1    c-0.1,0.1-0.1,0.1-0.1,0.2c0,0.1,0.1,0.3,0.2,0.4c0.2,0.1,0.3,0.2,0.5,0.3s0.3,0.2,0.4,0.3c0.1,0.1,0.2,0.3,0.2,0.4    c0,0.1,0,0.1,0,0.2C81.5,105.5,81.4,105.7,81.3,105.8z" />
            <path id="L. Infraspinatus" fill="#FFCC67" d="M83.6,109.2c-0.2-0.1-0.5-0.1-0.7-0.2h-0.7c-0.3,0-0.5,0.1-0.8,0.2    c-1.5,0.4-2.8,1.8-3.1,3.4c0,0.1-0.1,0.2-0.1,0.3v0.8c0,0.2,0,0.4,0.1,0.5c0.4,1.7,1.7,3,3.4,3.2c2.4,0.4,4.4-1.2,4.8-3.3    C87.1,112,85.8,109.8,83.6,109.2z M82.9,115.4h-0.8v-4.3h0.8V115.4z" />
            <path id="L. Subscapularis" fill="#FFCC67" d="M80.9,144c-0.2-0.1-0.5-0.1-0.7-0.2h-0.7c-0.2,0-0.5,0.1-0.8,0.2c-1.5,0.4-2.8,1.8-3.1,3.4    c0,0.1-0.1,0.2-0.1,0.3v0.8c0,0.2,0,0.4,0.1,0.5c0.4,1.7,1.7,3,3.4,3.2c2.4,0.4,4.4-1.2,4.8-3.3C84.4,146.8,83.1,144.6,80.9,144z     M79.5,149.3c-0.2,0.2-0.4,0.3-0.7,0.3h-0.1c-0.3,0-0.6-0.1-0.8-0.2s-0.3-0.4-0.3-0.8c0-0.1,0-0.2,0-0.2h0.6v0.1c0,0,0,0,0,0.1    v0.1c0,0.4,0.1,0.6,0.4,0.6c0.1,0,0.1,0,0.2,0l0.1-0.1c0-0.1,0.1-0.1,0.1-0.2c0-0.2-0.1-0.4-0.3-0.5c-0.1-0.1-0.3-0.2-0.4-0.3    c-0.1-0.1-0.3-0.2-0.3-0.3c-0.1-0.1-0.2-0.2-0.2-0.3c-0.1-0.1-0.1-0.2-0.1-0.4c0,0,0,0,0-0.1c0-0.5,0.3-0.8,0.9-0.8c0,0,0,0,0.1,0    c0.7,0,1,0.3,1,1v0.1h-0.6c0-0.4-0.1-0.6-0.4-0.6c-0.1,0-0.2,0-0.2,0.1c-0.1,0.1-0.1,0.1-0.1,0.2c0,0.2,0.1,0.3,0.2,0.4    c0.2,0.1,0.3,0.2,0.5,0.3c0.2,0.1,0.3,0.2,0.4,0.4c0.1,0.1,0.2,0.3,0.2,0.4s0,0.1,0,0.2C79.7,148.9,79.6,149.1,79.5,149.3z     M82,149.3c-0.2,0.2-0.4,0.3-0.7,0.3h-0.1c-0.3,0-0.6-0.1-0.8-0.2s-0.3-0.4-0.3-0.8c0-0.1,0-0.2,0-0.2h0.6v0.1c0,0,0,0,0,0.1v0.1    c0,0.4,0.1,0.6,0.4,0.6c0.1,0,0.1,0,0.2,0l0.1-0.1c0-0.1,0.1-0.1,0.1-0.2c0-0.2-0.1-0.4-0.3-0.5c-0.1-0.1-0.3-0.2-0.4-0.3    c-0.1-0.1-0.3-0.2-0.3-0.3c-0.1-0.1-0.2-0.2-0.2-0.3c-0.1-0.1-0.1-0.2-0.1-0.4c0,0,0,0,0-0.1c0-0.5,0.3-0.8,0.9-0.8c0,0,0,0,0.1,0    c0.7,0,1,0.3,1,1v0.1h-0.6c0-0.4-0.1-0.6-0.4-0.6c-0.1,0-0.2,0-0.2,0.1c-0.1,0.1-0.1,0.1-0.1,0.2c0,0.2,0.1,0.3,0.2,0.4    c0.2,0.1,0.3,0.2,0.5,0.3c0.2,0.1,0.3,0.2,0.4,0.4c0.1,0.1,0.2,0.3,0.2,0.4s0,0.1,0,0.2C82.2,148.9,82.1,149.1,82,149.3z" />
            <path id="L. Teres Minor" fill="#FFCC67" d="M88.8,119.4c-0.5-0.1-0.9-0.1-1.4-0.2H86c-0.5,0.1-1,0.1-1.5,0.2c-3.2,0.5-5.7,2.3-6.2,4.4    c0,0.1-0.1,0.2-0.1,0.4v0.9c0.1,0.2,0.2,0.5,0.2,0.7c0.8,2.2,3.4,3.9,6.9,4.2c4.7,0.5,8.7-1.5,9.5-4.3    C95.9,122.9,93.2,120.2,88.8,119.4z M84.2,122.9h-0.9v3.7h-0.8v-3.7h-0.9v-0.6h2.7v0.6H84.2z M88.4,126.6h-0.8v-2.4l0.1-1.5l0,0    l-0.9,3.9h-0.5l-0.9-3.9l0,0l0.1,1.6v2.3h-0.8v-4.3H86l0.5,2.3l0.1,0.8l0.1-0.8l0.5-2.3h1.3v4.3H88.4z M91.3,126.6h-0.7v-2.2    c0-0.2,0-0.3-0.1-0.4c-0.1-0.1-0.1-0.1-0.2-0.1l0,0c-0.1,0-0.2,0-0.2,0.1c-0.1,0.1-0.1,0.2-0.1,0.4v2.2h-0.7v-3.2H90v0.4    c0-0.1,0.1-0.3,0.3-0.3c0.1-0.1,0.3-0.1,0.4-0.1c0.2,0,0.4,0.1,0.5,0.2c0.1,0.1,0.2,0.3,0.2,0.5v2.5H91.3z" />
            <path id="L. Teres Major" fill="#FFCC67" d="M85.7,132.6c-0.4-0.1-0.8-0.1-1.2-0.2h-1.1c-0.4,0.1-0.8,0.2-1.4,0.1    c-2.7,0.5-4.9,2.2-5.3,4.1c0,0.2-0.1,0.2-0.1,0.4v0.9c0,0.2,0.1,0.5,0.2,0.7c0.7,2,3,3.6,6,3.9c4,0.5,7.5-1.5,8.2-3.9    C91.8,135.9,89.5,133.3,85.7,132.6z M81.7,135.7h-0.9v3.7H80v-3.7h-0.9v-0.6h2.7v0.6H81.7z M85.9,139.3h-0.8v-2.4l0.1-1.5l0,0    l-0.9,3.9h-0.5l-0.9-3.9l0,0L83,137v2.3h-0.8V135h1.3l0.5,2.3l0.1,0.8l0.1-0.8l0.5-2.3H86v4.3H85.9z M87.4,139.6    c0,0.3,0,0.5-0.1,0.6c-0.1,0.1-0.2,0.1-0.4,0.1c-0.1,0-0.2,0-0.5,0v-0.6h0.1c0.1,0,0.1,0,0.2,0c0,0,0-0.1,0-0.2V136h0.7V139.6z     M87.4,135.7h-0.7V135h0.7V135.7z" />
            <path id="C2" fill="#C49DC9" d="M115.2,54V58v0.5h13.5v-0.3v-4h-13.5V54z M121.9,56.9c0,0.1-0.1,0.2-0.2,0.3    c-0.1,0.1-0.2,0.1-0.4,0.1l0,0c-0.2,0-0.3,0-0.4-0.1c-0.1-0.1-0.2-0.2-0.2-0.3c0-0.1-0.1-0.3-0.1-0.5V56c0-0.2,0-0.4,0.1-0.6    c0-0.1,0.1-0.2,0.2-0.3c0.1-0.1,0.2-0.1,0.4-0.1l0,0c0.2,0,0.4,0.1,0.5,0.2c0.1,0.1,0.1,0.3,0.1,0.5h-0.4c0-0.3-0.1-0.4-0.2-0.4    l0,0c-0.2,0-0.3,0.1-0.3,0.4v0.7c0,0.2,0,0.3,0.1,0.4c0,0.1,0.1,0.1,0.2,0.1c0.1,0,0.2,0,0.2-0.1c0-0.1,0-0.2,0-0.4h0.4    C121.9,56.7,121.9,56.8,121.9,56.9z M123.3,57v0.3h-1.2c0-0.2,0-0.3,0-0.3c0-0.1,0-0.2,0.1-0.2c0-0.1,0.1-0.1,0.2-0.2    c0.1-0.1,0.2-0.2,0.3-0.3c0.1-0.1,0.1-0.1,0.2-0.2c0-0.1,0.1-0.1,0.1-0.2c0-0.1,0-0.1,0-0.2l-0.1-0.1l0,0c-0.1,0-0.1,0-0.2,0.1    c0,0-0.1,0.1-0.1,0.3c0,0,0,0,0,0.1h-0.4V56c0-0.2,0.1-0.4,0.2-0.5c0.1-0.1,0.3-0.1,0.4-0.1l0,0c0.1,0,0.2,0,0.3,0.1    c0.1,0,0.2,0.1,0.2,0.2c0.1,0.1,0.1,0.2,0.1,0.3c0,0.2,0,0.3-0.1,0.4c-0.1,0.1-0.2,0.2-0.3,0.4c-0.1,0.1-0.2,0.2-0.2,0.3    c0,0.1-0.1,0.1-0.1,0.2h0.6V57z" />
            <path id="C3" fill="#C49DC9" d="M115.2,59v3.9v0.5h13.5v-0.3v-4h-13.5V59z M121.9,61.9c0,0.1-0.1,0.2-0.2,0.3    c-0.1,0.1-0.2,0.1-0.4,0.1l0,0c-0.2,0-0.3,0-0.4-0.1c-0.1-0.1-0.2-0.2-0.2-0.3s-0.1-0.3-0.1-0.5V61c0-0.2,0-0.4,0.1-0.6    c0-0.1,0.1-0.2,0.2-0.3c0.1-0.1,0.2-0.1,0.4-0.1l0,0c0.2,0,0.4,0.1,0.5,0.2c0.1,0.1,0.1,0.3,0.1,0.5h-0.4c0-0.3-0.1-0.4-0.2-0.4    l0,0c-0.2,0-0.3,0.1-0.3,0.4v0.7c0,0.2,0,0.3,0.1,0.4c0,0.1,0.1,0.1,0.2,0.1c0.1,0,0.2,0,0.2-0.1c0-0.1,0-0.2,0-0.4h0.4    C121.9,61.7,121.9,61.8,121.9,61.9z M123.3,61.9c0,0.1-0.1,0.2-0.1,0.2s-0.1,0.1-0.2,0.1c-0.1,0-0.2,0-0.3,0l0,0    c-0.2,0-0.4-0.1-0.5-0.2c-0.1-0.1-0.1-0.3-0.1-0.5v-0.1h0.4v0.1c0,0.2,0.1,0.3,0.2,0.3c0.1,0,0.1,0,0.2-0.1c0-0.1,0-0.1,0-0.2l0,0    v-0.1c0-0.1,0-0.2-0.1-0.2c0,0-0.1-0.1-0.2-0.1h-0.1v-0.3l0,0c0.1,0,0.2,0,0.3-0.1c0,0,0.1-0.1,0.1-0.2c0-0.1,0-0.1,0-0.2    c0,0-0.1-0.1-0.2-0.1l0,0c-0.1,0-0.2,0.1-0.2,0.2c0,0,0,0,0,0.1h-0.4v-0.1c0-0.2,0-0.3,0.1-0.4c0.1-0.1,0.2-0.2,0.4-0.2    s0.3,0,0.4,0.1c0,0,0.1,0.1,0.1,0.2c0,0.1,0,0.2,0,0.3c0,0.1,0,0.2-0.1,0.3c0,0.1-0.1,0.1-0.2,0.2c0.1,0,0.1,0,0.2,0.1    c0,0.1,0.1,0.1,0.1,0.2c0,0.1,0,0.2,0,0.3C123.3,61.8,123.3,61.9,123.3,61.9z" />
            <path id="C5" fill="#C49DC9" d="M115.2,68.8v3.9v0.5h13.5v-0.3v-4h-13.5V68.8z M121.9,71.6c0,0.1-0.1,0.2-0.2,0.3    c-0.1,0.1-0.2,0.1-0.4,0.1l0,0c-0.2,0-0.3,0-0.4-0.1c-0.1-0.1-0.2-0.2-0.2-0.3s-0.1-0.3-0.1-0.5v-0.4c0-0.2,0-0.4,0.1-0.6    c0-0.1,0.1-0.2,0.2-0.3c0.1-0.1,0.2-0.1,0.4-0.1l0,0c0.2,0,0.4,0.1,0.5,0.2c0.1,0.1,0.1,0.3,0.1,0.5h-0.4c0-0.3-0.1-0.4-0.2-0.4    l0,0c-0.2,0-0.3,0.1-0.3,0.4v0.7c0,0.2,0,0.3,0.1,0.4c0,0.1,0.1,0.1,0.2,0.1c0.1,0,0.2,0,0.2-0.1c0-0.1,0-0.2,0-0.4h0.4    C121.9,71.4,121.9,71.5,121.9,71.6z M123.3,71.7c0,0.1-0.1,0.2-0.2,0.3c-0.1,0.1-0.2,0.1-0.4,0.1s-0.4-0.1-0.5-0.2    c-0.1-0.1-0.1-0.3-0.1-0.5c0,0,0,0,0-0.1h0.4c0,0,0,0,0,0.1c0,0.1,0,0.2,0,0.3s0.1,0.1,0.2,0.1l0,0c0.1,0,0.1,0,0.2-0.1    c0-0.1,0-0.2,0-0.4l0,0c0-0.1,0-0.2,0-0.3s-0.1-0.1-0.2-0.1l0,0c-0.1,0-0.2,0.1-0.2,0.2h-0.4l0.1-1.1h1v0.3h-0.7v0.5    c0.1-0.1,0.2-0.1,0.3-0.1c0.1,0,0.1,0,0.2,0c0.2,0.1,0.3,0.3,0.3,0.6v0.1C123.3,71.5,123.3,71.6,123.3,71.7z" />
            <path id="C7" fill="#C49DC9" d="M115.2,78.5v3.9v0.5h13.5v-0.3v-4h-13.5V78.5z M121.9,81.4c0,0.1-0.1,0.2-0.2,0.3    c-0.1,0.1-0.2,0.1-0.4,0.1l0,0c-0.2,0-0.3,0-0.4-0.1c-0.1-0.1-0.2-0.2-0.2-0.3s-0.1-0.3-0.1-0.5v-0.4c0-0.2,0-0.4,0.1-0.6    c0-0.1,0.1-0.2,0.2-0.3c0.1-0.1,0.2-0.1,0.4-0.1l0,0c0.2,0,0.4,0.1,0.5,0.2c0.1,0.1,0.1,0.3,0.1,0.5h-0.4c0-0.3-0.1-0.4-0.2-0.4    l0,0c-0.2,0-0.3,0.1-0.3,0.4v0.7c0,0.2,0,0.3,0.1,0.4c0,0.1,0.1,0.1,0.2,0.1c0.1,0,0.2,0,0.2-0.1c0-0.1,0-0.2,0-0.4h0.4    C121.9,81.2,121.9,81.3,121.9,81.4z M123.3,80c-0.1,0.2-0.2,0.4-0.3,0.8c-0.1,0.3-0.2,0.7-0.2,1.1h-0.4c0-0.2,0.1-0.4,0.1-0.6    c0.1-0.2,0.1-0.5,0.2-0.7c0.1-0.2,0.2-0.4,0.2-0.5H122v-0.3h1.2V80H123.3z" />
            <path id="L1" fill="#BA539F" d="M116.5,229l5.6,7.2l5.3-7.2C127.4,229,116.5,229,116.5,229z M121.8,232.4h-1.5v-2.9h0.5    v2.4h1V232.4z M122.8,232.4v-2h-0.6V230l0,0c0.4,0,0.7-0.2,0.7-0.5h0.4v2.8h-0.5V232.4z" />
            <path id="L2" fill="#BA539F" d="M116.5,240.7l5.6,7.3l5.3-7.3H116.5z M121.8,244.1h-1.5v-2.9h0.5v2.4h1V244.1z     M123.6,244.1H122c0-0.2,0-0.4,0-0.5s0.1-0.2,0.1-0.3c0.1-0.1,0.1-0.2,0.2-0.3c0.1-0.1,0.2-0.3,0.4-0.4c0.1-0.1,0.2-0.2,0.2-0.3    c0.1-0.1,0.1-0.2,0.1-0.3s0-0.2-0.1-0.2c0-0.1-0.1-0.1-0.2-0.1l0,0c-0.1,0-0.2,0-0.2,0.1c-0.1,0.1-0.1,0.2-0.1,0.4v0.1h-0.5v-0.1    c0-0.3,0.1-0.5,0.2-0.6c0.2-0.1,0.4-0.2,0.6-0.2l0,0c0.1,0,0.3,0,0.4,0.1c0.1,0.1,0.2,0.2,0.3,0.3c0.1,0.1,0.1,0.2,0.1,0.4    s0,0.4-0.1,0.5c-0.1,0.1-0.2,0.3-0.5,0.5c-0.2,0.2-0.3,0.3-0.3,0.4c-0.1,0.1-0.1,0.2-0.1,0.3h1v0.2H123.6z" />
            <path id="L3" fill="#BA539F" d="M116.5,252.6l5.6,7.3l5.3-7.3H116.5z M121.8,255.9h-1.5v-2.8h0.5v2.4h1V255.9z     M123.5,255.8c-0.1,0.1-0.2,0.1-0.3,0.2c-0.1,0-0.2,0.1-0.3,0.1l0,0c-0.3,0-0.5-0.1-0.6-0.2c-0.1-0.1-0.2-0.3-0.2-0.7v-0.1h0.5    c0,0.1,0,0.1,0,0.1c0,0.3,0.1,0.4,0.3,0.4c0.1,0,0.2,0,0.2-0.1s0.1-0.2,0.1-0.3c0,0,0,0,0-0.1s0-0.1,0-0.1c0-0.1,0-0.2-0.1-0.3    c-0.1,0-0.2-0.1-0.3-0.1h-0.1v-0.4c0,0,0,0,0.1,0c0.2,0,0.3,0,0.3-0.1c0.1-0.1,0.1-0.2,0.1-0.3s0-0.2-0.1-0.2    c0-0.1-0.1-0.1-0.2-0.1l0,0c-0.2,0-0.2,0.1-0.2,0.3v0.1h-0.5v-0.1c0-0.2,0.1-0.4,0.2-0.5c0.1-0.1,0.3-0.2,0.6-0.2    c0.2,0,0.4,0.1,0.6,0.2c0.1,0,0.1,0.1,0.2,0.2c0,0.1,0.1,0.2,0.1,0.4c0,0.1,0,0.3-0.1,0.4s-0.2,0.2-0.3,0.2c0.1,0,0.2,0.1,0.2,0.1    c0.1,0.1,0.1,0.1,0.1,0.2s0,0.2,0,0.3s0,0.3-0.1,0.4C123.6,255.6,123.5,255.7,123.5,255.8z" />
            <path id="L5" fill="#BA539F" d="M116.5,274.1l5.6,7.3l5.3-7.3C127.4,274.1,116.5,274.1,116.5,274.1z M121.8,277.5h-1.5    v-2.9h0.5v2.5h1V277.5z M123.3,277.5c-0.1,0.1-0.3,0.1-0.5,0.1c-0.3,0-0.5-0.1-0.6-0.2c-0.1-0.1-0.2-0.4-0.2-0.6v-0.1h0.5v0.1    c0,0.2,0,0.3,0.1,0.3c0,0.1,0.1,0.1,0.2,0.1l0,0c0.1,0,0.2,0,0.2-0.1c0-0.1,0.1-0.2,0.1-0.5l0,0c0-0.2,0-0.3-0.1-0.4    c0-0.1-0.1-0.1-0.2-0.1l0,0c-0.1,0-0.2,0.1-0.3,0.2H122l0.1-1.5h1.4v0.4h-1v0.6c0.1-0.1,0.2-0.2,0.4-0.2c0.1,0,0.2,0,0.3,0    c0.3,0.1,0.4,0.3,0.5,0.8c0,0.1,0,0.1,0,0.2c0,0.2,0,0.4-0.1,0.5C123.6,277.3,123.5,277.4,123.3,277.5z" />
            <path id="R. Supraspinatus" fill="#FFCC67" d="M165.9,102.2c-17.2,0-31.2,2-31.3,4.4l31.8,0.1C166.3,105.2,166.1,103.7,165.9,102.2z     M164.9,105.9c-0.2,0.2-0.4,0.3-0.7,0.3h-0.1c-0.3,0-0.6-0.1-0.8-0.2c-0.2-0.1-0.3-0.4-0.3-0.8c0-0.1,0-0.2,0-0.2h0.6v0.1    c0,0,0,0,0,0.1v0.1c0,0.4,0.1,0.6,0.4,0.6c0.1,0,0.1,0,0.2,0c0.1,0,0.1-0.1,0.1-0.1c0-0.1,0.1-0.1,0.1-0.2c0-0.2-0.1-0.4-0.3-0.5    s-0.3-0.2-0.4-0.3s-0.3-0.2-0.4-0.3c-0.1-0.1-0.2-0.2-0.2-0.3c-0.1-0.1-0.1-0.2-0.1-0.4c0,0,0,0,0-0.1c0-0.5,0.3-0.8,0.9-0.8    c0,0,0,0,0.1,0c0.7,0,1,0.3,1,1v0.1h-0.6c0-0.4-0.1-0.6-0.4-0.6c-0.1,0-0.2,0-0.2,0.1c-0.1,0.1-0.1,0.1-0.1,0.2    c0,0.2,0.1,0.3,0.2,0.4c0.2,0.1,0.3,0.2,0.5,0.3c0.2,0.1,0.3,0.2,0.4,0.4c0.1,0.1,0.2,0.3,0.2,0.4c0,0.1,0,0.1,0,0.2    C165.1,105.5,165,105.8,164.9,105.9z" />
            <path id="R. Infraspinatus" fill="#FFCC67" d="M162.9,109.3c-0.2-0.1-0.5-0.1-0.7-0.2h-0.7c-0.2,0-0.5,0.1-0.8,0.2    c-1.5,0.4-2.8,1.8-3.1,3.4c0,0.1-0.1,0.2-0.1,0.3v0.8c0,0.2,0,0.4,0.1,0.5c0.4,1.7,1.7,3,3.4,3.2c2.4,0.4,4.4-1.2,4.8-3.3    C166.4,112,165.1,109.9,162.9,109.3z M162.1,115.1h-0.8v-4.3h0.8V115.1z" />
            <path id="R. Subscapularis" fill="#FFCC67" d="M165.6,144.1c-0.2-0.1-0.5-0.1-0.7-0.2h-0.7c-0.2,0.1-0.5,0.1-0.8,0.2    c-1.5,0.4-2.8,1.8-3.1,3.4c0,0.1-0.1,0.2-0.1,0.3v0.8c0,0.2,0,0.4,0.1,0.5c0.4,1.7,1.7,3,3.4,3.2c2.4,0.4,4.4-1.2,4.8-3.3    C169.1,146.9,167.8,144.7,165.6,144.1z M164.1,149.4c-0.2,0.2-0.4,0.3-0.8,0.3h-0.1c-0.3,0-0.6-0.1-0.8-0.2    c-0.2-0.2-0.3-0.5-0.3-0.9c0-0.1,0-0.2,0-0.2h0.7v0.1c0,0,0,0,0,0.1v0.1c0,0.4,0.1,0.6,0.4,0.6c0.1,0,0.1,0,0.2,0s0.1-0.1,0.1-0.1    c0-0.1,0.1-0.2,0.1-0.2c0-0.2-0.1-0.4-0.3-0.5c-0.2-0.1-0.3-0.2-0.5-0.3c-0.2-0.1-0.3-0.2-0.4-0.3s-0.2-0.2-0.3-0.3    c-0.1-0.1-0.1-0.3-0.1-0.4c0,0,0,0,0-0.1c0-0.6,0.4-0.9,1-0.9h0.1c0.7,0,1.1,0.4,1.1,1.1v0.1h-0.6c0-0.4-0.1-0.6-0.4-0.6    c-0.1,0-0.2,0-0.3,0.1c-0.1,0.1-0.1,0.2-0.1,0.3c0,0.2,0.1,0.3,0.2,0.4c0.2,0.1,0.4,0.2,0.6,0.4c0.2,0.1,0.4,0.3,0.5,0.4    s0.2,0.3,0.2,0.5c0,0.1,0,0.2,0,0.2C164.4,149.1,164.3,149.3,164.1,149.4z M166.8,149.4c-0.2,0.2-0.4,0.3-0.8,0.3h-0.1    c-0.3,0-0.6-0.1-0.8-0.2c-0.2-0.2-0.3-0.5-0.3-0.9c0-0.1,0-0.2,0-0.2h0.7v0.1c0,0,0,0,0,0.1v0.1c0,0.4,0.1,0.6,0.4,0.6    c0.1,0,0.1,0,0.2,0s0.1-0.1,0.1-0.1c0-0.1,0.1-0.2,0.1-0.2c0-0.2-0.1-0.4-0.3-0.5c-0.2-0.1-0.3-0.2-0.5-0.3    c-0.2-0.1-0.3-0.2-0.4-0.3c-0.1-0.1-0.2-0.2-0.3-0.3c-0.1-0.1-0.1-0.3-0.1-0.4c0,0,0,0,0-0.1c0-0.6,0.4-0.9,1-0.9h0.1    c0.7,0,1.1,0.4,1.1,1.1v0.1h-0.6c0-0.4-0.1-0.6-0.4-0.6c-0.1,0-0.2,0-0.3,0.1c-0.1,0.1-0.1,0.2-0.1,0.3c0,0.2,0.1,0.3,0.2,0.4    c0.2,0.1,0.4,0.2,0.6,0.4c0.2,0.1,0.4,0.3,0.5,0.4s0.2,0.3,0.2,0.5c0,0.1,0,0.2,0,0.2C167.1,149.1,167,149.3,166.8,149.4z" />
            <path id="R. Teres Minor" fill="#FFCC67" d="M160.1,119.5c-0.5-0.1-0.9-0.1-1.4-0.2h-1.4c-0.5,0.1-1,0.1-1.5,0.2    c-3.2,0.5-5.7,2.3-6.2,4.4c0,0.1-0.1,0.2-0.1,0.4v0.9c0.1,0.2,0.2,0.5,0.2,0.7c0.8,2.2,3.4,3.9,6.9,4.2c4.7,0.5,8.7-1.5,9.5-4.3    C167.2,122.9,164.5,120.2,160.1,119.5z M155.6,122.9h-0.9v3.7h-0.8v-3.7H153v-0.6h2.7v0.6H155.6z M159.8,126.6H159v-2.4l0.1-1.5    l0,0l-0.9,3.9h-0.5l-0.9-3.9l0,0l0.1,1.6v2.3h-0.8v-4.3h1.3l0.5,2.3l0.1,0.8l0.1-0.8l0.5-2.3h1.3v4.3H159.8z M162.6,126.6h-0.7    v-2.2c0-0.2,0-0.3-0.1-0.4c0-0.1-0.1-0.1-0.2-0.1l0,0c-0.1,0-0.2,0-0.2,0.1c-0.1,0.1-0.1,0.2-0.1,0.4v2.2h-0.7v-3.2h0.7v0.4    c0-0.1,0.1-0.3,0.3-0.3c0.1-0.1,0.3-0.1,0.4-0.1c0.2,0,0.4,0.1,0.5,0.2c0.1,0.1,0.2,0.3,0.2,0.5v2.5H162.6z" />
            <path id="R. Teres Major" fill="#FFCC67" d="M162.4,132.6c-0.4-0.1-0.8-0.1-1.2-0.2h-1.1c-0.5,0.1-0.9,0.1-1.4,0.1    c-2.7,0.5-4.9,2.2-5.3,4.1c0,0.2-0.1,0.2-0.1,0.4v0.9c0,0.2,0.1,0.5,0.2,0.7c0.7,2,3,3.6,6,3.9c4,0.5,7.5-1.5,8.2-3.9    C168.5,135.9,166.3,133.3,162.4,132.6z M158.7,135.7h-0.9v3.7H157v-3.7h-0.9v-0.6h2.7v0.6H158.7z M162.9,139.3h-0.8v-2.4l0.1-1.5    l0,0l-0.9,3.9h-0.5l-0.9-3.9l0,0l0.1,1.6v2.3h-0.8V135h1.3l0.5,2.3l0.1,0.8l0.1-0.8l0.5-2.3h1.3v4.3H162.9z M164.4,139.6    c0,0.3,0,0.5-0.1,0.6s-0.2,0.1-0.4,0.1c-0.1,0-0.2,0-0.5,0v-0.6h0.1c0.1,0,0.1,0,0.2,0c0,0,0-0.1,0-0.2V136h0.7    C164.4,136,164.4,139.6,164.4,139.6z M164.4,135.7h-0.7V135h0.7V135.7z" />
            <path id="T1" fill="#4ABFA7" d="M128.9,88.1c-0.5-0.5-1-0.8-1.6-0.9c-0.1,0-0.1-0.1-0.2-0.1h-10.2c-0.2,0-0.3,0-0.5,0.1    c-1.3,0.4-2.1,1.5-2.1,2.8c0,1.2,0.9,2.3,2.2,2.6c0.1,0,0.1,0.1,0.2,0.1h10.5c0.2-0.1,0.3-0.1,0.5-0.1c1-0.4,1.6-1,1.8-2    c0,0,0.1-0.1,0.1-0.2v-0.9C129.5,89,129.3,88.5,128.9,88.1z M121.9,88.9h-0.6v2.4h-0.5v-2.4h-0.6v-0.4h1.8v0.4H121.9z M123.3,91.3    h-0.5v-2h-0.6v-0.4l0,0c0.4,0,0.7-0.2,0.7-0.5h0.4L123.3,91.3L123.3,91.3z" />
            <path id="T2" fill="#4ABFA7" d="M128.9,99.8c-0.5-0.5-1-0.8-1.6-0.9c-0.1,0-0.1-0.1-0.2-0.1h-10.2c-0.2,0-0.3,0-0.5,0.1    c-1.3,0.4-2.1,1.5-2.1,2.8c0,1.2,0.9,2.3,2.2,2.6c0.1,0,0.1,0.1,0.2,0.1h10.5c0.2-0.1,0.3-0.1,0.5-0.1c1-0.4,1.6-1,1.8-2    c0,0,0.1-0.1,0.1-0.2v-0.9C129.5,100.7,129.3,100.2,128.9,99.8z M121.9,100.5h-0.6v2.4h-0.5v-2.4h-0.6v-0.4h1.8v0.4H121.9z     M123.6,102.5v0.4H122c0-0.2,0-0.4,0-0.5s0.1-0.2,0.1-0.3c0.1-0.1,0.1-0.2,0.2-0.3c0.1-0.1,0.2-0.3,0.4-0.4    c0.1-0.1,0.2-0.2,0.2-0.3c0.1-0.1,0.1-0.2,0.1-0.3s0-0.2-0.1-0.2c0-0.1-0.1-0.1-0.2-0.1l0,0c-0.1,0-0.2,0-0.2,0.1    c-0.1,0.1-0.1,0.2-0.1,0.4v0.1h-0.5V101c0-0.3,0.1-0.5,0.2-0.6c0.2-0.1,0.4-0.2,0.6-0.2l0,0c0.1,0,0.3,0,0.4,0.1    c0.1,0.1,0.2,0.2,0.3,0.3c0.1,0.1,0.1,0.2,0.1,0.4c0,0.2,0,0.4-0.1,0.5c-0.1,0.1-0.2,0.3-0.5,0.5c-0.2,0.2-0.3,0.3-0.3,0.4    c-0.1,0.1-0.1,0.2-0.1,0.3h1.1V102.5z" />
            <path id="T3" fill="#4ABFA7" d="M128.9,111.1c-0.5-0.5-1-0.8-1.6-0.9c-0.1,0-0.1-0.1-0.2-0.1h-10.2c-0.2,0-0.3,0-0.5,0.1    c-1.3,0.4-2.1,1.5-2.1,2.8c0,1.2,0.9,2.3,2.2,2.6c0.1,0,0.1,0.1,0.2,0.1h10.5c0.2-0.1,0.3-0.1,0.5-0.1c1-0.4,1.6-1,1.8-2    c0,0,0.1-0.1,0.1-0.2v-0.9C129.5,112,129.3,111.5,128.9,111.1z M121.9,111.9h-0.6v2.4h-0.5v-2.4h-0.6v-0.4h1.8v0.4H121.9z     M123.6,113.9c0,0.1-0.1,0.2-0.2,0.3c-0.1,0.1-0.2,0.1-0.3,0.2c-0.1,0-0.2,0.1-0.3,0.1l0,0c-0.3,0-0.5-0.1-0.6-0.2    c-0.1-0.1-0.2-0.3-0.2-0.7v-0.1h0.5c0,0.1,0,0.1,0,0.1c0,0.3,0.1,0.4,0.3,0.4c0.1,0,0.2,0,0.2-0.1s0.1-0.2,0.1-0.3c0,0,0,0,0-0.1    s0-0.1,0-0.1c0-0.1,0-0.2-0.1-0.3c-0.1,0-0.2-0.1-0.3-0.1h-0.1v-0.4c0,0,0,0,0.1,0c0.2,0,0.3,0,0.3-0.1c0.1-0.1,0.1-0.2,0.1-0.3    s0-0.2-0.1-0.2c0-0.1-0.1-0.1-0.2-0.1l0,0c-0.2,0-0.2,0.1-0.2,0.3v0.1h-0.5v-0.1c0-0.2,0.1-0.4,0.2-0.5c0.1-0.1,0.3-0.2,0.6-0.2    c0.2,0,0.4,0.1,0.6,0.2c0.1,0,0.1,0.1,0.2,0.2c0,0.1,0.1,0.2,0.1,0.4c0,0.1,0,0.3-0.1,0.4c-0.1,0.1-0.2,0.2-0.3,0.2    c0.1,0,0.2,0.1,0.2,0.1c0.1,0.1,0.1,0.1,0.1,0.2c0,0.1,0,0.2,0,0.3C123.7,113.6,123.6,113.8,123.6,113.9z" />
            <path id="T5" fill="#4ABFA7" d="M128.9,132.8c-0.5-0.5-1-0.8-1.6-0.9c-0.1,0-0.1-0.1-0.2-0.1h-10.2c-0.2,0-0.3,0-0.5,0.1    c-1.3,0.4-2.1,1.5-2.1,2.8c0,1.2,0.9,2.3,2.2,2.6c0.1,0,0.1,0.1,0.2,0.1h10.5c0.2-0.1,0.3-0.1,0.5-0.1c1-0.4,1.6-1,1.8-2    c0,0,0.1-0.1,0.1-0.2v-0.9C129.5,133.7,129.3,133.2,128.9,132.8z M121.9,133.6h-0.6v2.4h-0.5v-2.4h-0.6v-0.4h1.8v0.4H121.9z     M123.6,135.6c-0.1,0.2-0.2,0.3-0.3,0.4c-0.1,0.1-0.3,0.1-0.5,0.1c-0.3,0-0.5-0.1-0.6-0.2c-0.1-0.1-0.2-0.4-0.2-0.6v-0.1h0.5v0.1    c0,0.2,0,0.3,0.1,0.3c0,0.1,0.1,0.1,0.2,0.1l0,0c0.1,0,0.2,0,0.2-0.1s0.1-0.2,0.1-0.5l0,0c0-0.2,0-0.3-0.1-0.4    c0-0.1-0.1-0.1-0.2-0.1l0,0c-0.1,0-0.2,0.1-0.3,0.2H122l0.1-1.5h1.4v0.4h-1v0.6c0.1-0.1,0.2-0.2,0.4-0.2c0.1,0,0.2,0,0.3,0    c0.3,0.1,0.4,0.3,0.5,0.8c0,0.1,0,0.1,0,0.2C123.7,135.3,123.7,135.5,123.6,135.6z" />
            <path id="T7" fill="#4ABFA7" d="M128.9,154.4c-0.5-0.5-1-0.8-1.6-0.9c-0.1,0-0.1-0.1-0.2-0.1h-10.2c-0.2,0-0.3,0-0.5,0.1    c-1.3,0.4-2.1,1.5-2.1,2.8c0,1.2,0.9,2.3,2.2,2.6c0.1,0,0.1,0.1,0.2,0.1h10.5c0.2-0.1,0.3-0.1,0.5-0.1c1-0.4,1.6-1,1.8-2    c0,0,0.1-0.1,0.1-0.2v-0.9C129.5,155.4,129.3,154.8,128.9,154.4z M121.9,155.3h-0.6v2.4h-0.5v-2.4h-0.6v-0.4h1.8v0.4H121.9z     M123.7,155.3c-0.1,0.2-0.3,0.6-0.4,1c-0.2,0.5-0.2,0.9-0.3,1.4h-0.6c0-0.3,0.1-0.5,0.2-0.9c0.1-0.3,0.2-0.6,0.3-0.9    c0.1-0.3,0.2-0.5,0.3-0.6h-1.1v-0.4h1.6V155.3z" />
            <path id="T11" fill="#4ABFA7" d="M128.9,200.4c-0.5-0.5-1-0.8-1.6-0.9c-0.1,0-0.1-0.1-0.2-0.1h-10.2c-0.2,0-0.3,0-0.5,0.1    c-1.3,0.4-2.1,1.5-2.1,2.8c0,1.2,0.9,2.3,2.2,2.6c0.1,0,0.1,0.1,0.2,0.1h10.5c0.2,0,0.3-0.1,0.5-0.1c1-0.4,1.6-1,1.8-2    c0,0,0.1-0.1,0.1-0.2v-0.9C129.5,201.3,129.3,200.8,128.9,200.4z M120.9,201.2h-0.6v2.4h-0.5v-2.4h-0.6v-0.4h1.8v0.4H120.9z     M122.3,203.6h-0.5v-2h-0.6v-0.4l0,0c0.4,0,0.7-0.2,0.7-0.5h0.4L122.3,203.6L122.3,203.6z M124.2,203.6h-0.5v-2h-0.6v-0.4l0,0    c0.4,0,0.7-0.2,0.7-0.5h0.4L124.2,203.6L124.2,203.6z" />
            <path id="T12" fill="#4ABFA7" d="M128.9,211.5c-0.5-0.5-1-0.8-1.6-0.9c-0.1,0-0.1-0.1-0.2-0.1h-10.2c-0.2,0-0.3,0-0.5,0.1    c-1.3,0.4-2.1,1.5-2.1,2.8c0,1.2,0.9,2.3,2.2,2.6c0.1,0,0.1,0.1,0.2,0.1h10.5c0.2-0.1,0.3-0.1,0.5-0.1c1-0.4,1.6-1,1.8-2    c0,0,0.1-0.1,0.1-0.2v-0.9C129.5,212.4,129.3,211.9,128.9,211.5z M120.9,212.3h-0.6v2.4h-0.5v-2.4h-0.6v-0.4h1.8v0.4H120.9z     M122.3,214.7h-0.5v-2h-0.6v-0.4l0,0c0.4,0,0.7-0.2,0.7-0.5h0.4L122.3,214.7L122.3,214.7z M124.6,214.3v0.4H123c0-0.2,0-0.4,0-0.5    c0-0.1,0.1-0.2,0.1-0.3c0.1-0.1,0.1-0.2,0.2-0.3c0.1-0.1,0.2-0.3,0.4-0.4c0.1-0.1,0.2-0.2,0.2-0.3c0.1-0.1,0.1-0.2,0.1-0.3    s0-0.2-0.1-0.2c0-0.1-0.1-0.1-0.2-0.1l0,0c-0.1,0-0.2,0-0.2,0.1c-0.1,0.1-0.1,0.2-0.1,0.4v0.1h-0.5v-0.1c0-0.3,0.1-0.5,0.2-0.6    c0.2-0.1,0.4-0.2,0.6-0.2l0,0c0.1,0,0.3,0,0.4,0.1c0.1,0.1,0.2,0.2,0.3,0.3c0.1,0.1,0.1,0.2,0.1,0.4c0,0.2,0,0.4-0.1,0.5    c-0.1,0.1-0.2,0.3-0.5,0.5c-0.2,0.2-0.3,0.3-0.3,0.4c-0.1,0.1-0.1,0.2-0.1,0.3h1.1V214.3z" />
            <path id="T8" fill="#4ABFA7" d="M128.9,165.7c-0.5-0.5-1-0.8-1.6-0.9c-0.1,0-0.1-0.1-0.2-0.1h-10.2c-0.2,0-0.3,0-0.5,0.1    c-1.3,0.4-2.1,1.5-2.1,2.8c0,1.2,0.9,2.3,2.2,2.6c0.1,0,0.1,0.1,0.2,0.1h10.5c0.2-0.1,0.3-0.1,0.5-0.1c1-0.4,1.6-1,1.8-2    c0,0,0.1-0.1,0.1-0.2v-0.9C129.5,166.6,129.3,166,128.9,165.7z M121.9,166.4h-0.6v2.4h-0.5v-2.4h-0.6V166h1.8v0.4H121.9z     M123.6,168.5c-0.1,0.1-0.1,0.2-0.3,0.3c-0.1,0.1-0.3,0.1-0.4,0.1l0,0c-0.2,0-0.3,0-0.5-0.1c-0.1-0.1-0.2-0.1-0.3-0.3    c-0.1-0.1-0.1-0.3-0.1-0.5s0-0.3,0.1-0.4c0.1-0.1,0.2-0.2,0.3-0.3c-0.1,0-0.2-0.1-0.2-0.1c0-0.1-0.1-0.1-0.1-0.2s0-0.2,0-0.3l0,0    c0-0.1,0-0.2,0.1-0.3c0.1-0.1,0.1-0.2,0.2-0.3c0.1-0.1,0.2-0.1,0.4-0.1l0,0c0.2,0,0.4,0.1,0.5,0.2c0.1,0.1,0.2,0.3,0.2,0.5l0,0    c0,0.2,0,0.3-0.1,0.4c-0.1,0.1-0.1,0.2-0.3,0.2c0.2,0,0.3,0.1,0.3,0.2c0.1,0.1,0.1,0.3,0.1,0.5    C123.7,168.3,123.7,168.4,123.6,168.5z" />
            <path id="T9" fill="#4ABFA7" d="M128.9,176.8c-0.5-0.5-1-0.8-1.6-0.9c-0.1,0-0.1-0.1-0.2-0.1h-10.2c-0.2,0-0.3,0-0.5,0.1    c-1.3,0.4-2.1,1.5-2.1,2.8c0,1.2,0.9,2.3,2.2,2.6c0.1,0,0.1,0.1,0.2,0.1h10.5c0.2,0,0.3-0.1,0.5-0.1c1-0.4,1.6-1,1.8-2    c0,0,0.1-0.1,0.1-0.2v-0.9C129.5,177.7,129.3,177.2,128.9,176.8z M121.9,177.6h-0.6v2.4h-0.5v-2.4h-0.6v-0.4h1.8v0.4H121.9z     M123.7,179c0,0.3,0,0.5-0.1,0.6c-0.1,0.2-0.1,0.3-0.3,0.4c-0.1,0.1-0.3,0.1-0.5,0.1c-0.3,0-0.4-0.1-0.6-0.2    c-0.1-0.1-0.2-0.2-0.2-0.4l0,0h0.5l0,0c0,0.1,0,0.1,0.1,0.1c0,0,0.1,0.1,0.2,0.1c0.1,0,0.2-0.1,0.2-0.2s0-0.2,0-0.4v-0.2    c-0.1,0.1-0.2,0.2-0.4,0.2c-0.1,0-0.2,0-0.3-0.1c-0.2-0.1-0.4-0.4-0.4-0.8c0,0,0,0,0-0.1c0-0.2,0-0.4,0.1-0.6    c0.1-0.2,0.1-0.3,0.2-0.3c0.1-0.1,0.2-0.1,0.4-0.1c0.3,0,0.5,0.1,0.6,0.2c0.1,0.1,0.2,0.4,0.2,0.8v0.9H123.7z" />
            <path id="Atlas" fill="#C49DC9" d="M115.3,49v3.9v0.5h13.4c0.1-0.1,0.1-0.2,0.1-0.3v-4h-13.5V49z M120.3,51.8l-0.1-0.5h-0.5    l-0.1,0.5h-0.4l0.5-2.1h0.5l0.5,2.1H120.3z M121.5,50.5h-0.2v0.9c0,0.1,0,0.1,0,0.1h0.1v0.3c0,0,0,0-0.1,0h-0.1    c-0.2,0-0.3-0.1-0.3-0.3v-1.1h-0.1v-0.3h0.1v-0.4h0.4v0.4h0.2L121.5,50.5L121.5,50.5z M122.1,51.8h-0.4v-2.1h0.4V51.8z     M123.2,51.8v-0.1c0,0,0,0,0-0.1c-0.1,0.1-0.2,0.2-0.3,0.2c-0.1,0-0.1,0-0.2,0c-0.2-0.1-0.2-0.2-0.2-0.4l0,0c0-0.1,0-0.2,0.1-0.3    c0-0.1,0.1-0.1,0.2-0.2c0,0,0.1-0.1,0.2-0.1c0.1,0,0.2-0.1,0.2-0.1l0.1-0.1c0-0.1-0.1-0.1-0.2-0.1c-0.1,0-0.1,0-0.1,0    s-0.1,0.1-0.1,0.2h-0.3l0,0c0-0.2,0-0.3,0.1-0.4c0.1-0.1,0.2-0.1,0.4-0.1s0.3,0,0.4,0.1c0.1,0.1,0.1,0.2,0.1,0.3v1    c0,0.1,0,0.2,0,0.3L123.2,51.8L123.2,51.8z M124.4,50.5c-0.1,0-0.2,0-0.2,0.1s0,0.1,0.1,0.1c0,0,0.1,0.1,0.3,0.2    c0.1,0.1,0.2,0.2,0.3,0.2c0.1,0.1,0.1,0.2,0.1,0.3c0,0,0,0.1,0,0.2c0,0.2-0.2,0.3-0.5,0.3c-0.2,0-0.3,0-0.4-0.1    c-0.1-0.1-0.1-0.2-0.1-0.4c0,0,0,0,0-0.1h0.4v0.1c0,0.1,0.1,0.2,0.2,0.2c0.1,0,0.2-0.1,0.2-0.2c0-0.1,0-0.1-0.1-0.2    c0,0-0.1-0.1-0.2-0.1c-0.1-0.1-0.2-0.1-0.3-0.2c-0.1-0.1-0.1-0.1-0.1-0.2c0,0,0-0.1,0-0.2c0-0.1,0.1-0.2,0.2-0.3    c0.1-0.1,0.2-0.1,0.4-0.1c0.4,0,0.5,0.2,0.5,0.5h-0.4l0,0C124.5,50.5,124.5,50.5,124.4,50.5z" />
            <path id="C4" fill="#C49DC9" d="M115.2,63.8v3.9v0.5h13.5v-0.3v-4h-13.5V63.8z M121.9,66.6c0,0.1-0.1,0.2-0.2,0.3    c-0.1,0.1-0.2,0.1-0.4,0.1l0,0c-0.2,0-0.3,0-0.4-0.1c-0.1-0.1-0.2-0.2-0.2-0.3s-0.1-0.3-0.1-0.5v-0.4c0-0.2,0-0.4,0.1-0.6    c0-0.1,0.1-0.2,0.2-0.3c0.1-0.1,0.2-0.1,0.4-0.1l0,0c0.2,0,0.4,0.1,0.5,0.2c0.1,0.1,0.1,0.3,0.1,0.5h-0.4c0-0.3-0.1-0.4-0.2-0.4    l0,0c-0.2,0-0.3,0.1-0.3,0.4v0.7c0,0.2,0,0.3,0.1,0.4c0,0.1,0.1,0.1,0.2,0.1c0.1,0,0.2,0,0.2-0.1s0-0.2,0-0.4h0.4    C121.9,66.4,121.9,66.5,121.9,66.6z M123.4,66.6h-0.2V67h-0.4v-0.4h-0.7v-0.3l0.6-1.4h0.4v1.4h0.2v0.3H123.4z" />
            <path id="C6" fill="#C49DC9" d="M115.2,73.6v3.9V78h13.5v-0.3v-4h-13.5V73.6z M121.9,76.4c0,0.1-0.1,0.2-0.2,0.3    c-0.1,0.1-0.2,0.1-0.4,0.1l0,0c-0.2,0-0.3,0-0.4-0.1c-0.1-0.1-0.2-0.2-0.2-0.3s-0.1-0.3-0.1-0.5v-0.4c0-0.2,0-0.4,0.1-0.6    c0-0.1,0.1-0.2,0.2-0.3c0.1-0.1,0.2-0.1,0.4-0.1l0,0c0.2,0,0.4,0.1,0.5,0.2c0.1,0.1,0.1,0.3,0.1,0.5h-0.4c0-0.3-0.1-0.4-0.2-0.4    l0,0c-0.2,0-0.3,0.1-0.3,0.4v0.7c0,0.2,0,0.3,0.1,0.4c0,0.1,0.1,0.1,0.2,0.1c0.1,0,0.2,0,0.2-0.1s0-0.2,0-0.4h0.4    C121.9,76.2,121.9,76.3,121.9,76.4z M123.3,76.2L123.3,76.2c0,0.3-0.1,0.4-0.2,0.5c-0.1,0.1-0.2,0.2-0.4,0.2s-0.3-0.1-0.4-0.2    c-0.1-0.1-0.2-0.3-0.2-0.5v-0.7c0-0.3,0.1-0.5,0.2-0.6c0.1-0.1,0.3-0.2,0.5-0.2l0,0c0.1,0,0.3,0,0.4,0.1c0.1,0.1,0.1,0.2,0.1,0.3    l0,0h-0.4c0-0.1-0.1-0.2-0.1-0.2c-0.1,0-0.2,0-0.2,0.1c0,0.1,0,0.2-0.1,0.3v0.1c0.1-0.1,0.2-0.1,0.3-0.1c0.2,0,0.3,0.1,0.4,0.2    C123.3,75.7,123.3,75.9,123.3,76.2C123.3,76.1,123.3,76.1,123.3,76.2z" />
            <path id="L4" fill="#BA539F" d="M116.5,263.1l5.6,7.3l5.3-7.3H116.5z M121.8,266.5h-1.5v-2.9h0.5v2.5h1V266.5z     M123.5,265.9v0.6H123v-0.6h-0.9v-0.4l0.9-1.8h0.6v1.8h0.2v0.4H123.5z" />
            <path id="Sacrum" fill="#BA539F" d="M122.2,283.3c-2.5,0-4.7,2.1-4.7,4.7v29.3c0,2.6,2.1,4.7,4.7,4.7c2.6,0,4.7-2.2,4.7-4.7    v-29.2C126.9,285.5,124.8,283.3,122.2,283.3z M121.2,294.5c-0.1-0.1-0.1-0.3-0.1-0.4c0-0.2,0.1-0.4,0.2-0.6    c0.1-0.2,0.3-0.2,0.5-0.2h2.6v0.7h-2.3c-0.3,0-0.5,0.1-0.5,0.3l0,0c0,0.2,0.2,0.4,0.5,0.4h2.2v0.7H122c-0.3,0-0.4,0.1-0.4,0.4l0,0    c0,0.1,0,0.2,0.1,0.3c0.1,0.1,0.2,0.1,0.4,0.1h2.2v0.7h-3.2v-0.7h0.3l0,0c-0.1-0.1-0.2-0.2-0.3-0.3c-0.1-0.1-0.1-0.3-0.1-0.4    c0-0.2,0-0.3,0.1-0.5c0.1-0.1,0.2-0.2,0.3-0.2C121.4,294.8,121.3,294.7,121.2,294.5z M122.1,300.8c0.1,0.1,0.2,0.2,0.5,0.2h1.8    v0.7h-3.2V301h0.6c-0.4-0.2-0.7-0.4-0.7-0.8h0.9v0.1C122,300.6,122,300.7,122.1,300.8z M124.5,306.4c0,0.1,0,0.2-0.1,0.4    c-0.1,0.3-0.4,0.5-0.8,0.5h-0.1c-0.2,0-0.4,0-0.5-0.1c-0.1-0.1-0.3-0.2-0.4-0.4c-0.1-0.1-0.1-0.2-0.2-0.4    c-0.1-0.2-0.1-0.3-0.2-0.4c-0.1-0.1-0.1-0.1-0.3-0.1s-0.3,0.1-0.3,0.4c0,0.2,0,0.2,0.1,0.3c0.1,0.1,0.2,0.1,0.4,0.1v0.7    c0,0,0,0-0.1,0c-0.3,0-0.6-0.1-0.7-0.3c-0.2-0.2-0.2-0.5-0.2-0.8c0-0.4,0.1-0.7,0.2-0.8c0.1-0.2,0.4-0.3,0.7-0.3h1.9    c0.2,0,0.4,0,0.5-0.1v0.7c0,0-0.1,0-0.3,0.1H124C124.3,305.9,124.5,306.1,124.5,306.4z M124.5,309c0,0.4-0.1,0.7-0.3,1    c-0.2,0.3-0.5,0.4-1.1,0.4c-0.1,0-0.2,0-0.3,0v-0.8h0.1c0,0,0,0,0.1,0h0.1c0.5,0,0.7-0.2,0.7-0.5c0-0.1,0-0.2,0-0.2    c0-0.1-0.1-0.1-0.2-0.2c-0.1,0-0.2-0.1-0.3-0.1c-0.2,0-0.5,0.1-0.6,0.4c-0.1,0.2-0.2,0.4-0.4,0.5c-0.1,0.2-0.2,0.3-0.3,0.4    c-0.1,0.1-0.2,0.2-0.4,0.3c-0.1,0.1-0.3,0.1-0.5,0.1H121c-0.7,0-1-0.4-1-1.1v-0.1c0-0.8,0.4-1.3,1.3-1.3h0.1v0.8    c-0.5,0-0.8,0.2-0.8,0.5c0,0.1,0,0.2,0.1,0.3c0.1,0.1,0.2,0.1,0.3,0.1c0.2,0,0.4-0.1,0.5-0.3c0.1-0.2,0.3-0.4,0.4-0.7    c0.2-0.2,0.3-0.4,0.5-0.6s0.4-0.2,0.6-0.3c0.1,0,0.2,0,0.3,0c0.3,0,0.6,0.1,0.8,0.3s0.4,0.5,0.4,0.9    C124.5,308.9,124.5,309,124.5,309z M124.2,304.1c-0.2,0.2-0.4,0.3-0.8,0.3h-1.2c-0.5,0-0.8-0.1-1-0.3c-0.1-0.2-0.2-0.4-0.2-0.7    c0-0.2,0-0.3,0.1-0.5c0-0.1,0.1-0.3,0.2-0.3c0.1-0.1,0.2-0.1,0.3-0.2c0.1,0,0.3-0.1,0.6-0.1v0.8h-0.4c-0.1,0-0.1,0-0.2,0.1    c0,0.1-0.1,0.1-0.1,0.2c0,0.2,0.1,0.3,0.4,0.3h1.4c0.3,0,0.5-0.1,0.5-0.3s-0.2-0.3-0.5-0.3H123v-0.7h0.3c0.4,0,0.6,0.1,0.8,0.3    s0.3,0.4,0.3,0.8C124.5,303.7,124.4,303.9,124.2,304.1z M124.4,299.6c-0.1,0.2-0.4,0.3-0.8,0.3h-2.4v-0.8h2.3    c0.3,0,0.4-0.1,0.4-0.3l0,0c0-0.2-0.2-0.3-0.6-0.3h-2.2v-0.7h3.2v0.7h-0.5c0.4,0.1,0.6,0.3,0.6,0.7    C124.5,299.3,124.5,299.5,124.4,299.6z" />
            <path id="Coxis" fill="#BA539F" d="M123.3,323.1c-0.2-0.1-0.5-0.1-0.7-0.2h-0.7c-0.2,0.1-0.5,0.1-0.8,0.2    c-1.5,0.4-2.8,1.8-3.1,3.4c0,0.1-0.1,0.2-0.1,0.3v0.8c0,0.2,0,0.4,0.1,0.5c0.4,1.7,1.7,3,3.4,3.2c2.4,0.4,4.4-1.2,4.8-3.3    C126.8,325.9,125.5,323.7,123.3,323.1z M121.4,327.9c0,0.1-0.1,0.2-0.2,0.3c-0.1,0.1-0.3,0.2-0.5,0.2l0,0c-0.2,0-0.3,0-0.5-0.1    c-0.1-0.1-0.2-0.2-0.3-0.3c-0.1-0.2-0.1-0.4-0.1-0.6V327c0-0.3,0-0.5,0.1-0.7c0-0.2,0.1-0.3,0.2-0.4c0.1-0.1,0.3-0.1,0.5-0.1l0,0    c0.3,0,0.4,0.1,0.5,0.2c0.1,0.1,0.2,0.4,0.2,0.6h-0.5c0-0.3-0.1-0.4-0.2-0.5l0,0c-0.2,0-0.3,0.2-0.3,0.5v0.9c0,0.2,0,0.3,0.1,0.4    c0,0.1,0.1,0.1,0.2,0.1c0.1,0,0.2,0,0.2-0.1c0-0.1,0.1-0.2,0.1-0.4h0.5C121.4,327.6,121.4,327.8,121.4,327.9z M123.1,327.7    c0,0.2,0,0.4-0.1,0.5c-0.1,0.1-0.3,0.2-0.5,0.2s-0.3,0-0.4-0.1c-0.1-0.1-0.2-0.2-0.2-0.3c0-0.1-0.1-0.3-0.1-0.6c0-0.2,0-0.4,0-0.6    c0-0.1,0.1-0.2,0.2-0.3c0.1-0.1,0.2-0.1,0.4-0.1s0.3,0,0.4,0.1c0.1,0.1,0.2,0.2,0.2,0.3s0,0.3,0,0.6v0.3H123.1z M124.2,328.4    L124,328v-0.2v0.2l-0.2,0.4h-0.5l0.5-1l-0.5-0.9h0.5l0.2,0.4v0.1v-0.1l0.2-0.4h0.5l-0.5,0.9l0.5,1H124.2z" />
            <path id="T4" fill="#4ABFA7" d="M128.9,121.7c-0.5-0.5-1-0.8-1.6-0.9c-0.1,0-0.1-0.1-0.2-0.1h-10.2c-0.2,0-0.3,0-0.5,0.1    c-1.3,0.4-2.1,1.5-2.1,2.8c0,1.2,0.9,2.3,2.2,2.6c0.1,0,0.1,0.1,0.2,0.1h10.5c0.2-0.1,0.3-0.1,0.5-0.1c1-0.4,1.6-1,1.8-2    c0,0,0.1-0.1,0.1-0.2v-0.9C129.5,122.6,129.3,122.1,128.9,121.7z M121.9,122.5h-0.6v2.4h-0.5v-2.4h-0.6v-0.4h1.8v0.4H121.9z     M123.7,124.4h-0.2v0.6H123v-0.6h-0.9V124l0.9-1.8h0.6v1.8h0.2v0.4H123.7z" />
            <path id="T6" fill="#4ABFA7" d="M128.9,143.8c-0.5-0.5-1-0.8-1.6-0.9c-0.1,0-0.1-0.1-0.2-0.1h-10.2c-0.2,0-0.3,0-0.5,0.1    c-1.3,0.4-2.1,1.5-2.1,2.8c0,1.2,0.9,2.3,2.2,2.6c0.1,0,0.1,0.1,0.2,0.1h10.5c0.2,0,0.3-0.1,0.5-0.1c1-0.4,1.6-1,1.8-2    c0,0,0.1-0.1,0.1-0.2v-0.9C129.5,144.7,129.3,144.1,128.9,143.8z M121.9,144.5h-0.6v2.4h-0.5v-2.4h-0.6v-0.4h1.8v0.4H121.9z     M123.7,146.1v0.1c0,0.3-0.1,0.5-0.2,0.6c-0.1,0.1-0.3,0.2-0.6,0.2c-0.2,0-0.4-0.1-0.6-0.2c-0.1-0.2-0.2-0.4-0.2-0.7v-1    c0-0.4,0.1-0.7,0.2-0.8c0.1-0.1,0.3-0.2,0.6-0.2l0,0c0.2,0,0.4,0.1,0.5,0.2c0.1,0.1,0.2,0.3,0.2,0.4l0,0h-0.5    c0-0.1-0.1-0.2-0.2-0.2c-0.1,0-0.2,0-0.2,0.1s-0.1,0.2-0.1,0.4c0,0,0,0.1,0,0.2c0.1-0.1,0.2-0.2,0.4-0.2s0.4,0.1,0.5,0.3    c0.1,0.2,0.1,0.4,0.1,0.6C123.7,146,123.7,146.1,123.7,146.1z" />
            <path id="T10" fill="#4ABFA7" d="M128.9,188.4c-0.5-0.5-1-0.8-1.6-0.9c-0.1,0-0.1-0.1-0.2-0.1h-10.2c-0.2,0-0.3,0-0.5,0.1    c-1.3,0.4-2.1,1.5-2.1,2.8c0,1.2,0.9,2.3,2.2,2.6c0.1,0,0.1,0.1,0.2,0.1h10.5c0.2,0,0.3-0.1,0.5-0.1c1-0.4,1.6-1,1.8-2    c0,0,0.1-0.1,0.1-0.2v-0.9C129.5,189.3,129.3,188.8,128.9,188.4z M120.9,189.2h-0.6v2.4h-0.5v-2.4h-0.6v-0.4h1.8v0.4H120.9z     M122.3,191.6h-0.5v-2h-0.6v-0.4l0,0c0.4,0,0.7-0.2,0.7-0.5h0.4L122.3,191.6L122.3,191.6z M124.6,190.9c0,0.5-0.3,0.8-0.8,0.8    s-0.8-0.3-0.8-0.8v-1.4c0-0.5,0.3-0.8,0.8-0.8s0.8,0.3,0.8,0.8V190.9z" />
        </g>
    </g>
</svg>
