<?xml version="1.0" encoding="UTF-8" ?>
<svg
    xmlns="http://www.w3.org/2000/svg" xmlns_xlink="http://www.w3.org/1999/xlink" version="1.1" id="Layer_1" x="0px" y="0px" viewBox="0 0 244 567" enable-background="new 0 0 244 567" xml_space="preserve">
    <g>
        <path id="R. Volar Thumb DIP" fill="#FFCC68" d="M10.9,295.1c0.3,2.5,0.9,4.9,1.1,7.3c0.1,0.3-0.2,0.9-0.5,1.1   c-2.6,1.9-5.2,3.8-7.8,5.5c-1.1,0.7-2.5,0.9-4.1,1.5c0.6-7.5,5.9-11.2,10.5-15.4C10.3,295.2,10.7,295.1,10.9,295.1L10.9,295.1   L10.9,295.1z" />
        <path id="R. Volar Thumb CMC" fill="#FFCC68" d="M22.8,282c1.4,0.5,3.1,1,5,1.8c-2.7,3.8-4.1,8.3-8.3,10.6   c-0.7-1.6-1.6-3.1-1.8-4.6c-0.1-1,0.7-2.4,1.5-3.3C20.1,285.1,21.3,283.8,22.8,282L22.8,282L22.8,282z" />
        <path id="R. Volar 1st MCP" fill="#FFCC68" d="M19.9,313.6c-1-1.5-1.7-2.6-2.4-3.6c-0.3-0.6-0.5-1.4-0.9-1.9   c-2.2-3.5-2.5-6.6,2-8.7C21.9,301.4,21.6,305.9,19.9,313.6L19.9,313.6L19.9,313.6z" />
        <path id="R. Volar 1st PIP" fill="#FFCC68" d="M15,323.1c-3.8-2.4-3.8-3-2.6-6.6c0.9-2.6,1.6-5.2,2.3-7.8   C18.2,311.5,18.6,318.8,15,323.1L15,323.1L15,323.1z" />
        <path id="R. Volar 2nd DIP" fill="#FFCC68" d="M19,327.9c2.5,0.9,4,1.4,5.8,2.1c-1,3.8-0.2,8.2-4.7,11.4   C19.8,336.7,19.3,332.7,19,327.9L19,327.9L19,327.9z" />
        <path id="R. Volar 2nd PIP" fill="#FFCC68" d="M20.4,317.4c1.9,0.9,3.6,1.6,5.8,2.6c-0.5,2.4-0.9,4.9-1.5,7.6   c-1.5-0.2-2.7-0.3-4.3-0.6C20.4,324.1,20.4,321,20.4,317.4L20.4,317.4L20.4,317.4z" />
        <path id="R. Volar 1st DIP" fill="#FFCC68" d="M11.1,321.7c0.9,1.5,2.7,3.1,2.5,4.3c-0.5,2.9-1.5,5.8-4.3,7.4   c-0.3,0.2-0.9,0.1-2,0.1c0.9-4,1.9-7.8,2.8-11.5C10.5,321.9,10.8,321.8,11.1,321.7L11.1,321.7L11.1,321.7z" />
        <path id="R. Volar 2nd MCP" fill="#FFCC68" d="M26,318.2c-1.8-0.9-3.2-1.5-5.1-2.4c0.7-2.9,1.3-5.8,1.9-8.7   c2.7-0.1,3.4,1.1,3.2,3.4C25.8,313,26,315.5,26,318.2L26,318.2L26,318.2z" />
        <path id="R. Volar Thumb PIP" fill="#FFCC68" d="M16.1,290c0.9,2.3,1.7,4.6,2.6,7.1c-1.3,1-2.6,2.1-4.4,3.6   c-0.7-2.1-1.8-3.9-1.7-5.7c0.1-1.7,1.6-3.3,2.5-5C15.3,290,15.8,290,16.1,290L16.1,290L16.1,290z" />
        <path id="Face" fill="#FFCC68" d="M121,28.2h-16.5V39l16.6,13.8L137.7,39V28.2L121,28.2L121,28.2z" />
        <path id="L. Maxilla" fill="#FFCC68" d="M137.7,53c0.1-0.3,0.2-0.5,0.2-0.7V39.6L122.8,53H137.7L137.7,53z" />
        <path id="R. Anterolat. Upper Leg" fill="#FFCC68" d="M64.1,308.9h10.2v2.6v33.3c0.1,11.1,1.7,21.9,4.5,32.5   c1.8,6.7,4.4,13.5,6.4,20.2c0.9,2.7,0.9,5.8,1.3,8.9H75.6c-0.3-1.9-0.3-3.8-0.9-5.6c-1.4-4.6-2.8-9-4.3-13.6   c-4.9-15.3-6.9-31-7.5-47c-0.2-7.2-0.3-14.5-0.2-21.7C62.7,315.4,63.6,312.3,64.1,308.9L64.1,308.9L64.1,308.9z" />
        <path id="R. Ant. Shoulder" fill="#FFCC68" d="M81.8,91.6c-0.9,1.3-1.9,2.5-3,3.8c-1.3,1.5-2.5,2.9-3.8,4.3c-2.6,3.1-5.1,6-7.7,9.1   c-8.2,9.8-16.3,19.6-24.3,29.4c-0.1,0.1-0.2,0.1-0.5,0.3c-1.5-5-1.4-10,0.1-14.9s3.2-9.7,5.7-14c1.5-2.7,4.4-4.9,7.2-6.7   c7.7-5.5,16.7-8.4,25.5-11.7C81.4,91.3,81.7,91.5,81.8,91.6L81.8,91.6L81.8,91.6z" />
        <path id="R. Dorsum" fill="#FFCC68" d="M96.2,541.3h17.2c0.5,0,1.4,0.5,1.4,0.8c0.5,4.2,0.9,8.3,1.4,12.7H88.6   C91,550.5,93.5,546.2,96.2,541.3L96.2,541.3L96.2,541.3z" />
        <path id="R. Volar Hand" fill="#FFCC68" d="M41.4,298.3c-3.3,2.1-6.6,4.3-10,6.4c-2.2,1.4-4.4,3-7.2,0.7c-2-1.8-3.5-6.2-2.4-8.9   c0.9-1.9,2-3.8,3.3-5.5c0.8-1.3,2-2.2,2.6-3.5c0.9-2.6,2.6-2.9,4.9-2.1c2.7,0.9,5.5,2.1,8.2,3.2c0.6,0.2,0.9,1.4,0.9,2.1   C41.7,293.2,41.5,295.8,41.4,298.3L41.4,298.3L41.4,298.3z" />
        <path id="R. Lateral Knee" fill="#FFCC68" d="M75.4,407.8H86V435h-9.4C74.8,426.1,75.7,417,75.4,407.8L75.4,407.8L75.4,407.8z" />
        <path id="R. Volar Wrist" fill="#FFCC68" d="M23.7,280.8c1.6-4.4,3.2-8.8,4.9-13.5c5.6,0.3,10.8,4.1,17.2,4.7   c-1.6,4.9-3.2,9.6-4.7,14.5C35.6,284.7,29.5,282.8,23.7,280.8L23.7,280.8L23.7,280.8z" />
        <path id="R. Medial Knee" fill="#FFCC68" d="M109.8,435.2h-7.5v-27.3h9.3C113,417,109.7,425.9,109.8,435.2L109.8,435.2L109.8,435.2   z" />
        <path id="R. Patella" fill="#FFCC68" d="M87.5,407.8h13.2v13.5H87.5V407.8L87.5,407.8z" />
        <path id="R. Anterior Elbow" fill="#FFCC68" d="M49.2,195.6c3.1,0.6,6,1,9.3,1.7c-1,5.6-2,11.2-3.2,17.5c-3.4-1.4-6.6-2.5-9.5-3.8   c-0.5-0.2-0.7-1.6-0.5-2.3C46.6,204.3,47.8,200.2,49.2,195.6L49.2,195.6L49.2,195.6z" />
        <path id="R. Tibial Tuberosity" fill="#FFCC68" d="M100.7,435.2H87.5v-12.3h13.3v12.3H100.7z" />
        <path id="R. Medial Elbow" fill="#FFCC68" d="M59.9,197.6c2,0.7,4,1.3,5.7,2.1c0.5,0.2,0.9,1.1,0.8,1.7c-0.3,4.9-0.6,10-0.9,14.9   c0,0.5-1.4,1.1-1.9,1c-1.8-0.3-3.5-1-5.1-1.8c-0.5-0.2-0.8-1.5-0.7-2.1c0.5-4,1.1-8,1.7-12.1C59.6,200.2,59.6,199.1,59.9,197.6   L59.9,197.6L59.9,197.6z" />
        <path id="R. Lateral Elbow" fill="#FFCC68" d="M47.7,194.9c-1.5,4.9-2.8,9.7-4.3,14.8c-2.6-0.8-5.5-1.5-8.6-2.5   c1-2.7,2-5.4,3.1-7.8c0.3-0.8,0.8-1.5,1-2.3c1.7-3.9,2-4,6.3-3.1C45.9,194.5,46.6,194.6,47.7,194.9L47.7,194.9L47.7,194.9z" />
        <path id="R. Subtalar Joint" fill="#FFCC68" d="M107.6,540.1h-7.3v-13.5h7.3V540.1L107.6,540.1z" />
        <path id="R. Medial Ankle" fill="#FFCC68" d="M109.1,540.1v-13.3c0.3-0.1,0.5-0.2,0.7-0.2c3.8-0.2,3.8-0.2,4.9,3.5   c0.3,1.5,0.9,2.7,1.1,4.2c0.9,4.3-0.7,6-5,6C110.2,540.3,109.8,540.2,109.1,540.1L109.1,540.1L109.1,540.1z" />
        <path id="R. Great Toe" fill="#FFCC68" d="M109.1,556.4h7.7c-0.3,2.5-0.7,4.9-1,7.2c-0.2,0.8-0.6,1.8-1.3,2.1   c-1.3,0.7-2.6,1.4-4,1.1c-0.6,0-1.4-1.9-1.5-3C108.9,561.5,109.1,559,109.1,556.4L109.1,556.4L109.1,556.4z" />
        <path id="R. Lateral Ankle" fill="#FFCC68" d="M93.7,526.7h5c0,3.9,0.1,7.6-0.1,11.3c0,0.8-0.9,1.5-1.4,2.2   c-0.8-0.6-1.7-0.9-2.3-1.7c-0.5-0.6-0.7-1.5-0.8-2.4C94.2,533,94,529.9,93.7,526.7L93.7,526.7L93.7,526.7z" />
        <path id="R. Volar 3rd PIP" fill="#FFCC68" d="M34.1,314.7c1.6,3.6,0.2,7.1,0.7,10.4c-0.8,0.3-1.5,0.5-2,0.8   c-3.5,1.3-5.2-0.3-4.4-4C29,318.6,31.6,316.9,34.1,314.7L34.1,314.7L34.1,314.7z" />
        <path id="R. Volar 3rd MCP" fill="#FFCC68" d="M29,317c-3.1-4.4,0-10.8,5.7-12.1C36,310,33.7,314.8,29,317L29,317L29,317z" />
        <path id="R. 2nd Toe" fill="#FFCC68" d="M103.4,556.4h4.3c0.3,3,0.1,5.8-1.4,8.3c-0.5,0.9-1.7,1.6-2.6,1.8c-2,0.3-2.8-0.6-2.4-2.6   C101.9,561.4,102.7,559,103.4,556.4L103.4,556.4L103.4,556.4z" />
        <path id="R. 5th Toe" fill="#FFCC68" d="M89.9,556.5c-0.9,2.3-1.9,4.3-2.6,6.4c-0.6,1.6-1.6,2.3-3.3,2.1c-1.5-0.2-2.8-0.3-4.3-0.5   C81.8,559.4,85.3,556.6,89.9,556.5L89.9,556.5L89.9,556.5z" />
        <path id="R. 3rd Toe" fill="#FFCC68" d="M101.6,556.4c-0.6,2.5-1.1,4.8-1.7,7c-0.2,0.7-0.3,1.5-0.9,1.8c-1,0.8-2.4,1.3-3.5,1.8   c-0.2-1.1-0.6-2.4-0.3-3.4c0.5-2.1,1.1-4.2,1.9-6C98,555.1,99.9,556.6,101.6,556.4L101.6,556.4L101.6,556.4z" />
        <path id="R. Volar 4th PIP" fill="#FFCC68" d="M39.6,319.7c-2.5-4.8-2-7.1,2.7-11.7c0.2,1.9,0.3,3.4,0.5,4.9   c0.2,1.5,0.3,3.1,0.5,4.7C42.1,318.1,40.9,318.9,39.6,319.7L39.6,319.7L39.6,319.7z" />
        <path id="R. Volar 3rd DIP" fill="#FFCC68" d="M34.9,327.1c-0.7,4.3-1.1,7.9-1.8,12.2c-3.2-3.4-3-7.2-3.9-10.8   C31.2,328.1,32.8,327.7,34.9,327.1L34.9,327.1L34.9,327.1z" />
        <path id="R. 4th Toe" fill="#FFCC68" d="M94.9,555.8c-0.3,2.5-0.5,4.2-0.9,5.8c-0.2,1-0.5,2.3-1.3,2.9c-0.9,0.8-2.3,0.9-3.4,1.3   c-0.2-1-0.6-2.2-0.3-3.2c0.5-1.9,1-3.9,2-5.5C91.7,556.4,93.3,556.4,94.9,555.8L94.9,555.8L94.9,555.8z" />
        <path id="R. Volar 4th MCP" fill="#FFCC68" d="M37.5,310.5c-0.3-2.4-0.8-4.3-1-6.4c0-0.3,0.6-0.9,1-1.3c1.1-0.8,2.3-1.5,3.4-2.3   C42.9,303.1,41.7,306.8,37.5,310.5L37.5,310.5L37.5,310.5z" />
        <path id="R. Volar 4th DIP" fill="#FFCC68" d="M42.5,328.7c-1.6-1.8-2.6-4-2-6.5c0.2-0.9,1.3-1.7,1.8-2.6c0.6,0.9,1.5,1.7,1.5,2.6   c0,2.2-0.3,4.3-0.6,6.5H42.5L42.5,328.7z" />
        <path id="L. Volar Thumb DIP" fill="#FFCC68" d="M232.7,295.1c-0.3,2.5-0.9,4.9-1.1,7.3c-0.1,0.3,0.2,0.9,0.5,1.1   c2.6,1.9,5.2,3.8,7.8,5.5c1.1,0.7,2.5,0.9,4.1,1.5c-0.6-7.5-5.9-11.2-10.5-15.4C233.3,295.1,233,295.1,232.7,295.1L232.7,295.1   L232.7,295.1z" />
        <path id="L. Volar Thumb CMC" fill="#FFCC68" d="M220.8,282c-1.4,0.5-3.1,1-5,1.8c2.7,3.8,4.1,8.3,8.3,10.6   c0.7-1.6,1.6-3.1,1.8-4.6c0.1-1-0.7-2.4-1.5-3.3C223.5,284.9,222.3,283.7,220.8,282L220.8,282L220.8,282z" />
        <path id="L. Volar 1st MCP" fill="#FFCC68" d="M223.9,313.5c1-1.5,1.7-2.6,2.4-3.6c0.3-0.6,0.5-1.4,0.9-1.9c2.2-3.5,2.5-6.6-2-8.7   C221.6,301.4,222.1,305.9,223.9,313.5L223.9,313.5L223.9,313.5z" />
        <path id="L. Volar 1st PIP" fill="#FFCC68" d="M228.5,323.1c3.8-2.4,3.8-3,2.5-6.6c-0.9-2.6-1.6-5.2-2.3-7.8   C225.4,311.4,225,318.7,228.5,323.1L228.5,323.1L228.5,323.1z" />
        <path id="L. Volar 2nd DIP" fill="#FFCC68" d="M224.7,327.8c-2.5,0.9-4,1.4-5.8,2.1c1,3.8,0.3,8.2,4.7,11.4   C223.9,336.6,224.2,332.6,224.7,327.8L224.7,327.8L224.7,327.8z" />
        <path id="L. Volar 2nd PIP" fill="#FFCC68" d="M223.2,317.4c-1.9,0.9-3.6,1.6-5.8,2.6c0.5,2.4,0.9,4.9,1.5,7.6   c1.5-0.2,2.7-0.3,4.3-0.6C223.2,323.9,223.2,320.9,223.2,317.4L223.2,317.4L223.2,317.4z" />
        <path id="L. Volar 1st DIP" fill="#FFCC68" d="M232.4,321.4c-0.9,1.5-2.7,3.1-2.6,4.3c0.5,2.9,1.5,5.8,4.3,7.4   c0.3,0.2,0.9,0.1,2,0.1c-0.9-4-1.9-7.8-2.8-11.5C233.1,321.8,232.9,321.7,232.4,321.4L232.4,321.4L232.4,321.4z" />
        <path id="L. Volar 2nd MCP" fill="#FFCC68" d="M217.6,318.1c1.8-0.9,3.2-1.5,5.1-2.4c-0.7-2.9-1.3-5.8-1.9-8.7   c-2.7-0.1-3.4,1.1-3.2,3.4C217.7,312.9,217.6,315.4,217.6,318.1L217.6,318.1L217.6,318.1z" />
        <path id="L. Volar Thumb PIP" fill="#FFCC68" d="M227.5,290c-0.9,2.3-1.7,4.6-2.6,7.1c1.3,1,2.6,2.1,4.4,3.6   c0.7-2.1,1.8-3.9,1.7-5.7c-0.1-1.7-1.6-3.3-2.5-5C228.2,289.8,227.9,289.8,227.5,290L227.5,290L227.5,290z" />
        <path id="L. Volar Hand" fill="#FFCC68" d="M202.3,298.2c3.3,2.1,6.6,4.3,10,6.4c2.2,1.4,4.4,3,7.2,0.7c2-1.8,3.5-6.2,2.4-8.9   c-0.9-1.9-2-3.8-3.3-5.5c-0.8-1.3-2-2.2-2.6-3.5c-0.9-2.6-2.6-2.9-4.9-2.1c-2.7,0.9-5.5,2.1-8.2,3.2c-0.6,0.2-0.9,1.4-0.9,2.1   C201.9,293,202.2,295.7,202.3,298.2L202.3,298.2L202.3,298.2z" />
        <path id="L. Volar 3rd PIP" fill="#FFCC68" d="M209.6,314.6c-1.6,3.6-0.2,7.1-0.7,10.4c0.8,0.3,1.5,0.5,2,0.8   c3.5,1.3,5.2-0.3,4.4-4C214.8,318.4,212.1,316.8,209.6,314.6L209.6,314.6L209.6,314.6z" />
        <path id="L. Volar 3rd MCP" fill="#FFCC68" d="M214.8,316.9c3.1-4.4,0-10.8-5.7-12.1C207.5,309.9,209.8,314.7,214.8,316.9   L214.8,316.9L214.8,316.9z" />
        <path id="L. Volar 4th PIP" fill="#FFCC68" d="M204,319.6c2.5-4.8,1.9-7.1-2.7-11.7c-0.2,1.9-0.2,3.4-0.5,4.9   c-0.2,1.5-0.3,3.1-0.5,4.7C201.5,318,202.7,318.7,204,319.6L204,319.6L204,319.6z" />
        <path id="L. Volar 3rd DIP" fill="#FFCC68" d="M208.7,327.1c0.7,4.3,1.1,7.9,1.8,12.2c3.2-3.4,3-7.2,3.9-10.8   C212.5,327.9,210.8,327.6,208.7,327.1L208.7,327.1L208.7,327.1z" />
        <path id="L. Volar 4th MCP" fill="#FFCC68" d="M206.3,310.4c0.3-2.4,0.8-4.3,1-6.4c0-0.3-0.6-0.9-1-1.3c-1.1-0.8-2.3-1.5-3.4-2.3   C200.7,303,201.8,306.7,206.3,310.4L206.3,310.4L206.3,310.4z" />
        <path id="L. Volar 4th DIP" fill="#FFCC68" d="M201.2,328.6c1.6-1.8,2.6-4,2-6.5c-0.2-0.9-1.3-1.7-1.8-2.6   c-0.6,0.9-1.5,1.7-1.5,2.6c0,2.2,0.3,4.3,0.6,6.5H201.2L201.2,328.6z" />
        <path id="R. Ear" fill="#FFCC68" d="M93.9,36.4c-0.3,0.3-0.9,0.7-1.7,0.8c-1.4,0.2-1.9,1-1.5,2.4c0.6,2.5,1,5,1.6,7.5   c0.9,3.3,3.5,5.5,6.8,5.8C99.1,43.8,96.7,36.4,93.9,36.4L93.9,36.4L93.9,36.4z" />
        <path id="R. Temporal Region" fill="#FFCC68" d="M103,7.4c-0.2-0.1-0.5-0.2-0.8-0.3c-1.3,1.8-2.6,3.5-3.8,5.5   C95,19.1,94.5,26,95,33.2c0.1,1.1-0.1,2.1-0.6,2.6c3.1,0,5.5,7.8,5.5,17.2c1.3,0.1,2.6,0,3.9-0.3C103.3,37.8,105,22.6,103,7.4   L103,7.4L103,7.4z" />
        <path id="Shape58" fill="#FFCC68" d="M104.5,13.6v-0.3V13.6L104.5,13.6z" />
        <path id="Forehead R." fill="#FFCC68" d="M104.5,13.6v13.7h15.7V16.3C109.1,16,105,15,104.5,13.6L104.5,13.6L104.5,13.6z" />
        <path id="R. Top of the head" fill="#FFCC68" d="M120.3,6.1H120c-3,0-5.5-2.4-5.6-5.4c-3.1,0.9-5.9,2.4-8.6,4.2   c-0.6,0.3-1.1,1.4-1.1,2.1v6.2C105.2,10.2,120.3,6.1,120.3,6.1L120.3,6.1L120.3,6.1z" />
        <path id="R. Maxilla" fill="#FFCC68" d="M104.5,52.3c0,0.1,0.1,0.3,0.2,0.7h14.9h0.1l-15.1-13.3v12.7H104.5z" />
        <path id="R. TMJ" fill="#FFCC68" d="M107.2,61.3c0-3.1-1.3-5.7-3.2-7h-4.8c0,0.5-0.1,0.9,0,1.3c0.6,3,1,5.9,1.8,8.8   c0.7,2.6,1,3.9,1.9,4.6C105.5,67.9,107.2,64.9,107.2,61.3L107.2,61.3L107.2,61.3z" />
        <path id="R. Clavicular Region" fill="#FFCC68" d="M85.6,96.7c-0.2,2.9-0.8,5.7-1.4,8.7h36.1V89.9H87.5   C86.4,91.8,85.8,94.2,85.6,96.7L85.6,96.7L85.6,96.7z" />
        <path id="R. Anterior Trap" fill="#FFCC68" d="M102.4,79.6L102.4,79.6c-2.2,2.2-5,3.5-7.6,5.1c-0.3,0.3-0.8,0.6-1.3,0.6   c-2.8,0.5-4.7,1.7-5.8,3.4h33C111.2,88.9,103.4,84.9,102.4,79.6L102.4,79.6L102.4,79.6z" />
        <path id="R. Anterior Neck" fill="#FFCC68" d="M120.7,69.5V54.3h-16c2.3,1.3,3.8,4.1,3.8,7.2c0,3.6-1.7,6.6-4.5,7.6   c0.1,0.1-0.1,0.3,0,0.3h-0.1c0,0.6,0,1-0.1,1.5c-0.5,2.7,1.3,6-0.9,8.3c0.9,5,8.6,9,18,9V69.5L120.7,69.5z" />
        <path id="R. Anterolat. Bicep" fill="#FFCC68" d="M43.1,141.3c-2.7,3.4-1.4,3.5-1.5,6v43.7c0,0.5,0.8,1.4,1.5,1.5   c3.4,0.9,6.8,1.8,10.3,2.6l12.7-81.8C58.4,122.6,50.7,132,43.1,141.3L43.1,141.3L43.1,141.3z" />
        <path id="R. Anteromed. Bicep" fill="#FFCC68" d="M55,194.5c1.3,0.3,2.4,0.6,3.6,0.9c2.4,0.6,4.9,0.9,7.6,1.3   c0.1-1,0.2-1.8,0.3-2.5c0.8-6.2,1.1-12.4,2.6-18.5c0.3-1.1,0.3-2.3,0.3-3.2c0.7-3.8,1.3-6.8,1.8-10c3.2-16.5,6.3-33.2,9.4-49.7   H67.3L55,194.5L55,194.5z" />
        <path id="R. Glenohumeral Joint" fill="#FFCC68" d="M83.5,92.8c-0.9,0.5-1,0.6-1.1,0.7c-5.1,6.2-10.1,12.3-15.2,18.5h13.3   c0.7-3.3,1.4-6.7,2-10C82.9,98.9,83.2,96.1,83.5,92.8L83.5,92.8L83.5,92.8z" />
        <path id="R. Thorax" fill="#FFCC68" d="M78.2,134.4c-2.2,11.2-4.3,22.2-6.6,33.4h43v-33.9C99.7,142.4,78.2,134.4,78.2,134.4   L78.2,134.4L78.2,134.4z" />
        <path id="R. Breast Region" fill="#FFCC68" d="M83.5,106.9c-1.8,8.9-3.6,17.8-5.5,26.6c0,0,21.5,7.8,36.4-0.5v-26.1L83.5,106.9   L83.5,106.9z" />
        <path id="R. Hypochondriac Region" fill="#FFCC68" d="M70.6,169.3v28.4c38.8,3.3,42.8-28.4,42.8-28.4H70.6L70.6,169.3z" />
        <path id="Upper R. Abd." fill="#FFCC68" d="M99.1,193.9c-6.6,3.9-15.7,6.5-28.5,5.5v17.9h48.9V194H99.1V193.9z" />
        <path id="R. Epigastrium" fill="#FFCC68" d="M119.4,169.3h-4.1c0,0-1.9,14.7-15,23h19v-23H119.4z" />
        <path id="R. Anterolat. Forearm" fill="#FFCC68" d="M33.8,209c-3.2,18.9-2.8,38-4.7,56.6c2.5,0.8,4.9,1.6,7.2,2.4L48.6,214   C43.7,212.3,38.9,210.7,33.8,209L33.8,209L33.8,209z" />
        <path id="R. Anteromed. Forearm" fill="#FFCC68" d="M64.2,218.9c-4.8-1.6-9.5-3.2-14.3-4.9l-12,53.9c3.2,1,6.4,2.1,9.4,3.2   C54.5,253.9,61.8,237.3,64.2,218.9L64.2,218.9L64.2,218.9z" />
        <path id="R. Anterior Hip" fill="#FFCC68" d="M68.2,248.8c-0.5,6.3-1,12.5-1.5,18.8h43.8C86.5,266.2,72.5,253.5,68.2,248.8   L68.2,248.8L68.2,248.8z" />
        <path id="Shape78" fill="#FFCC68" d="M68.2,248.8c0-0.3,0.1-0.8,0.1-1" />
        <path id="Shape79" fill="#FFCC68" d="M119.3,267.7h-9.1C113.2,267.9,116.3,267.9,119.3,267.7L119.3,267.7L119.3,267.7z" />
        <path id="R. Hip Flexors" fill="#FFCC68" d="M90.9,269.3H66.5c-0.6,6.8-1.1,13.7-1.6,20.4c5.8-0.2,20.8,1,20.9,17.5H91   C90.9,294.5,90.9,282,90.9,269.3L90.9,269.3L90.9,269.3z" />
        <path id="Shape81" fill="#FFCC68" d="M85.8,307.3h-0.9" />
        <path id="Shape82" fill="#FFCC68" d="M64.8,291.6c0.1-0.6,0.1-1.3,0.2-1.8" />
        <path id="R. Greater Trochanter" fill="#FFCC68" d="M64.8,290.4c0,0.6-0.1,1.1-0.1,1.7c-0.3,5-0.9,10-1.3,15.2h20.8H85   C85,291.4,70.4,290.2,64.8,290.4L64.8,290.4L64.8,290.4z" />
        <path id="R. Ant. Upper Leg" fill="#FFCC68" d="M75.6,308.9c-0.1,0.6-0.1,1-0.1,1.5c-0.2,15.2-0.2,30.5,1.4,45.6   c1.4,12.4,3.4,24.9,8,36.5c1.5,3.9,2.6,7.6,2,11.7c-0.1,0.7,0.1,1.4,0.2,2.2h13.5l-0.8-97.5L75.6,308.9L75.6,308.9z" />
        <path id="R. Anteromed. Upper Leg" fill="#FFCC68" d="M101.9,308.9l0.8,97.5h8.3c1.5,0,1.3-1.1,1.4-2.1c0.3-5.5,0.5-11.1,1-16.5   c0.9-9.5,2.2-19.2,3.2-28.6c1-9.9,1.5-20,3.2-29.8c1.1-6.8,0.6-13.6,0.9-20.5H101.9L101.9,308.9z" />
        <path id="R. Anterolat. Lower Leg" fill="#FFCC68" d="M75,436.6c0,9-0.2,17.9,0.1,26.6c0.1,4.8,0.2,9.8,1.8,14   c5.5,15.5,11.7,30.7,15.7,46.6c0.1,0.5,0.9,1.3,1.3,1.3c3,0,5.9,0.1,8.9,0.1l-10.5-88.7H75V436.6z" />
        <path id="R. Anteromed. Lower Leg" fill="#FFCC68" d="M114.8,490.9c1-13.6,2.4-27.1-1.6-40.5c-1.4-4.6-2.2-9.4-3.2-13.9H93.4   l10.3,88.7h9.8c-0.2-3.1-0.8-5.9-0.6-8.7C113.3,508.1,114.1,499.5,114.8,490.9L114.8,490.9L114.8,490.9z" />
        <path id="L. Anterolat. Upper Leg" fill="#FFCC68" d="M178.3,308.9h-10.2v2.6v33.3c-0.1,11.1-1.7,21.9-4.5,32.5   c-1.8,6.7-4.4,13.5-6.4,20.2c-0.9,2.7-0.9,5.8-1.3,8.9h10.9c0.3-1.9,0.3-3.8,0.9-5.6c1.4-4.6,2.8-9,4.3-13.6   c4.9-15.3,6.9-31,7.5-47c0.3-7.2,0.3-14.5,0.3-21.7C179.6,315.4,178.8,312.3,178.3,308.9L178.3,308.9L178.3,308.9z" />
        <path id="L. Ant. Shoulder" fill="#FFCC68" d="M160.5,91.6c0.9,1.3,1.9,2.5,3,3.8c1.3,1.5,2.5,2.9,3.8,4.3c2.5,3.1,5.1,6,7.6,9.1   c8.2,9.8,16.3,19.6,24.3,29.4c0.1,0.1,0.3,0.1,0.5,0.3c1.5-5,1.4-10-0.1-14.9s-3.2-9.7-5.7-14c-1.5-2.7-4.4-4.9-7.2-6.7   c-7.7-5.5-16.7-8.4-25.5-11.7C160.9,91.3,160.7,91.5,160.5,91.6L160.5,91.6L160.5,91.6z" />
        <path id="L. Dorsum" fill="#FFCC68" d="M146,541.3h-17.2c-0.5,0-1.4,0.5-1.4,0.8c-0.5,4.2-0.9,8.3-1.4,12.7h27.5   C151.3,550.5,148.9,546.2,146,541.3L146,541.3L146,541.3z" />
        <path id="L. Lateral Knee" fill="#FFCC68" d="M166.9,407.8h-10.6V435h9.3C167.6,426.1,166.6,417,166.9,407.8L166.9,407.8   L166.9,407.8z" />
        <path id="L. Volar Wrist" fill="#FFCC68" d="M218.8,280.8c-1.6-4.4-3.2-8.8-4.9-13.5c-5.6,0.3-10.8,4.1-17.2,4.7   c1.6,4.9,3.2,9.6,4.7,14.5C206.8,284.7,212.7,282.8,218.8,280.8L218.8,280.8L218.8,280.8z" />
        <path id="L. Medial Knee" fill="#FFCC68" d="M132.6,435.2h7.5v-27.3h-9.3C129.4,417,132.7,425.9,132.6,435.2L132.6,435.2   L132.6,435.2z" />
        <path id="L. Patella" fill="#FFCC68" d="M154.9,407.8h-13.2v13.5h13.2V407.8L154.9,407.8z" />
        <path id="L. Anterior Elbow" fill="#FFCC68" d="M193.2,195.6c-3.1,0.6-6,1-9.3,1.7c1,5.6,2,11.2,3.2,17.5c3.4-1.4,6.5-2.5,9.5-3.8   c0.5-0.2,0.7-1.6,0.5-2.3C195.8,204.3,194.4,200.2,193.2,195.6L193.2,195.6L193.2,195.6z" />
        <path id="L. Tibial Tuberosity" fill="#FFCC68" d="M141.6,435.2h13.3v-12.3h-13.3V435.2L141.6,435.2z" />
        <path id="L. Medial Elbow" fill="#FFCC68" d="M182.4,197.6c-2,0.7-4,1.3-5.7,2.1c-0.5,0.2-0.8,1.1-0.8,1.7c0.3,4.9,0.6,10,0.9,14.9   c0,0.5,1.4,1.1,1.9,1c1.8-0.3,3.5-1,5.1-1.8c0.5-0.2,0.8-1.5,0.7-2.1c-0.5-4-1.1-8-1.7-12.1C182.7,200.2,182.6,199.1,182.4,197.6   L182.4,197.6L182.4,197.6z" />
        <path id="L. Lateral Elbow" fill="#FFCC68" d="M194.7,194.9c1.5,4.9,2.8,9.7,4.3,14.8c2.6-0.8,5.5-1.5,8.6-2.5   c-1-2.7-2-5.4-3.1-7.8c-0.2-0.8-0.8-1.5-1-2.3c-1.7-3.9-2-4-6.3-3.1C196.6,194.5,195.7,194.6,194.7,194.9L194.7,194.9L194.7,194.9z   " />
        <path id="L. Subtalar Joint" fill="#FFCC68" d="M134.7,540.1h7.3v-13.5h-7.3V540.1L134.7,540.1z" />
        <path id="L. Medial Ankle" fill="#FFCC68" d="M133.2,540.1v-13.3c-0.3-0.1-0.5-0.2-0.7-0.2c-3.8-0.2-3.8-0.2-4.9,3.5   c-0.3,1.5-0.9,2.7-1.1,4.2c-0.9,4.3,0.7,6,5,6C132,540.3,132.5,540.2,133.2,540.1L133.2,540.1L133.2,540.1z" />
        <path id="L. Great Toe" fill="#FFCC68" d="M133.3,556.4h-7.7c0.3,2.5,0.7,4.9,1,7.2c0.2,0.8,0.6,1.8,1.3,2.1c1.3,0.7,2.6,1.4,4,1.1   c0.6,0,1.4-1.9,1.5-3C133.5,561.5,133.3,559,133.3,556.4L133.3,556.4L133.3,556.4z" />
        <path id="L. Lateral Ankle" fill="#FFCC68" d="M148.6,526.7h-5c0,3.9-0.1,7.6,0.1,11.3c0,0.8,0.9,1.5,1.4,2.2   c0.8-0.6,1.7-0.9,2.3-1.7c0.5-0.6,0.7-1.5,0.8-2.4C148.2,533,148.3,529.9,148.6,526.7L148.6,526.7L148.6,526.7z" />
        <path id="L. 2nd Toe" fill="#FFCC68" d="M139,556.4h-4.3c-0.3,3-0.1,5.8,1.4,8.3c0.5,0.9,1.7,1.6,2.6,1.8c2,0.3,2.8-0.6,2.4-2.6   C140.3,561.4,139.7,559,139,556.4L139,556.4L139,556.4z" />
        <path id="L. 5th Toe" fill="#FFCC68" d="M152.5,556.5c0.9,2.3,1.9,4.3,2.6,6.4c0.6,1.6,1.6,2.3,3.3,2.1c1.5-0.2,2.8-0.3,4.3-0.5   C160.5,559.4,156.9,556.6,152.5,556.5L152.5,556.5L152.5,556.5z" />
        <path id="L. 3rd Toe" fill="#FFCC68" d="M140.8,556.4c0.6,2.5,1.1,4.8,1.7,7c0.2,0.7,0.3,1.5,0.9,1.8c1,0.8,2.4,1.3,3.5,1.8   c0.2-1.1,0.6-2.4,0.3-3.4c-0.5-2.1-1.1-4.2-1.9-6C144.3,555.1,142.5,556.6,140.8,556.4L140.8,556.4L140.8,556.4z" />
        <path id="L. 4th Toe" fill="#FFCC68" d="M147.4,555.8c0.3,2.5,0.5,4.2,0.9,5.8c0.2,1,0.5,2.3,1.3,2.9c0.9,0.8,2.3,0.9,3.4,1.3   c0.2-1,0.6-2.2,0.3-3.2c-0.5-1.9-1-3.9-2-5.5C150.6,556.4,149,556.4,147.4,555.8L147.4,555.8L147.4,555.8z" />
        <path id="L. Ear" fill="#FFCC68" d="M148.4,36.4c0.3,0.3,0.9,0.7,1.7,0.8c1.4,0.2,1.9,1,1.5,2.4c-0.6,2.5-1,5-1.6,7.5   c-0.9,3.3-3.5,5.5-6.8,5.8C143.2,43.8,145.6,36.4,148.4,36.4L148.4,36.4L148.4,36.4z" />
        <path id="L. Temporal Region" fill="#FFCC68" d="M139.3,7.4c0.3-0.1,0.5-0.2,0.8-0.3c1.3,1.8,2.6,3.5,3.6,5.5   c3.4,6.5,3.9,13.5,3.4,20.6c-0.1,1.1,0.1,2.1,0.6,2.6c-3.1,0-5.5,7.8-5.5,17.2c-1.3,0.1-2.6,0-3.9-0.3   C139.2,37.8,137.4,22.6,139.3,7.4L139.3,7.4L139.3,7.4z" />
        <path id="Vertex" fill="#FFCC68" d="M121.1,0c-2-0.1-4.2,0.1-6.1,0.7c0.2,2.6,2.7,4.8,5.8,4.8h0.3h0.3c3.1,0,5.6-2.1,5.8-4.8   C125.3,0.1,123.3,0,121.1,0z" />
        <path id="Shape110" fill="#FFCC68" d="M137.7,13.6v-0.3V13.6L137.7,13.6z" />
        <path id="Forehead L." fill="#FFCC68" d="M137.7,13.6v13.7H122V16.3C133.4,16,137.4,15,137.7,13.6L137.7,13.6L137.7,13.6z" />
        <path id="L. Top of the head" fill="#FFCC68" d="M122,6.1h0.3c3,0,5.5-2.4,5.6-5.4c3.1,0.9,5.9,2.4,8.6,4.2   c0.6,0.3,1.1,1.4,1.1,2.1v6.2C137,10.2,122,6.1,122,6.1L122,6.1L122,6.1z" />
        <path id="L. TMJ" fill="#FFCC68" d="M135.2,61.3c0-3.1,1.3-5.7,3.2-7h4.8c0,0.5,0.1,0.9,0,1.3c-0.6,3-1,5.9-1.8,8.8   c-0.7,2.6-1,3.9-1.9,4.6C136.9,67.9,135.2,64.9,135.2,61.3L135.2,61.3L135.2,61.3z" />
        <path id="L. Clavicular Region" fill="#FFCC68" d="M156.8,96.7c0.3,2.9,0.9,5.7,1.4,8.7H122V89.9h32.7   C156,91.8,156.5,94.2,156.8,96.7L156.8,96.7L156.8,96.7z" />
        <path id="L. Anterior Trap" fill="#FFCC68" d="M139.9,79.6L139.9,79.6c2.2,2.2,5,3.5,7.6,5.1c0.3,0.3,0.8,0.6,1.3,0.6   c2.8,0.5,4.7,1.7,5.8,3.4h-32.8C131.3,88.9,139,84.9,139.9,79.6L139.9,79.6L139.9,79.6z" />
        <path id="L. Anterior Neck" fill="#FFCC68" d="M121.6,69.5V54.3h16c-2.3,1.3-3.8,4.1-3.8,7.2c0,3.6,1.7,6.6,4.5,7.6   c-0.1,0.1,0.1,0.3,0,0.3h0.1c0,0.6,0,1,0.1,1.5c0.5,2.7-1.3,6,0.8,8.3c-0.9,5-8.6,9-17.8,9L121.6,69.5L121.6,69.5z" />
        <path id="L. Anterolat. Bicep" fill="#FFCC68" d="M199.3,141.3c2.7,3.4,1.4,3.5,1.5,6v43.7c0,0.5-0.9,1.4-1.5,1.5   c-3.4,0.9-6.8,1.8-10.3,2.6l-12.8-81.8C184,122.6,191.6,132,199.3,141.3L199.3,141.3L199.3,141.3z" />
        <path id="L. Anteromed. Bicep" fill="#FFCC68" d="M187.4,194.5c-1.3,0.3-2.4,0.6-3.6,0.9c-2.4,0.6-4.9,0.9-7.6,1.3   c-0.1-1-0.2-1.8-0.2-2.5c-0.8-6.2-1.1-12.4-2.6-18.5c-0.2-1.1-0.3-2.3-0.3-3.2c-0.7-3.8-1.3-6.8-1.8-10   c-3.2-16.5-6.3-33.2-9.4-49.7H175L187.4,194.5L187.4,194.5z" />
        <path id="L. Glenohumeral Joint" fill="#FFCC68" d="M158.8,92.8c0.9,0.5,1,0.6,1.1,0.7c5.1,6.2,10.1,12.3,15.2,18.5h-13.3   c-0.7-3.3-1.4-6.7-2-10C159.3,98.9,159.1,96.1,158.8,92.8L158.8,92.8L158.8,92.8z" />
        <path id="L. Thorax" fill="#FFCC68" d="M164.2,134.4c2.2,11.2,4.3,22.2,6.5,33.4h-43v-33.9C142.6,142.4,164.2,134.4,164.2,134.4   L164.2,134.4L164.2,134.4z" />
        <path id="L. Breast Region" fill="#FFCC68" d="M158.8,106.9c1.8,8.9,3.6,17.8,5.5,26.6c0,0-21.5,7.8-36.4-0.5v-26.1L158.8,106.9   L158.8,106.9z" />
        <path id="L. Hypochondriac Region" fill="#FFCC68" d="M171.7,169.3v28.4c-38.8,3.3-42.8-28.4-42.8-28.4H171.7L171.7,169.3z" />
        <path id="Upper L. Abd." fill="#FFCC68" d="M143.2,193.9c6.5,3.9,15.7,6.5,28.5,5.5v17.9h-48.9V194h20.3V193.9z" />
        <path id="L. Epigastrium" fill="#FFCC68" d="M122.8,169.3h4.1c0,0,1.9,14.7,15,23h-19.1V169.3L122.8,169.3z" />
        <path id="L. Anterolat. Forearm" fill="#FFCC68" d="M208.5,209c3.2,18.9,2.8,38,4.7,56.6c-2.5,0.8-4.8,1.6-7.2,2.4L193.8,214   C198.5,212.3,203.4,210.7,208.5,209L208.5,209L208.5,209z" />
        <path id="L. Anteromed. Forearm" fill="#FFCC68" d="M178.1,218.9c4.9-1.6,9.5-3.2,14.3-4.9l12.2,53.9c-3.2,1-6.4,2.1-9.4,3.2   C187.9,253.9,180.6,237.3,178.1,218.9L178.1,218.9L178.1,218.9z" />
        <path id="L. Anterior Hip" fill="#FFCC68" d="M174.2,248.8c0.5,6.3,1,12.5,1.5,18.8h-43.8C155.8,266.2,169.9,253.5,174.2,248.8   L174.2,248.8L174.2,248.8z" />
        <path id="Shape129" fill="#FFCC68" d="M174.2,248.8c0-0.3-0.1-0.8-0.1-1" />
        <path id="Shape130" fill="#FFCC68" d="M123,267.7h9.1C129.1,267.9,126.1,267.9,123,267.7L123,267.7L123,267.7z" />
        <path id="L. Hip Flexors" fill="#FFCC68" d="M151.4,269.3h24.4c0.6,6.8,1.1,13.7,1.6,20.4c-5.8-0.2-20.8,1-20.9,17.5h-5.2   C151.4,294.5,151.4,282,151.4,269.3L151.4,269.3L151.4,269.3z" />
        <path id="Shape132" fill="#FFCC68" d="M156.6,307.3h0.9" />
        <path id="Shape133" fill="#FFCC68" d="M177.6,291.6c-0.1-0.6-0.1-1.3-0.2-1.8" />
        <path id="L. Greater Trochanter" fill="#FFCC68" d="M177.5,290.4c0,0.6,0.1,1.1,0.1,1.7c0.3,5,0.9,10,1.3,15.2h-20.8h-0.8   C157.4,291.4,171.9,290.2,177.5,290.4L177.5,290.4L177.5,290.4z" />
        <path id="L. Ant. Upper Leg" fill="#FFCC68" d="M166.8,308.9c0.1,0.6,0.1,1,0.1,1.5c0.2,15.2,0.2,30.5-1.4,45.6   c-1.4,12.4-3.4,24.9-8,36.5c-1.5,3.9-2.6,7.6-2,11.7c0.1,0.7-0.1,1.4-0.2,2.2h-13.5l0.8-97.5L166.8,308.9L166.8,308.9z" />
        <path id="L. Anteromed. Upper Leg" fill="#FFCC68" d="M140.5,308.9l-0.8,97.5h-8.3c-1.5,0-1.3-1.1-1.4-2.1   c-0.3-5.5-0.5-11.1-1-16.5c-0.9-9.5-2.2-19.2-3.2-28.6c-1-9.9-1.5-20-3.2-29.8c-1.1-6.8-0.6-13.6-0.9-20.5H140.5L140.5,308.9z" />
        <path id="L. Anterolat. Lower Leg" fill="#FFCC68" d="M167.4,436.6c0,9,0.2,17.9-0.1,26.6c-0.1,4.8-0.2,9.8-1.8,14   c-5.5,15.5-11.7,30.7-15.7,46.6c-0.1,0.5-0.8,1.3-1.3,1.3c-3,0-5.9,0.1-8.9,0.1l10.5-88.7h17.3V436.6z" />
        <path id="L. Anteromed. Lower Leg" fill="#FFCC68" d="M127.6,490.9c-1-13.6-2.4-27.1,1.6-40.5c1.4-4.6,2.2-9.4,3.2-13.9h16.5   l-10.3,88.7h-9.8c0.2-3.1,0.8-5.9,0.6-8.7C129,508.1,128.3,499.5,127.6,490.9L127.6,490.9L127.6,490.9z" />
        <path id="Lower R. Abd." fill="#FFCC68" d="M108.2,232.4c0-6.7,4.9-12.3,11.3-13.5v-0.2h-49c-0.8,9.4-1.5,18.6-2.3,27.7   c0,0.3-0.1,0.7-0.1,1c4.3,4.4,18.4,17.7,42.3,19h9.1v-20.9C113.1,244.7,108.2,239.1,108.2,232.4L108.2,232.4L108.2,232.4z" />
        <path id="Lower L. Abd." fill="#FFCC68" d="M174.2,246.5c-0.8-9.2-1.5-18.5-2.3-27.7h-49c0,0,0,0,0,0.1c6.9,0.6,12.3,6.5,12.3,13.5   s-5.5,12.9-12.3,13.5v20.8h9.1c23.8-1.5,37.8-14.6,42.3-19C174.2,247.3,174.2,247,174.2,246.5L174.2,246.5L174.2,246.5z" />
        <path id="Umbilical Region" fill="#FFCC68" d="M120.8,220.6L120.8,220.6c-6.1,0.9-10.7,5.9-10.7,11.7c0,5.9,4.5,10.8,10.7,11.9l0,0   c7.2-0.6,12.8-5.6,12.8-11.7C133.5,226.2,128,221.2,120.8,220.6z" />
        <path id="R. Groin" fill="#FFCC68" d="M106.4,269.3h-14v38h28C112.8,307.3,106.7,290.4,106.4,269.3L106.4,269.3L106.4,269.3z" />
        <path id="L. Groin" fill="#FFCC68" d="M136.1,269.5h14v38h-28C129.7,307.6,135.8,290.6,136.1,269.5L136.1,269.5L136.1,269.5z" />
        <path id="Genitals" fill="#FFCC68" d="M121.3,269.5h-13.9c0.3,20.2,6.3,36.3,13.9,36.3c7.5,0,13.5-16.1,13.8-36.3H121.3z" />
        <path id="Forehead" fill="#FFCC68" d="M136.6,13.1c-1-2.5-12.3-5.6-15-6.3c-0.3-0.1-0.8-0.1-1.1,0c-2.7,0.8-14.7,4.1-15.3,6.3v0.5   c0.2,1.4,4.2,2.3,14.9,2.5c11.9-0.2,16.3-1.1,16.6-2.5V13.1L136.6,13.1z" />
        <path id="Sternum" fill="#FFCC68" d="M116.1,106.9h10.3v60.9h-10.3V106.9L116.1,106.9z" />
    </g>
</svg>
