<?xml version="1.0" encoding="UTF-8" ?>
<svg
    xmlns="http://www.w3.org/2000/svg" xmlns_xlink="http://www.w3.org/1999/xlink" xmlns_sketch="http://www.bohemiancoding.com/sketch/ns" width="193px" height="270px" viewBox="0 0 193 270" version="1.1">
    <title>tongue1</title>
    <desc>Created with Sketch.</desc>
    <g id="Page-1" stroke="none" stroke-width="1" fill="none" fill-rule="evenodd" sketch_type="MSPage">
        <g id="tongue1" sketch_type="MSLayerGroup">
            <path d="M17.5620853,49.3081967 C24.8491311,58.8098361 57.9914692,82.0622951 96.4695103,81.295082 C134.947551,82.0918033 168.089889,58.8393443 175.376935,49.3081967 C179.096682,44.4393443 180.041864,39.2163934 179.889415,34.3180328 C179.3406,16.347541 168.364297,9.08852459 149.796051,9.08852459 C128.422749,9.08852459 125.404265,21.7770492 96.4695103,21.7770492 C67.5652449,21.7770492 64.5467615,9.08852459 43.14297,9.08852459 C24.5747235,9.08852459 13.5984202,16.347541 13.0496051,34.3180328 C12.8971564,39.2163934 13.8118483,44.4098361 17.5620853,49.3081967 L17.5620853,49.3081967 L17.5620853,49.3081967 Z" id="tongue_kidneybladder" fill="#0A60CA" sketch_type="MSShapeGroup" />
            <path d="M159.522275,72.6491803 C148.72891,81.6786885 142.143128,95.7245902 137.722117,124.701639 C135.465877,139.603279 135.160979,184.898361 138.331912,198.590164 C140.161295,206.409836 146.381201,211.898361 152.753555,208.681967 C155.619589,207.236066 157.601422,204.344262 159.308847,201.216393 C170.407109,180.82623 182.328594,130.75082 182.359084,85.1311475 C182.420063,67.7213115 167.053239,66.3639344 159.522275,72.6491803 L159.522275,72.6491803 L159.522275,72.6491803 Z" id="tongue_liverGBLeft" fill="#AFDA36" sketch_type="MSShapeGroup" />
            <path d="M96.8963665,87.0196721 C80.0965245,87.0196721 70.7056872,90.8262295 65.7053712,101.803279 C59.8208531,114.757377 66.4066351,163.121311 76.6511848,175.898361 C85.6456556,187.111475 90.7374408,187.760656 96.8963665,187.760656 C103.055292,187.760656 108.330016,187.259016 117.141548,175.898361 C127.812954,162.088525 134.459716,114.22623 128.087362,101.803279 C122.56872,91.0918033 113.665719,87.0196721 96.8963665,87.0196721 L96.8963665,87.0196721 L96.8963665,87.0196721 Z" id="tongue_stomach" fill="#F9BB14" sketch_type="MSShapeGroup" />
            <path d="M40.7952607,208.681967 C47.1676145,211.898361 53.3875197,206.409836 55.2169036,198.590164 C58.4183254,184.898361 58.1134281,139.603279 55.8266983,124.701639 C51.4056872,95.7245902 44.8199052,81.6786885 34.0265403,72.6491803 C26.5260664,66.3639344 11.128752,67.7213115 11.1592417,85.1311475 C11.1897314,130.75082 23.1112164,180.82623 34.2094787,201.216393 C35.9169036,204.344262 37.8987362,207.236066 40.7952607,208.681967 L40.7952607,208.681967 L40.7952607,208.681967 Z" id="tongue_liverGBRight" fill="#AFDA36" sketch_type="MSShapeGroup" />
            <path d="M143.728594,233.67541 C143.759084,233.616393 143.789573,233.586885 143.820063,233.527869 C145.710427,230.636066 145.923855,227.006557 144.399368,223.937705 C135.252449,205.377049 117.172038,192.718033 96.3780411,192.718033 C75.6755134,192.718033 57.6865719,205.229508 48.478673,223.672131 C46.9236967,226.770492 47.1676145,230.459016 49.1189573,233.35082 C49.1494471,233.409836 49.2104265,233.468852 49.2409163,233.527869 C52.1374408,237.806557 58.4793049,238.013115 61.7112164,233.940984 C68.9982622,224.763934 81.8039494,218.685246 96.3780411,218.685246 C111.043602,218.685246 123.910269,224.852459 131.197314,234.118033 C134.398736,238.24918 140.862559,238.042623 143.728594,233.67541 L143.728594,233.67541 L143.728594,233.67541 Z" id="tongue_lung" fill="#A1A1A1" sketch_type="MSShapeGroup" />
            <path d="M127.264139,236.331148 C120.891785,228.127869 109.549605,222.668852 96.5914692,222.668852 C83.8772512,222.668852 72.7180095,227.921311 66.2846761,235.888525 C61.9246445,241.259016 63.6320695,249.108197 69.7909953,252.442623 C78.3281201,257.07541 87.536019,258.993443 96.5914692,258.993443 C106.073776,258.993443 115.220695,257.163934 123.544392,252.767213 C129.703318,249.55082 131.471722,241.760656 127.264139,236.331148 L127.264139,236.331148 L127.264139,236.331148 Z" id="tongue_heart" fill="#DF1E0B" sketch_type="MSShapeGroup" />
            <path d="M4.45150079,108.944262 L2.25624013,109.15082 C2.40868878,110.891803 2.59162717,112.603279 2.77456556,114.285246 L4.96982622,114.078689 C4.78688784,112.367213 4.60394945,110.655738 4.45150079,108.944262 L4.45150079,108.944262 L4.45150079,108.944262 Z" id="tongue_sublingual" fill="#B00246" sketch_type="MSShapeGroup" />
            <path d="M5.51864139,119.183607 L3.32338073,119.419672 C3.50631912,121.131148 3.71974724,122.872131 3.93317536,124.554098 L6.12843602,124.288525 C5.9150079,122.577049 5.70157978,120.895082 5.51864139,119.183607 L5.51864139,119.183607 L5.51864139,119.183607 Z" id="tongue_sublingual" fill="#B00246" sketch_type="MSShapeGroup" />
            <path d="M10.7933649,17.3508197 L8.78104265,16.4360656 C8.01879937,17.9409836 7.37851501,19.6229508 6.73823065,21.5114754 L8.84202212,22.1606557 C9.42132701,20.4491803 10.0616114,18.8557377 10.7933649,17.3508197 L10.7933649,17.3508197 L10.7933649,17.3508197 Z" id="tongue_sublingual" fill="#B00246" sketch_type="MSShapeGroup" />
            <path d="M7.50047393,27.1180328 L5.335703,26.6459016 C5.00031596,28.0918033 4.63443918,29.6557377 4.20758294,31.7508197 L6.37235387,32.1639344 C6.73823065,30.3934426 7.10410742,28.7114754 7.50047393,27.1180328 L7.50047393,27.1180328 L7.50047393,27.1180328 Z" id="tongue_sublingual" fill="#B00246" sketch_type="MSShapeGroup" />
            <path d="M34.6058452,2.7442623 L34.6058452,2.7442623 L34.6973144,2.7442623 C34.7278041,2.7442623 34.7887836,2.7442623 34.8192733,2.7147541 L34.8192733,2.7147541 L34.9107425,2.7147541 L35.0022117,2.7147541 L35.0327014,2.7147541 L35.0631912,2.7147541 L35.0936809,2.7147541 L35.1851501,2.7147541 L35.2156398,2.7147541 L35.2461295,2.7147541 L35.2766193,2.7147541 L35.307109,2.7147541 L35.3375987,2.7147541 L35.4290679,2.7147541 L35.4595577,2.7147541 L35.4900474,2.7147541 L35.5205371,2.7147541 L35.6120063,2.7147541 L35.7034755,2.7147541 L35.7339652,2.7147541 L35.8254344,2.7147541 C36.1913112,2.6852459 36.557188,2.62622951 36.9230648,2.59672131 L36.7096367,0.472131148 C34.8192733,0.649180328 32.9593997,0.885245902 31.221485,1.23934426 L31.6483412,3.33442623 C32.6545024,3.00983607 33.6301738,2.86229508 34.6058452,2.7442623 L34.6058452,2.7442623 L34.6058452,2.7442623 Z" id="tongue_sublingual" fill="#B00246" sketch_type="MSShapeGroup" />
            <path d="M21.9526066,6.43278689 L21.9526066,6.43278689 C21.9526066,6.40327869 21.9526066,6.40327869 21.9526066,6.43278689 C21.9830964,6.43278689 21.9830964,6.40327869 21.9830964,6.40327869 L21.9830964,6.40327869 C22.0135861,6.40327869 22.0135861,6.37377049 22.0440758,6.37377049 L22.0440758,6.37377049 L22.0745656,6.37377049 L22.1050553,6.37377049 L22.135545,6.37377049 L22.1660348,6.37377049 C23.2941548,5.81311475 24.4832543,5.31147541 25.7333333,4.86885246 L25.7333333,4.86885246 L25.7638231,4.86885246 L25.7943128,4.86885246 C25.8248025,4.86885246 25.8248025,4.86885246 25.8552923,4.83934426 L25.8552923,4.83934426 L25.885782,4.83934426 L25.9162717,4.83934426 L25.9467615,4.83934426 L25.9772512,4.83934426 L26.0077409,4.83934426 L26.0382306,4.83934426 L26.0687204,4.83934426 L26.0992101,4.83934426 C26.1296998,4.83934426 26.1601896,4.80983607 26.1906793,4.80983607 L26.1906793,4.80983607 L26.221169,4.80983607 C26.343128,4.78032787 26.4650869,4.72131148 26.6175355,4.69180328 L25.9162717,2.6557377 C24.0868878,3.24590164 22.3184834,3.98360656 20.7025276,4.80983607 L21.7391785,6.69836066 C21.800158,6.49180328 21.8611374,6.46229508 21.9526066,6.43278689 L21.9526066,6.43278689 L21.9526066,6.43278689 Z" id="tongue_sublingual" fill="#B00246" sketch_type="MSShapeGroup" />
            <path d="M13.7508689,12.7180328 L13.7508689,12.7180328 L13.7813586,12.6885246 L13.8118483,12.6590164 C13.8118483,12.6590164 13.8118483,12.6590164 13.8118483,12.6295082 L13.8118483,12.6295082 C13.8118483,12.6295082 13.8118483,12.6295082 13.8118483,12.6 L13.8118483,12.6 C13.8118483,12.6 13.8118483,12.6 13.8118483,12.5704918 L13.8118483,12.5704918 C13.8118483,12.5704918 13.8118483,12.5704918 13.8118483,12.5409836 L13.8118483,12.5409836 C13.8118483,12.5409836 13.8118483,12.5409836 13.8118483,12.5114754 L13.8118483,12.5114754 C13.8118483,12.5114754 13.8118483,12.5114754 13.8118483,12.4819672 L13.8118483,12.4819672 L13.8423381,12.452459 C14.6350711,11.5377049 15.549763,10.652459 16.5559242,9.8557377 L16.5559242,9.8557377 L16.5864139,9.82622951 L16.6169036,9.82622951 L16.6473934,9.82622951 C16.6473934,9.82622951 16.6473934,9.82622951 16.6778831,9.79672131 L16.6778831,9.79672131 C16.7083728,9.79672131 16.7083728,9.76721311 16.7388626,9.76721311 L16.7388626,9.76721311 C16.7388626,9.76721311 16.7388626,9.76721311 16.7693523,9.73770492 L16.7693523,9.73770492 C16.7693523,9.73770492 16.7693523,9.73770492 16.799842,9.70819672 L16.799842,9.70819672 C16.8303318,9.67868852 16.8913112,9.64918033 16.9218009,9.61967213 L15.549763,7.93770492 C15.3973144,8.0557377 15.2753555,8.1442623 15.1229068,8.26229508 C13.7508689,9.35409836 12.5007899,10.5934426 11.4336493,11.9508197 L13.171564,13.2491803 C13.5984202,12.8655738 13.6898894,12.8065574 13.7508689,12.7180328 L13.7508689,12.7180328 L13.7508689,12.7180328 Z" id="tongue_sublingual" fill="#B00246" sketch_type="MSShapeGroup" />
            <path d="M2.95750395,90.6786885 L2.95750395,90.6786885 L2.95750395,90.6196721 L2.95750395,90.5901639 C2.95750395,90.5901639 2.95750395,90.5901639 2.95750395,90.5606557 C2.89652449,89.852459 2.86603476,89.1442623 2.80505529,88.4360656 L0.609794629,88.5836066 C0.731753555,90.3245902 0.85371248,92.0655738 0.975671406,93.7180328 L3.17093207,93.5704918 C3.07946288,92.5967213 3.01848341,91.652459 2.95750395,90.6786885 L2.95750395,90.6786885 L2.95750395,90.6786885 Z" id="tongue_sublingual" fill="#B00246" sketch_type="MSShapeGroup" />
            <path d="M2.43917852,82.0918033 L2.43917852,82.0918033 C2.43917852,82.0622951 2.43917852,82.0622951 2.43917852,82.0918033 L2.43917852,82.0622951 C2.40868878,81.1180328 2.37819905,80.1147541 2.37819905,79.0819672 L2.37819905,79.0819672 C2.37819905,79.0819672 2.37819905,79.0819672 2.37819905,79.052459 L2.37819905,79.052459 L2.37819905,78.1967213 L0.152448657,78.1967213 C0.152448657,80.0852459 0.21342812,81.8262295 0.274407583,83.4196721 L2.50015798,83.3311475 C2.46966825,82.9180328 2.46966825,82.504918 2.43917852,82.0918033 L2.43917852,82.0918033 L2.43917852,82.0918033 Z" id="tongue_sublingual" fill="#B00246" sketch_type="MSShapeGroup" />
            <path d="M3.7807267,101.360656 C3.7807267,101.331148 3.7807267,101.331148 3.7807267,101.360656 L3.7807267,101.301639 C3.7807267,101.301639 3.7807267,101.301639 3.7807267,101.272131 L3.7807267,101.213115 C3.7807267,101.213115 3.7807267,101.213115 3.7807267,101.183607 L3.7807267,101.12459 L3.7807267,101.095082 L3.7807267,101.036066 L3.7807267,101.006557 L3.7807267,100.977049 L3.7807267,100.918033 C3.7807267,100.918033 3.7807267,100.918033 3.7807267,100.888525 L3.7807267,100.829508 C3.71974724,100.121311 3.65876777,99.4131148 3.59778831,98.704918 L1.40252765,98.8819672 C1.5549763,100.622951 1.67693523,102.334426 1.82938389,104.016393 L4.02464455,103.839344 C3.90268562,103.013115 3.84170616,102.186885 3.7807267,101.360656 L3.7807267,101.360656 L3.7807267,101.360656 Z" id="tongue_sublingual" fill="#B00246" sketch_type="MSShapeGroup" />
            <path d="M2.83554502,62.7639344 L2.83554502,62.704918 L2.83554502,62.6163934 C2.92701422,60.9639344 3.04897314,59.3114754 3.17093207,57.6590164 L0.975671406,57.5114754 C0.85371248,59.2229508 0.731753555,60.9639344 0.64028436,62.6754098 L2.83554502,62.7639344 L2.83554502,62.7639344 Z" id="tongue_sublingual" fill="#B00246" sketch_type="MSShapeGroup" />
            <path d="M3.84170616,49.957377 L3.84170616,49.957377 C3.84170616,49.957377 3.84170616,49.9278689 3.84170616,49.957377 C3.93317536,49.0721311 4.02464455,48.2163934 4.11611374,47.3901639 L1.92085308,47.1836066 C1.73791469,48.8360656 1.58546603,50.5770492 1.40252765,52.347541 L3.59778831,52.5245902 C3.6892575,51.6393443 3.75023697,50.8131148 3.84170616,49.957377 L3.84170616,49.957377 L3.84170616,49.957377 Z" id="tongue_sublingual" fill="#B00246" sketch_type="MSShapeGroup" />
            <path d="M5.4271722,37.1803279 L3.23191153,36.8557377 C2.98799368,38.4196721 2.7135861,40.1606557 2.46966825,42.0196721 L4.66492891,42.2852459 C4.93933649,40.4557377 5.18325434,38.7442623 5.4271722,37.1803279 L5.4271722,37.1803279 L5.4271722,37.1803279 Z" id="tongue_sublingual" fill="#B00246" sketch_type="MSShapeGroup" />
            <path d="M2.56113744,69.1377049 C2.56113744,69.1377049 2.56113744,69.1081967 2.56113744,69.1377049 L2.56113744,69.1081967 C2.56113744,69.1081967 2.56113744,69.1081967 2.56113744,69.0786885 L2.56113744,69.0786885 C2.56113744,68.695082 2.59162717,68.3114754 2.59162717,67.8983607 L0.365876777,67.8098361 C0.304897314,69.5803279 0.243917852,71.3213115 0.21342812,73.0032787 L2.43917852,73.0622951 C2.46966825,71.7639344 2.50015798,70.4655738 2.56113744,69.1377049 L2.56113744,69.1377049 L2.56113744,69.1377049 Z" id="tongue_sublingual" fill="#B00246" sketch_type="MSShapeGroup" />
            <path d="M148.820379,2.21311475 L148.820379,2.21311475 L148.881359,2.21311475 L148.911848,2.21311475 L148.942338,2.21311475 L148.972828,2.21311475 L149.003318,2.21311475 L149.033807,2.21311475 L149.094787,2.21311475 L149.155766,2.21311475 L149.216746,2.21311475 L149.277725,2.21311475 L149.338705,2.21311475 L149.369194,2.21311475 L149.399684,2.21311475 L149.430174,2.21311475 L149.460664,2.21311475 L149.491153,2.21311475 L149.521643,2.21311475 L149.552133,2.21311475 L149.582622,2.21311475 L149.613112,2.21311475 L149.643602,2.21311475 L149.674092,2.21311475 L149.704581,2.21311475 L149.735071,2.21311475 L149.765561,2.21311475 L149.796051,2.21311475 L149.82654,2.21311475 L149.85703,2.21311475 L149.88752,2.21311475 L149.88752,0.0590163934 C147.997156,0.0590163934 146.137283,0.147540984 144.368878,0.324590164 L144.582306,2.44918033 C145.984834,2.33114754 147.387362,2.24262295 148.820379,2.21311475 L148.820379,2.21311475 L148.820379,2.21311475 Z" id="tongue_sublingual" fill="#B00246" sketch_type="MSShapeGroup" />
            <path d="M176.108689,9.50163934 L176.108689,9.50163934 C176.139179,9.53114754 176.139179,9.53114754 176.108689,9.50163934 L176.139179,9.53114754 C176.139179,9.53114754 176.139179,9.53114754 176.169668,9.56065574 C176.169668,9.56065574 176.169668,9.56065574 176.200158,9.59016393 L176.200158,9.59016393 C176.200158,9.59016393 176.230648,9.59016393 176.230648,9.61967213 L176.230648,9.61967213 L176.261137,9.64918033 C176.261137,9.64918033 176.261137,9.64918033 176.291627,9.67868852 L176.291627,9.67868852 C176.291627,9.67868852 176.291627,9.67868852 176.322117,9.70819672 L176.322117,9.70819672 L176.352607,9.70819672 C176.352607,9.70819672 176.352607,9.70819672 176.383096,9.73770492 L176.383096,9.73770492 C176.413586,9.76721311 176.413586,9.76721311 176.444076,9.79672131 L176.444076,9.79672131 C176.444076,9.79672131 176.444076,9.79672131 176.474566,9.82622951 L176.474566,9.82622951 C176.474566,9.82622951 176.474566,9.82622951 176.505055,9.8557377 L176.505055,9.8557377 L176.535545,9.8557377 C176.535545,9.8557377 176.535545,9.8557377 176.566035,9.8852459 L176.566035,9.8852459 C176.566035,9.8852459 176.566035,9.8852459 176.596524,9.9147541 L176.596524,9.9147541 C177.11485,10.3868852 177.633175,10.8885246 178.090521,11.4196721 L179.767457,10.0032787 C178.883254,9.0295082 177.938073,8.1147541 176.901422,7.31803279 C176.444076,6.93442623 175.95624,6.58032787 175.468404,6.2557377 L174.157346,7.99672131 C175.346445,8.91147541 175.742812,9.20655738 176.108689,9.50163934 L176.108689,9.50163934 L176.108689,9.50163934 Z" id="tongue_sublingual" fill="#B00246" sketch_type="MSShapeGroup" />
            <path d="M182.999368,18.7081967 C182.999368,18.7377049 183.029858,18.7672131 183.029858,18.7672131 L183.029858,18.7672131 C183.029858,18.7672131 183.029858,18.7672131 183.029858,18.7967213 L183.029858,18.7967213 C183.029858,18.8262295 183.060348,18.8557377 183.060348,18.8557377 L183.060348,18.8557377 C183.060348,18.8557377 183.060348,18.8557377 183.060348,18.8852459 L183.060348,18.8852459 C183.060348,18.9147541 183.090837,18.9442623 183.090837,18.9442623 L183.090837,18.9442623 C183.090837,18.9442623 183.090837,18.9442623 183.090837,18.9737705 L183.090837,18.9737705 C183.090837,18.9737705 183.090837,18.9737705 183.090837,19.0032787 L183.090837,19.0032787 L183.090837,19.0327869 C183.090837,19.0327869 183.090837,19.0327869 183.090837,19.0622951 L183.090837,19.0622951 C183.090837,19.0622951 183.090837,19.0622951 183.090837,19.0918033 L183.090837,19.0918033 C183.090837,19.0918033 183.090837,19.0918033 183.090837,19.1213115 L183.090837,19.1213115 C183.090837,19.1213115 183.090837,19.1213115 183.090837,19.1508197 L183.090837,19.1508197 C183.090837,19.1508197 183.090837,19.1508197 183.090837,19.1803279 L183.090837,19.1803279 C183.090837,19.1803279 183.090837,19.1803279 183.090837,19.2098361 L183.090837,19.2098361 C183.090837,19.2098361 183.090837,19.2098361 183.090837,19.2393443 L183.090837,19.2393443 C183.090837,19.2393443 183.090837,19.2393443 183.090837,19.2688525 L183.090837,19.2688525 C183.090837,19.2688525 183.090837,19.2688525 183.090837,19.2983607 L183.090837,19.2983607 C183.090837,19.2983607 183.090837,19.2983607 183.090837,19.3278689 L183.090837,19.3278689 C183.090837,19.3278689 183.090837,19.3278689 183.090837,19.357377 L183.090837,19.357377 C183.090837,19.357377 183.090837,19.357377 183.090837,19.3868852 L183.090837,19.3868852 L183.090837,19.4163934 C183.090837,19.4459016 183.090837,19.4459016 183.121327,19.4754098 L183.121327,19.4754098 C183.121327,19.4754098 183.121327,19.4754098 183.121327,19.504918 L183.121327,19.504918 C183.121327,19.504918 183.121327,19.504918 183.121327,19.5344262 L183.121327,19.5344262 C183.121327,19.5639344 183.151817,19.5934426 183.151817,19.5934426 L183.151817,19.5934426 C183.304265,20.0065574 183.456714,20.4196721 183.609163,20.8327869 L185.712954,20.1245902 C185.04218,18.2360656 184.310427,16.6131148 183.487204,15.0786885 L181.535861,16.0819672 C182.267615,17.0852459 182.663981,17.8819672 182.999368,18.7081967 L182.999368,18.7081967 L182.999368,18.7081967 Z" id="tongue_sublingual" fill="#B00246" sketch_type="MSShapeGroup" />
            <path d="M186.536177,31.0131148 L188.700948,30.6 C188.274092,28.5639344 187.908215,26.9409836 187.542338,25.495082 L185.408057,25.9967213 C185.804423,27.5901639 186.1703,29.2721311 186.536177,31.0131148 L186.536177,31.0131148 L186.536177,31.0131148 Z" id="tongue_sublingual" fill="#B00246" sketch_type="MSShapeGroup" />
            <path d="M171.352291,4.07213115 C169.705845,3.30491803 167.937441,2.6557377 166.077567,2.09508197 L165.437283,4.13114754 C167.175197,4.63278689 168.852133,5.25245902 170.376619,5.99016393 L171.352291,4.07213115 L171.352291,4.07213115 Z" id="tongue_sublingual" fill="#B00246" sketch_type="MSShapeGroup" />
            <path d="M42.6246445,2.21311475 L42.6246445,2.21311475 L42.7161137,2.21311475 L42.7466035,2.21311475 L42.7770932,2.21311475 L42.8075829,2.21311475 L42.8380727,2.21311475 L42.8685624,2.21311475 L42.8990521,2.21311475 L42.9295419,2.21311475 L42.9600316,2.21311475 L43.0210111,2.21311475 L43.0515008,2.21311475 L43.0819905,2.21311475 L43.2039494,2.21311475 L43.2344392,2.21311475 L43.2649289,2.21311475 L43.2954186,2.21311475 L43.3259084,2.21311475 L43.3563981,2.21311475 L43.3868878,2.21311475 L43.4173776,2.21311475 L43.4478673,2.21311475 L43.478357,2.21311475 L43.5088468,2.21311475 L43.5698262,2.21311475 L43.600316,2.21311475 L43.6308057,2.21311475 L43.6612954,2.21311475 L43.6917852,2.21311475 L43.7222749,2.21311475 L43.7527646,2.21311475 L43.7832543,2.21311475 L43.8137441,2.21311475 L44.0271722,2.21311475 L44.0576619,2.21311475 C45.2467615,2.24262295 46.3748815,2.30163934 47.4725118,2.36065574 L47.6554502,0.236065574 C46.1614534,0.118032787 44.6064771,0.0590163934 43.0515008,0.0590163934 L42.1368088,0.0590163934 L42.1672986,2.21311475 L42.6246445,2.21311475 L42.6246445,2.21311475 Z" id="tongue_sublingual" fill="#B00246" sketch_type="MSShapeGroup" />
            <path d="M190.591311,68.252459 L190.591311,68.252459 L190.591311,68.3114754 L190.591311,68.3409836 L190.591311,68.3704918 L190.591311,68.4 L190.591311,68.4295082 L190.591311,68.5180328 C190.621801,69.0491803 190.621801,69.5803279 190.652291,70.1114754 L190.652291,70.1114754 L190.652291,70.2 L190.652291,70.2295082 L190.652291,70.2590164 L190.652291,70.2885246 L190.652291,70.3180328 L190.652291,70.347541 L190.652291,70.4065574 L190.652291,70.4360656 L190.652291,70.4655738 C190.652291,70.4655738 190.652291,70.4655738 190.652291,70.495082 L190.652291,70.5245902 C190.652291,70.5245902 190.652291,70.5245902 190.652291,70.5540984 L190.652291,70.5540984 L190.652291,70.5836066 L190.652291,70.6131148 L190.652291,70.642623 L190.652291,70.6721311 L190.652291,70.7016393 L190.652291,70.7311475 L190.652291,70.7606557 L190.652291,70.7901639 L190.652291,70.8196721 L190.652291,70.9081967 C190.652291,71.1737705 190.652291,71.4393443 190.68278,71.704918 L192.908531,71.6459016 C192.878041,69.9934426 192.817062,68.252459 192.725592,66.4819672 L190.499842,66.5704918 C190.560821,67.2491803 190.560821,67.7508197 190.591311,68.252459 L190.591311,68.252459 L190.591311,68.252459 Z" id="tongue_sublingual" fill="#B00246" sketch_type="MSShapeGroup" />
            <path d="M7.4699842,134.17377 L7.4699842,134.17377 L7.4699842,134.114754 L7.4699842,134.085246 C7.28704581,132.87541 7.10410742,131.636066 6.95165877,130.42623 L6.95165877,130.396721 L6.95165877,130.367213 L6.95165877,130.308197 C6.95165877,130.308197 6.95165877,130.308197 6.95165877,130.278689 L6.95165877,130.219672 C6.92116904,129.954098 6.8906793,129.688525 6.82969984,129.422951 L4.63443918,129.718033 C4.87835703,131.429508 5.12227488,133.170492 5.36619273,134.822951 L7.5614534,134.527869 C7.50047393,134.380328 7.4699842,134.291803 7.4699842,134.17377 L7.4699842,134.17377 L7.4699842,134.17377 Z" id="tongue_sublingual" fill="#B00246" sketch_type="MSShapeGroup" />
            <path d="M190.012006,57.9245902 L190.012006,57.9245902 L190.012006,58.0131148 L190.012006,58.1016393 L190.012006,58.1901639 L190.012006,58.3377049 L190.012006,58.4262295 L190.012006,58.5147541 L190.012006,58.6032787 C190.072986,59.6065574 190.164455,60.6393443 190.225434,61.642623 L192.420695,61.5245902 C192.329226,59.8131148 192.207267,58.0721311 192.054818,56.3606557 L189.859558,56.5081967 C189.951027,56.9508197 189.981517,57.452459 190.012006,57.9245902 L190.012006,57.9245902 L190.012006,57.9245902 Z" id="tongue_sublingual" fill="#B00246" sketch_type="MSShapeGroup" />
            <path d="M188.335071,41.1344262 L190.530332,40.8688525 C190.286414,38.9803279 190.012006,37.2393443 189.737599,35.704918 L187.542338,36.0590164 C187.816746,37.5934426 188.060664,39.304918 188.335071,41.1344262 L188.335071,41.1344262 L188.335071,41.1344262 Z" id="tongue_sublingual" fill="#B00246" sketch_type="MSShapeGroup" />
            <path d="M189.127804,47.7737705 L189.127804,47.7737705 L189.127804,47.8032787 C189.127804,47.8032787 189.127804,47.8032787 189.127804,47.8327869 L189.127804,47.8327869 L189.127804,47.8918033 C189.219273,48.8655738 189.310742,49.8393443 189.432701,50.8131148 L189.432701,50.842623 C189.463191,51.0196721 189.463191,51.1672131 189.463191,51.3442623 L191.658452,51.1672131 C191.506003,49.3967213 191.323065,47.6557377 191.140126,46.0032787 L188.944866,46.2393443 C189.005845,46.7409836 189.066825,47.2721311 189.127804,47.7737705 L189.127804,47.7737705 L189.127804,47.7737705 Z" id="tongue_sublingual" fill="#B00246" sketch_type="MSShapeGroup" />
            <path d="M159.400316,2.86229508 L159.461295,2.86229508 L159.491785,2.86229508 L159.522275,2.86229508 L159.552765,2.86229508 L159.583254,2.86229508 L159.613744,2.86229508 L159.644234,2.86229508 L159.674724,2.86229508 L159.705213,2.86229508 L159.735703,2.86229508 L159.766193,2.86229508 L159.796682,2.86229508 L159.827172,2.86229508 L159.857662,2.86229508 L159.888152,2.86229508 C160.010111,2.89180328 160.13207,2.89180328 160.254028,2.92131148 L160.619905,0.796721311 C158.881991,0.501639344 157.022117,0.295081967 155.131754,0.147540984 L154.979305,2.27213115 C156.503791,2.47868852 157.967299,2.6557377 159.400316,2.86229508 L159.400316,2.86229508 L159.400316,2.86229508 Z" id="tongue_sublingual" fill="#B00246" sketch_type="MSShapeGroup" />
            <path d="M88.3897314,11.5672131 C86.621327,11.4196721 84.8834123,11.2131148 83.2979463,10.947541 L82.9320695,13.0721311 C84.5480253,13.3377049 86.28594,13.5737705 88.206793,13.7213115 L88.3897314,11.5672131 L88.3897314,11.5672131 Z" id="tongue_sublingual" fill="#B00246" sketch_type="MSShapeGroup" />
            <path d="M73.3887836,10.5344262 C73.4192733,10.5639344 73.4802528,10.5639344 73.5107425,10.5934426 L73.5107425,10.5934426 C73.5412322,10.5934426 73.571722,10.6229508 73.6022117,10.6229508 L73.6022117,10.6229508 L73.6327014,10.6229508 L73.6631912,10.6229508 L73.6936809,10.6229508 L73.7241706,10.6229508 L73.7546603,10.6229508 L73.7851501,10.6229508 L73.8156398,10.6229508 L73.8461295,10.6229508 L73.8766193,10.6229508 L73.907109,10.6229508 L73.9375987,10.6229508 L73.9680885,10.6229508 L73.9985782,10.6229508 L74.0290679,10.6229508 L74.0595577,10.6229508 L74.0900474,10.6229508 L74.1205371,10.6229508 C74.1510269,10.6229508 74.1510269,10.6229508 74.1815166,10.652459 L74.1815166,10.652459 L74.2120063,10.652459 L74.2424961,10.652459 L74.2729858,10.652459 L74.3034755,10.652459 L74.3339652,10.652459 L74.364455,10.652459 L74.3949447,10.652459 L74.4254344,10.652459 L74.4559242,10.652459 L74.4864139,10.652459 L74.5169036,10.652459 L74.5473934,10.652459 C74.5778831,10.652459 74.6083728,10.6819672 74.6083728,10.6819672 L74.6083728,10.6819672 C74.6388626,10.6819672 74.6693523,10.7114754 74.699842,10.7114754 L74.699842,10.7114754 C74.7303318,10.7114754 74.7608215,10.7409836 74.7913112,10.7409836 L74.7913112,10.7409836 L74.8218009,10.7409836 L74.8522907,10.7409836 L74.8827804,10.7409836 L74.9132701,10.7409836 L74.9437599,10.7409836 L74.9742496,10.7409836 L75.0047393,10.7409836 C75.0352291,10.7409836 75.0657188,10.7704918 75.0962085,10.7704918 L75.0962085,10.7704918 L75.1266983,10.7704918 L75.157188,10.7704918 L75.1876777,10.7704918 L75.2181675,10.7704918 L75.2486572,10.7704918 L75.2791469,10.7704918 L75.3096367,10.7704918 L75.3401264,10.7704918 L75.3706161,10.7704918 L75.4011058,10.7704918 C76.0718799,10.9770492 76.742654,11.1836066 77.4134281,11.3606557 L78.0232227,9.29508197 C76.4377567,8.85245902 74.8522907,8.35081967 73.2058452,7.70163934 L72.3826224,9.67868852 C72.9314376,10.357377 73.1448657,10.4459016 73.3887836,10.5344262 L73.3887836,10.5344262 L73.3887836,10.5344262 Z" id="tongue_sublingual" fill="#B00246" sketch_type="MSShapeGroup" />
            <path d="M64.2113744,6.60983607 L64.2418641,6.60983607 L64.2723539,6.60983607 L64.3028436,6.60983607 L64.3333333,6.60983607 L64.3638231,6.60983607 C64.3638231,6.60983607 64.3943128,6.60983607 64.3943128,6.63934426 L64.3943128,6.63934426 C65.1870458,6.99344262 65.9797788,7.31803279 66.7725118,7.67213115 L66.8030016,7.67213115 C67.1383886,7.81967213 67.5042654,7.99672131 67.8396524,8.1442623 L68.7848341,6.19672131 C67.2298578,5.48852459 65.5834123,4.75081967 63.8454976,4.04262295 L62.9917852,6.01967213 C63.4186414,6.2557377 63.8150079,6.43278689 64.2113744,6.60983607 L64.2113744,6.60983607 L64.2113744,6.60983607 Z" id="tongue_sublingual" fill="#B00246" sketch_type="MSShapeGroup" />
            <path d="M58.692733,2.27213115 C56.8938389,1.71147541 55.1254344,1.29836066 53.2960506,0.944262295 L52.8691943,3.03934426 C54.6985782,3.39344262 56.4060032,3.80655738 58.0219589,4.30819672 L58.692733,2.27213115 L58.692733,2.27213115 Z" id="tongue_sublingual" fill="#B00246" sketch_type="MSShapeGroup" />
            <path d="M93.5120063,13.9868852 L93.5729858,13.9868852 L93.6034755,13.9868852 L93.664455,13.9868852 L93.6949447,13.9868852 L93.7254344,13.9868852 L93.7864139,13.9868852 L93.8169036,13.9868852 L93.8473934,13.9868852 L93.9083728,13.9868852 L93.9693523,13.9868852 L94.2132701,13.9868852 L94.2742496,13.9868852 L94.3047393,13.9868852 L94.3352291,13.9868852 L94.3657188,13.9868852 L94.4266983,13.9868852 L94.457188,13.9868852 L94.4876777,13.9868852 L94.5486572,13.9868852 L94.5791469,13.9868852 L94.6096367,13.9868852 L94.6401264,13.9868852 L94.7011058,13.9868852 L94.7315956,13.9868852 L94.792575,13.9868852 L94.8230648,13.9868852 L94.8840442,13.9868852 L94.9450237,13.9868852 L94.9755134,13.9868852 L95.0060032,13.9868852 L95.0364929,13.9868852 L95.0669826,13.9868852 L95.0974724,13.9868852 L95.1584518,13.9868852 L95.1889415,13.9868852 L95.2194313,13.9868852 L95.249921,13.9868852 L95.2804107,13.9868852 L95.3109005,13.9868852 L95.3413902,13.9868852 L95.3718799,13.9868852 L95.4023697,13.9868852 L95.4328594,13.9868852 L95.4938389,13.9868852 L95.5243286,13.9868852 L95.5548183,13.9868852 L95.5853081,13.9868852 L95.6157978,13.9868852 L95.6462875,13.9868852 L95.6767773,13.9868852 L95.707267,13.9868852 L95.7377567,13.9868852 L95.7682464,13.9868852 L95.7987362,13.9868852 L95.8292259,13.9868852 L95.8597156,13.9868852 L95.8902054,13.9868852 L95.9511848,13.9868852 L95.9816746,13.9868852 L96.0121643,13.9868852 L96.042654,13.9868852 L96.0731438,13.9868852 L96.1036335,13.9868852 L96.1341232,13.9868852 L96.1951027,13.9868852 L96.2255924,13.9868852 L96.2560821,13.9868852 L96.3170616,13.9868852 L96.3475513,13.9868852 L96.4085308,13.9868852 L96.4695103,13.9868852 L96.5304897,13.9868852 L96.5609795,13.9868852 L96.5914692,13.9868852 L96.6524487,13.9868852 L96.6829384,13.9868852 L96.7134281,13.9868852 L96.7439179,13.9868852 L96.7744076,13.9868852 L96.8048973,13.9868852 L96.835387,13.9868852 L96.8658768,13.9868852 L96.8963665,13.9868852 L96.9268562,13.9868852 L96.957346,13.9868852 L96.9878357,13.9868852 L97.0183254,13.9868852 L97.0488152,13.9868852 L97.0793049,13.9868852 L97.1402844,13.9868852 L97.1707741,13.9868852 C97.6281201,13.9868852 98.1159558,13.9868852 98.542812,13.957377 L98.5123223,11.8032787 C97.8110585,11.8032787 97.0793049,11.8327869 96.3475513,11.8327869 C95.3109005,11.8327869 94.2742496,11.8327869 93.2985782,11.8032787 L93.5120063,13.9868852 C93.4815166,13.9868852 93.4815166,13.9868852 93.5120063,13.9868852 C93.4815166,13.9868852 93.5120063,13.9868852 93.5120063,13.9868852 L93.5120063,13.9868852 L93.5120063,13.9868852 Z" id="tongue_sublingual" fill="#B00246" sketch_type="MSShapeGroup" />
            <path d="M137.508689,3.68852459 L137.508689,3.68852459 C137.508689,3.65901639 137.508689,3.65901639 137.508689,3.68852459 C137.569668,3.68852459 137.569668,3.65901639 137.600158,3.65901639 L137.600158,3.65901639 L137.630648,3.65901639 L137.661137,3.65901639 L137.691627,3.65901639 L137.722117,3.65901639 L137.752607,3.65901639 L137.783096,3.65901639 L137.844076,3.65901639 L137.874566,3.65901639 L137.905055,3.65901639 L137.935545,3.65901639 C138.392891,3.54098361 138.880727,3.45245902 139.368562,3.33442623 L138.911216,1.23934426 C137.112322,1.62295082 135.343918,2.06557377 133.545024,2.6557377 L134.246288,4.69180328 C135.343918,4.24918033 136.380569,3.95409836 137.508689,3.68852459 L137.508689,3.68852459 L137.508689,3.68852459 Z" id="tongue_sublingual" fill="#B00246" sketch_type="MSShapeGroup" />
            <path d="M116.623223,11.5967213 L116.623223,11.5967213 C116.653712,11.5967213 116.684202,11.5967213 116.684202,11.5672131 L116.684202,11.5672131 L116.714692,11.5672131 L116.745182,11.5672131 L116.775671,11.5672131 L116.806161,11.5672131 L116.836651,11.5672131 L116.867141,11.5672131 L116.89763,11.5672131 L116.92812,11.5672131 C117.415956,11.4196721 117.873302,11.2721311 118.330648,11.1245902 L118.330648,11.1245902 C118.361137,11.1245902 118.361137,11.1245902 118.391627,11.095082 L118.391627,11.095082 L118.422117,11.095082 L118.452607,11.095082 L118.483096,11.095082 L118.513586,11.095082 L118.544076,11.095082 L118.574566,11.095082 C118.940442,10.9770492 119.275829,10.8590164 119.641706,10.7114754 L118.848973,8.70491803 C117.233017,9.29508197 115.647551,9.79672131 114.031596,10.2098361 L114.580411,12.2754098 C115.281675,11.9803279 115.952449,11.8032787 116.623223,11.5967213 L116.623223,11.5967213 L116.623223,11.5967213 Z" id="tongue_sublingual" fill="#B00246" sketch_type="MSShapeGroup" />
            <path d="M124.550553,8.55737705 C124.581043,8.52786885 124.642022,8.52786885 124.672512,8.49836066 L124.672512,8.49836066 L124.703002,8.49836066 L124.733491,8.49836066 L124.763981,8.49836066 C125.221327,8.29180328 125.678673,8.0852459 126.136019,7.87868852 L126.136019,7.87868852 C126.166509,7.87868852 126.166509,7.84918033 126.196998,7.84918033 L126.196998,7.84918033 C126.196998,7.84918033 126.227488,7.84918033 126.227488,7.81967213 L126.227488,7.81967213 L126.257978,7.81967213 L126.288468,7.81967213 L126.318957,7.81967213 L126.349447,7.81967213 L126.379937,7.81967213 L126.410427,7.81967213 L126.440916,7.81967213 L126.471406,7.81967213 L126.501896,7.81967213 C126.501896,7.81967213 126.532385,7.81967213 126.532385,7.79016393 L126.532385,7.79016393 C127.447077,7.37704918 128.361769,6.96393443 129.306951,6.58032787 L128.422749,4.60327869 C126.806793,5.28196721 125.221327,5.99016393 123.72733,6.66885246 L123.544392,6.75737705 L124.550553,8.55737705 L124.550553,8.55737705 Z" id="tongue_sublingual" fill="#B00246" sketch_type="MSShapeGroup" />
            <path d="M104.39684,13.7508197 L104.39684,13.7508197 L104.42733,13.7508197 L104.45782,13.7508197 C106.226224,13.6032787 107.87267,13.4262295 109.397156,13.1901639 L109.061769,11.0655738 C107.476303,11.3016393 105.738389,11.5081967 103.969984,11.6262295 L104.152923,13.7508197 C104.213902,13.7803279 104.305371,13.7508197 104.39684,13.7508197 L104.39684,13.7508197 L104.39684,13.7508197 Z" id="tongue_sublingual" fill="#B00246" sketch_type="MSShapeGroup" />
            <path d="M10.9763033,154.003279 C10.7018957,152.763934 10.4579779,151.495082 10.21406,150.22623 L10.21406,150.22623 L10.21406,150.167213 L10.21406,150.108197 C10.21406,150.108197 10.21406,150.108197 10.21406,150.078689 L10.21406,150.04918 L10.21406,150.019672 L10.21406,149.990164 L10.21406,149.931148 C10.1835703,149.842623 10.1835703,149.754098 10.1530806,149.695082 L7.98830964,150.078689 C8.26271722,151.52459 8.56761453,153 8.87251185,154.416393 C8.93349131,154.652459 8.96398104,154.918033 9.02496051,155.154098 L11.1897314,154.711475 C11.0982622,154.504918 11.0372828,154.239344 10.9763033,154.003279 L10.9763033,154.003279 L10.9763033,154.003279 Z" id="tongue_sublingual" fill="#B00246" sketch_type="MSShapeGroup" />
            <path d="M171.809637,189.501639 C171.809637,189.531148 171.809637,189.531148 171.809637,189.501639 C171.809637,189.531148 171.809637,189.531148 171.779147,189.560656 L171.779147,189.560656 L171.779147,189.590164 C171.779147,189.619672 171.748657,189.64918 171.748657,189.678689 L171.748657,189.708197 C171.748657,189.708197 171.748657,189.708197 171.748657,189.737705 L171.748657,189.767213 C171.748657,189.767213 171.748657,189.767213 171.748657,189.796721 L171.748657,189.82623 C171.718167,189.885246 171.718167,189.914754 171.687678,189.97377 L171.687678,189.97377 C171.504739,190.416393 171.352291,190.888525 171.169352,191.331148 L171.169352,191.331148 L171.169352,191.360656 C171.169352,191.390164 171.138863,191.419672 171.138863,191.44918 L171.138863,191.44918 L171.138863,191.478689 L171.138863,191.508197 C171.138863,191.508197 171.138863,191.508197 171.138863,191.537705 C171.138863,191.537705 171.138863,191.537705 171.138863,191.567213 L171.138863,191.596721 C171.138863,191.62623 171.108373,191.655738 171.108373,191.685246 L171.108373,191.685246 L171.108373,191.714754 C170.925434,192.157377 170.772986,192.6 170.590047,193.042623 L172.663349,193.780328 C173.273144,192.157377 173.913428,190.534426 174.492733,188.911475 L172.419431,188.203279 C172.114534,188.67541 171.962085,189.088525 171.809637,189.501639 L171.809637,189.501639 L171.809637,189.501639 Z" id="tongue_sublingual" fill="#B00246" sketch_type="MSShapeGroup" />
            <path d="M167.571564,200.331148 C167.236177,201.127869 166.90079,201.895082 166.595893,202.662295 L168.638705,203.488525 C169.309479,201.895082 169.980253,200.272131 170.651027,198.678689 L168.577725,197.881967 C168.211848,198.737705 167.876461,199.534426 167.571564,200.331148 L167.571564,200.331148 L167.571564,200.331148 Z" id="tongue_sublingual" fill="#B00246" sketch_type="MSShapeGroup" />
            <path d="M163.912796,208.711475 C163.912796,208.711475 163.882306,208.711475 163.912796,208.711475 L163.912796,208.740984 L163.912796,208.770492 C163.912796,208.770492 163.912796,208.770492 163.912796,208.8 C163.912796,208.8 163.912796,208.8 163.912796,208.829508 C163.912796,208.829508 163.912796,208.829508 163.912796,208.859016 C163.912796,208.888525 163.882306,208.888525 163.882306,208.918033 L163.882306,208.918033 C163.424961,209.95082 162.906635,211.013115 162.38831,212.134426 L164.400632,213.019672 C165.132385,211.455738 165.864139,209.862295 166.595893,208.298361 L164.553081,207.442623 C164.309163,207.82623 164.095735,208.239344 163.912796,208.711475 L163.912796,208.711475 L163.912796,208.711475 Z" id="tongue_sublingual" fill="#B00246" sketch_type="MSShapeGroup" />
            <path d="M178.090521,170.439344 L178.090521,170.439344 C177.785624,171.501639 177.480727,172.563934 177.175829,173.596721 L179.310111,174.186885 C179.797946,172.534426 180.285782,170.852459 180.743128,169.2 L178.608847,168.639344 C178.425908,169.229508 178.27346,169.819672 178.090521,170.439344 L178.090521,170.439344 L178.090521,170.439344 Z" id="tongue_sublingual" fill="#B00246" sketch_type="MSShapeGroup" />
            <path d="M180.712638,160.52459 C180.712638,160.554098 180.712638,160.554098 180.712638,160.52459 C180.712638,160.554098 180.712638,160.583607 180.682148,160.613115 L180.682148,160.613115 C180.682148,160.672131 180.651659,160.701639 180.651659,160.760656 L180.651659,160.760656 L180.651659,160.819672 C180.651659,160.819672 180.651659,160.819672 180.651659,160.84918 L180.651659,160.908197 C180.651659,160.908197 180.651659,160.908197 180.651659,160.937705 C180.651659,160.967213 180.651659,160.996721 180.621169,160.996721 L180.621169,161.02623 L180.621169,161.085246 L180.621169,161.114754 L180.621169,161.144262 L180.621169,161.17377 C180.621169,161.203279 180.621169,161.203279 180.590679,161.232787 L180.590679,161.262295 L180.590679,161.321311 L180.590679,161.35082 L180.590679,161.380328 L180.590679,161.409836 L180.590679,161.468852 L180.590679,161.498361 L180.590679,161.557377 L180.590679,161.586885 L180.590679,161.616393 L180.590679,161.645902 L180.590679,161.704918 C180.590679,161.734426 180.590679,161.763934 180.56019,161.763934 L180.56019,161.793443 L180.56019,161.852459 L180.56019,161.881967 L180.56019,161.940984 C180.56019,161.970492 180.56019,162 180.5297,162 L180.5297,162 C180.5297,162.029508 180.5297,162.029508 180.49921,162.059016 C180.49921,162.059016 180.49921,162.059016 180.49921,162.088525 C180.49921,162.118033 180.49921,162.147541 180.46872,162.147541 L180.46872,162.147541 C180.46872,162.206557 180.438231,162.236066 180.438231,162.295082 L180.438231,162.295082 C180.316272,162.737705 180.224803,163.180328 180.102844,163.622951 L182.237125,164.12459 C182.663981,162.442623 183.090837,160.731148 183.456714,159.078689 L181.291943,158.606557 C181.017536,159.285246 180.865087,159.904918 180.712638,160.52459 L180.712638,160.52459 L180.712638,160.52459 Z" id="tongue_sublingual" fill="#B00246" sketch_type="MSShapeGroup" />
            <path d="M174.82812,180.944262 L174.82812,180.944262 L174.82812,180.97377 C174.82812,181.003279 174.82812,181.003279 174.79763,181.032787 L174.79763,181.032787 L174.79763,181.062295 L174.79763,181.091803 C174.79763,181.121311 174.767141,181.15082 174.767141,181.209836 L174.767141,181.209836 L174.767141,181.239344 C174.767141,181.268852 174.767141,181.298361 174.736651,181.298361 L174.736651,181.298361 L174.736651,181.327869 L174.736651,181.357377 C174.736651,181.357377 174.736651,181.357377 174.736651,181.386885 C174.736651,181.416393 174.736651,181.416393 174.706161,181.445902 L174.706161,181.445902 L174.706161,181.47541 C174.706161,181.47541 174.706161,181.47541 174.706161,181.504918 C174.706161,181.504918 174.706161,181.504918 174.706161,181.534426 L174.706161,181.563934 L174.706161,181.593443 L174.706161,181.622951 L174.706161,181.652459 C174.706161,181.652459 174.706161,181.652459 174.706161,181.681967 L174.706161,181.711475 C174.706161,181.711475 174.706161,181.711475 174.706161,181.740984 L174.706161,181.770492 C174.706161,181.770492 174.706161,181.770492 174.706161,181.8 L174.706161,181.829508 C174.706161,181.829508 174.706161,181.829508 174.706161,181.859016 C174.706161,181.859016 174.706161,181.859016 174.706161,181.888525 L174.706161,181.918033 L174.706161,181.947541 C174.706161,181.947541 174.706161,181.947541 174.706161,181.977049 L174.706161,182.006557 C174.706161,182.006557 174.706161,182.006557 174.706161,182.036066 L174.706161,182.065574 L174.706161,182.095082 L174.706161,182.12459 C174.706161,182.12459 174.706161,182.12459 174.706161,182.154098 L174.706161,182.183607 L174.706161,182.213115 C174.706161,182.213115 174.706161,182.213115 174.706161,182.242623 L174.706161,182.272131 L174.706161,182.301639 C174.706161,182.301639 174.706161,182.301639 174.706161,182.331148 L174.706161,182.360656 C174.706161,182.360656 174.706161,182.360656 174.706161,182.390164 C174.706161,182.419672 174.675671,182.44918 174.675671,182.478689 L174.675671,182.478689 L174.675671,182.508197 C174.675671,182.508197 174.675671,182.508197 174.675671,182.537705 L174.675671,182.567213 C174.675671,182.596721 174.675671,182.596721 174.645182,182.62623 C174.645182,182.62623 174.645182,182.62623 174.645182,182.655738 L174.645182,182.685246 C174.645182,182.714754 174.614692,182.744262 174.614692,182.77377 L174.614692,182.77377 L174.614692,182.803279 C174.614692,182.832787 174.584202,182.862295 174.584202,182.891803 L174.584202,182.891803 C174.523223,183.068852 174.462243,183.245902 174.401264,183.422951 L176.505055,184.101639 C177.05387,182.44918 177.633175,180.796721 178.151501,179.17377 L176.047709,178.52459 C175.376935,179.321311 175.102528,180.147541 174.82812,180.944262 L174.82812,180.944262 L174.82812,180.944262 Z" id="tongue_sublingual" fill="#B00246" sketch_type="MSShapeGroup" />
            <path d="M159.674724,217.504918 L159.674724,217.504918 C159.674724,217.534426 159.644234,217.534426 159.644234,217.563934 C159.644234,217.593443 159.613744,217.593443 159.613744,217.622951 L159.613744,217.622951 C159.003949,218.832787 158.363665,220.072131 157.723381,221.340984 L159.705213,222.314754 C160.497946,220.809836 161.290679,219.245902 162.083412,217.652459 L160.10158,216.737705 C159.949131,217.003279 159.827172,217.239344 159.674724,217.504918 L159.674724,217.504918 L159.674724,217.504918 Z" id="tongue_sublingual" fill="#B00246" sketch_type="MSShapeGroup" />
            <path d="M141.015008,247.544262 L142.752923,248.872131 C143.820063,247.57377 144.917694,246.157377 146.015324,244.681967 L144.21643,243.442623 C143.149289,244.859016 142.082148,246.245902 141.015008,247.544262 L141.015008,247.544262 L141.015008,247.544262 Z" id="tongue_sublingual" fill="#B00246" sketch_type="MSShapeGroup" />
            <path d="M149.978989,234.944262 C149.948499,234.944262 149.948499,234.944262 149.978989,234.944262 C149.948499,234.944262 149.948499,234.97377 149.978989,234.944262 C149.155766,236.242623 148.363033,237.481967 147.509321,238.75082 C147.509321,238.75082 147.509321,238.75082 147.509321,238.780328 L147.509321,238.780328 C147.509321,238.780328 147.509321,238.809836 147.478831,238.809836 L147.478831,238.809836 C147.387362,238.957377 147.295893,239.07541 147.204423,239.222951 L149.064297,240.403279 C150.009479,238.986885 150.98515,237.511475 151.930332,235.977049 L150.039968,234.855738 C150.009479,234.885246 149.978989,234.914754 149.978989,234.944262 L149.978989,234.944262 L149.978989,234.944262 Z" id="tongue_sublingual" fill="#B00246" sketch_type="MSShapeGroup" />
            <path d="M152.723065,230.4 L154.643918,231.462295 C155.49763,229.986885 156.381833,228.452459 157.235545,226.918033 L155.284202,225.914754 C154.460979,227.419672 153.607267,228.92459 152.723065,230.4 L152.723065,230.4 L152.723065,230.4 Z" id="tongue_sublingual" fill="#B00246" sketch_type="MSShapeGroup" />
            <path d="M190.408373,87.6983607 C190.316904,89.2622951 190.194945,90.8262295 190.072986,92.4196721 L192.268246,92.5672131 C192.390205,90.9147541 192.512164,89.1737705 192.603633,87.4327869 L190.408373,87.2852459 C190.438863,87.4327869 190.438863,87.5803279 190.408373,87.6983607 L190.408373,87.6983607 L190.408373,87.6983607 Z" id="tongue_sublingual" fill="#B00246" sketch_type="MSShapeGroup" />
            <path d="M183.273776,148.57377 C183.243286,148.691803 183.212796,148.839344 183.212796,148.957377 L183.212796,148.957377 C182.968878,150.22623 182.724961,151.495082 182.450553,152.734426 L182.450553,152.734426 L182.450553,152.793443 L182.450553,152.852459 C182.450553,152.881967 182.450553,152.911475 182.420063,152.940984 L182.420063,152.940984 C182.420063,152.970492 182.420063,153 182.389573,153.029508 C182.389573,153.029508 182.389573,153.029508 182.389573,153.059016 L182.389573,153.118033 L182.389573,153.147541 L182.389573,153.177049 L182.389573,153.206557 L182.389573,153.236066 L182.389573,153.295082 C182.359084,153.383607 182.359084,153.472131 182.328594,153.560656 L184.493365,153.97377 C184.828752,152.321311 185.194629,150.609836 185.499526,148.898361 L183.273776,148.57377 L183.273776,148.57377 Z" id="tongue_sublingual" fill="#B00246" sketch_type="MSShapeGroup" />
            <path d="M190.804739,77.0163934 C190.804739,78.6098361 190.804739,80.1442623 190.74376,81.5606557 L190.74376,81.5606557 C190.74376,81.5606557 190.74376,81.5606557 190.74376,81.5901639 L190.74376,81.5901639 C190.74376,81.7672131 190.74376,81.9442623 190.71327,82.1213115 L192.939021,82.1803279 C193,80.5868852 193,78.8163934 193,76.957377 L190.804739,77.0163934 L190.804739,77.0163934 Z" id="tongue_sublingual" fill="#B00246" sketch_type="MSShapeGroup" />
            <path d="M135.008531,254.036066 L135.008531,254.036066 C134.978041,254.065574 134.978041,254.065574 134.947551,254.095082 L134.947551,254.095082 L134.917062,254.12459 L134.886572,254.154098 L134.856082,254.183607 C134.856082,254.183607 134.856082,254.183607 134.825592,254.213115 L134.825592,254.213115 L134.795103,254.242623 C134.795103,254.242623 134.795103,254.242623 134.764613,254.272131 L134.764613,254.272131 C134.764613,254.272131 134.764613,254.272131 134.734123,254.301639 L134.734123,254.301639 C134.734123,254.301639 134.703633,254.301639 134.703633,254.331148 L134.703633,254.331148 C134.703633,254.331148 134.703633,254.331148 134.673144,254.331148 L134.673144,254.331148 C134.673144,254.331148 134.673144,254.331148 134.642654,254.360656 L134.642654,254.360656 L134.612164,254.390164 C134.612164,254.390164 134.612164,254.390164 134.581675,254.419672 L134.581675,254.419672 C134.551185,254.44918 134.551185,254.44918 134.520695,254.478689 L134.520695,254.478689 C134.520695,254.478689 134.520695,254.478689 134.490205,254.508197 L134.490205,254.508197 C134.276777,254.685246 134.093839,254.862295 133.880411,255.068852 L135.374408,256.662295 C136.654976,255.540984 137.966035,254.272131 139.277093,252.885246 L137.630648,251.439344 C136.715956,252.354098 135.862243,253.209836 135.008531,254.036066 L135.008531,254.036066 L135.008531,254.036066 Z" id="tongue_sublingual" fill="#B00246" sketch_type="MSShapeGroup" />
            <path d="M189.402212,101.596721 L189.402212,101.744262 C189.371722,102.068852 189.341232,102.393443 189.310742,102.718033 L191.506003,102.895082 C191.658452,101.213115 191.780411,99.5016393 191.932859,97.7606557 L189.737599,97.6131148 C189.61564,98.8819672 189.493681,100.239344 189.402212,101.596721 L189.402212,101.596721 L189.402212,101.596721 Z" id="tongue_sublingual" fill="#B00246" sketch_type="MSShapeGroup" />
            <path d="M184.798262,140.07541 L184.798262,140.07541 L184.798262,140.134426 L184.798262,140.193443 C184.798262,140.252459 184.767773,140.311475 184.767773,140.370492 L184.767773,140.4 L184.767773,140.429508 L184.767773,140.488525 L184.767773,140.518033 L184.767773,140.577049 C184.767773,140.577049 184.767773,140.577049 184.767773,140.606557 L184.767773,140.665574 C184.615324,141.609836 184.432385,142.554098 184.279937,143.527869 L186.475197,143.881967 C186.780095,142.2 187.054502,140.488525 187.32891,138.777049 L185.133649,138.452459 C184.950711,138.983607 184.859242,139.514754 184.798262,140.07541 L184.798262,140.07541 L184.798262,140.07541 Z" id="tongue_sublingual" fill="#B00246" sketch_type="MSShapeGroup" />
            <path d="M188.335071,112.927869 L190.530332,113.134426 C190.71327,111.452459 190.865719,109.711475 191.018167,108 L188.822907,107.793443 C188.670458,109.504918 188.518009,111.216393 188.335071,112.927869 L188.335071,112.927869 L188.335071,112.927869 Z" id="tongue_sublingual" fill="#B00246" sketch_type="MSShapeGroup" />
            <path d="M185.956872,132.403279 L185.956872,132.403279 L185.956872,132.462295 C185.956872,132.462295 185.956872,132.462295 185.956872,132.491803 L185.956872,132.55082 L185.956872,132.580328 C185.956872,132.580328 185.956872,132.580328 185.956872,132.609836 C185.926382,132.87541 185.895893,133.111475 185.834913,133.377049 L188.030174,133.672131 C188.274092,131.990164 188.518009,130.278689 188.761927,128.537705 L186.566667,128.272131 C186.353239,129.629508 186.1703,131.016393 185.956872,132.403279 L185.956872,132.403279 L185.956872,132.403279 Z" id="tongue_sublingual" fill="#B00246" sketch_type="MSShapeGroup" />
            <path d="M187.664297,119.154098 L187.206951,123.137705 L189.402212,123.403279 C189.61564,121.721311 189.798578,120.009836 190.012006,118.268852 L187.816746,118.032787 C187.755766,118.416393 187.694787,118.8 187.664297,119.154098 L187.664297,119.154098 L187.664297,119.154098 Z" id="tongue_sublingual" fill="#B00246" sketch_type="MSShapeGroup" />
            <path d="M35.7949447,222.196721 L35.7949447,222.196721 C35.0022117,220.691803 34.2704581,219.216393 33.5691943,217.8 L31.5873618,218.714754 C32.3800948,220.308197 33.1728278,221.872131 33.9350711,223.377049 L35.9169036,222.403279 C35.8559242,222.344262 35.8254344,222.285246 35.7949447,222.196721 L35.7949447,222.196721 L35.7949447,222.196721 Z" id="tongue_sublingual" fill="#B00246" sketch_type="MSShapeGroup" />
            <path d="M25.3064771,199.622951 L25.3064771,199.622951 C25.2150079,199.386885 25.1235387,199.180328 25.0320695,198.97377 L22.9892575,199.770492 C23.6600316,201.363934 24.3308057,202.986885 25.0015798,204.55082 L27.0443918,203.72459 C26.4955766,202.42623 25.9162717,201.068852 25.3064771,199.622951 L25.3064771,199.622951 L25.3064771,199.622951 Z" id="tongue_sublingual" fill="#B00246" sketch_type="MSShapeGroup" />
            <path d="M22.2879937,192.039344 L22.2879937,192.039344 C22.2879937,192.009836 22.2879937,192.009836 22.2879937,192.039344 C22.2879937,192.009836 22.2879937,192.009836 22.2575039,192.009836 C22.2575039,192.009836 22.2575039,192.009836 22.2575039,191.980328 L22.2575039,191.95082 L22.2575039,191.921311 C21.9526066,191.095082 21.6172196,190.239344 21.3123223,189.383607 L19.2390205,190.091803 C19.8488152,191.714754 20.4586098,193.337705 21.0988942,194.960656 L23.1721959,194.193443 C22.8368088,193.455738 22.5624013,192.747541 22.2879937,192.039344 L22.2879937,192.039344 L22.2879937,192.039344 Z" id="tongue_sublingual" fill="#B00246" sketch_type="MSShapeGroup" />
            <path d="M129.672828,258.344262 L129.672828,258.344262 C129.002054,258.816393 128.361769,259.229508 127.721485,259.642623 L127.721485,259.642623 C127.721485,259.642623 127.690995,259.642623 127.690995,259.672131 L127.690995,259.672131 C127.690995,259.672131 127.660506,259.672131 127.660506,259.701639 L127.660506,259.701639 C127.660506,259.701639 127.630016,259.701639 127.630016,259.731148 L127.630016,259.731148 C127.599526,259.731148 127.599526,259.760656 127.569036,259.760656 L127.569036,259.760656 C127.569036,259.760656 127.538547,259.760656 127.538547,259.790164 L127.538547,259.790164 C127.538547,259.790164 127.508057,259.790164 127.508057,259.819672 L127.508057,259.819672 C127.508057,259.819672 127.477567,259.819672 127.477567,259.84918 L127.477567,259.84918 C127.477567,259.84918 127.447077,259.84918 127.447077,259.878689 L127.447077,259.878689 C126.776303,260.291803 126.075039,260.704918 125.404265,261.088525 L126.501896,262.947541 C128.087362,262.062295 129.642338,261.088525 131.166825,260.055738 L129.672828,258.344262 L129.672828,258.344262 Z" id="tongue_sublingual" fill="#B00246" sketch_type="MSShapeGroup" />
            <path d="M8.32369668,139.57377 L6.12843602,139.898361 C6.4028436,141.609836 6.70774092,143.321311 7.01263823,145.003279 L9.20789889,144.64918 C8.87251185,142.967213 8.59810427,141.255738 8.32369668,139.57377 L8.32369668,139.57377 L8.32369668,139.57377 Z" id="tongue_sublingual" fill="#B00246" sketch_type="MSShapeGroup" />
            <path d="M12.9581359,162.501639 C12.9581359,162.501639 12.9581359,162.472131 12.9581359,162.501639 C12.9276461,162.442623 12.9276461,162.383607 12.9276461,162.32459 C12.9276461,162.32459 12.9276461,162.32459 12.9276461,162.295082 L12.9276461,162.265574 L12.9276461,162.236066 L12.9276461,162.206557 L12.9276461,162.177049 L12.9276461,162.118033 L12.9276461,162.088525 L12.9276461,162.059016 L12.9276461,162.029508 L12.9276461,162 C12.9276461,161.940984 12.8971564,161.911475 12.8971564,161.852459 C12.8971564,161.852459 12.8971564,161.852459 12.8971564,161.822951 C12.8971564,161.793443 12.8971564,161.793443 12.8666667,161.763934 L12.8666667,161.763934 C12.8666667,161.704918 12.8361769,161.67541 12.8361769,161.616393 L12.8361769,161.616393 C12.8361769,161.586885 12.8361769,161.557377 12.8056872,161.557377 L12.8056872,161.557377 C12.6532385,160.996721 12.5312796,160.406557 12.378831,159.816393 L10.21406,160.288525 C10.6104265,161.940984 11.0372828,163.652459 11.464139,165.334426 L13.5984202,164.803279 C13.3240126,164.006557 13.1410742,163.268852 12.9581359,162.501639 L12.9581359,162.501639 L12.9581359,162.501639 Z" id="tongue_sublingual" fill="#B00246" sketch_type="MSShapeGroup" />
            <path d="M40.4598736,230.72459 C40.4598736,230.695082 40.4293839,230.695082 40.4293839,230.665574 L40.4293839,230.665574 C40.4293839,230.636066 40.3988942,230.636066 40.3988942,230.606557 L40.3988942,230.577049 C40.3988942,230.547541 40.3684044,230.547541 40.3684044,230.518033 C40.3684044,230.518033 40.3684044,230.518033 40.3684044,230.488525 C40.3684044,230.459016 40.3379147,230.459016 40.3379147,230.429508 C40.3379147,230.429508 40.3379147,230.4 40.307425,230.4 C40.307425,230.4 40.307425,230.370492 40.2769352,230.370492 C40.2769352,230.370492 40.2769352,230.340984 40.2464455,230.340984 C40.2464455,230.340984 40.2464455,230.311475 40.2159558,230.311475 C40.2159558,230.311475 40.2159558,230.281967 40.185466,230.281967 C40.185466,230.281967 40.185466,230.252459 40.1549763,230.252459 C40.1549763,230.252459 40.1549763,230.222951 40.1244866,230.222951 C40.1244866,230.222951 40.1244866,230.193443 40.0939968,230.193443 C40.0939968,230.193443 40.0939968,230.163934 40.0635071,230.163934 C40.0635071,230.163934 40.0635071,230.134426 40.0330174,230.134426 L40.0025276,230.104918 L40.0025276,230.07541 L39.9720379,230.045902 L39.9720379,230.016393 C39.9720379,229.986885 39.9415482,229.986885 39.9415482,229.957377 C39.9415482,229.957377 39.9415482,229.957377 39.9415482,229.927869 C39.9415482,229.898361 39.9110585,229.898361 39.9110585,229.868852 C39.9110585,229.868852 39.9110585,229.868852 39.9110585,229.839344 C39.9110585,229.809836 39.8805687,229.809836 39.8805687,229.780328 L39.8805687,229.75082 C39.8805687,229.721311 39.850079,229.721311 39.850079,229.691803 C39.850079,229.691803 39.850079,229.691803 39.850079,229.662295 C39.850079,229.632787 39.8195893,229.632787 39.8195893,229.603279 C39.8195893,229.603279 39.8195893,229.603279 39.8195893,229.57377 C39.8195893,229.544262 39.7890995,229.544262 39.7890995,229.514754 C39.7890995,229.514754 39.7890995,229.514754 39.7890995,229.485246 C39.7890995,229.455738 39.7586098,229.455738 39.7586098,229.42623 C39.7586098,229.42623 39.7586098,229.42623 39.7586098,229.396721 C39.7586098,229.367213 39.7281201,229.367213 39.7281201,229.337705 C39.7281201,229.337705 39.7281201,229.337705 39.7281201,229.308197 C39.7281201,229.278689 39.6976303,229.278689 39.6976303,229.24918 C39.6976303,229.24918 39.6976303,229.24918 39.6976303,229.219672 C39.6976303,229.190164 39.6671406,229.190164 39.6671406,229.160656 C39.6671406,229.160656 39.6671406,229.160656 39.6671406,229.131148 C39.6671406,229.101639 39.6366509,229.101639 39.6366509,229.072131 L39.6366509,229.042623 C39.6366509,229.013115 39.6061611,229.013115 39.6061611,228.983607 C39.6061611,228.983607 39.6061611,228.983607 39.6061611,228.954098 C39.6061611,228.92459 39.5756714,228.92459 39.5756714,228.895082 L39.5756714,228.865574 C39.5756714,228.836066 39.5451817,228.836066 39.5451817,228.806557 C39.5451817,228.806557 39.5451817,228.806557 39.5451817,228.777049 C39.5451817,228.747541 39.5146919,228.747541 39.5146919,228.718033 C39.5146919,228.718033 39.5146919,228.718033 39.5146919,228.688525 C39.5146919,228.659016 39.4842022,228.659016 39.4842022,228.629508 L39.4842022,228.6 C39.4842022,228.570492 39.4537125,228.570492 39.4537125,228.540984 C39.4537125,228.540984 39.4537125,228.540984 39.4537125,228.511475 C39.4537125,228.481967 39.4232227,228.481967 39.4232227,228.452459 C39.4232227,228.452459 39.4232227,228.452459 39.4232227,228.422951 C39.4232227,228.393443 39.392733,228.393443 39.392733,228.363934 L39.392733,228.334426 C39.392733,228.304918 39.3622433,228.304918 39.3622433,228.27541 C39.3622433,228.27541 39.3622433,228.27541 39.3622433,228.245902 C39.3622433,228.216393 39.3317536,228.216393 39.3317536,228.186885 L39.3317536,228.157377 C39.3317536,228.127869 39.3012638,228.127869 39.3012638,228.098361 C39.3012638,228.098361 39.3012638,228.098361 39.3012638,228.068852 C39.3012638,228.039344 39.2707741,228.039344 39.2707741,228.009836 L39.2707741,227.980328 C39.2707741,227.95082 39.2402844,227.95082 39.2402844,227.921311 C39.2402844,227.921311 39.2402844,227.891803 39.2097946,227.891803 C39.2097946,227.862295 39.1793049,227.862295 39.1793049,227.832787 L39.1793049,227.803279 L39.1488152,227.77377 C39.1488152,227.77377 39.1488152,227.744262 39.1183254,227.744262 C39.1183254,227.744262 39.1183254,227.714754 39.0878357,227.714754 C39.0878357,227.714754 39.0878357,227.685246 39.057346,227.685246 C39.057346,227.685246 39.057346,227.655738 39.0268562,227.655738 L39.0268562,227.62623 L38.9963665,227.596721 C38.9963665,227.596721 38.9963665,227.567213 38.9658768,227.567213 C38.9658768,227.567213 38.9658768,227.537705 38.935387,227.537705 C38.935387,227.537705 38.935387,227.508197 38.9048973,227.508197 C38.9048973,227.508197 38.9048973,227.478689 38.8744076,227.478689 C38.8744076,227.478689 38.8744076,227.44918 38.8439179,227.44918 C38.8439179,227.44918 38.8439179,227.419672 38.8134281,227.419672 C38.8134281,227.419672 38.8134281,227.390164 38.7829384,227.390164 C38.7829384,227.390164 38.7829384,227.360656 38.7524487,227.360656 C38.7524487,227.360656 38.7524487,227.331148 38.7219589,227.331148 C38.7219589,227.331148 38.7219589,227.301639 38.6914692,227.301639 L38.6609795,227.272131 L38.6609795,227.242623 L38.6304897,227.213115 C38.6304897,227.213115 38.6304897,227.183607 38.6,227.183607 L38.5695103,227.154098 L38.5695103,227.12459 C38.5695103,227.095082 38.5390205,227.095082 38.5390205,227.065574 L38.5390205,227.036066 L38.5085308,227.006557 C38.5085308,227.006557 38.5085308,226.977049 38.4780411,226.977049 C38.4780411,226.947541 38.4475513,226.947541 38.4475513,226.918033 C38.4475513,226.918033 38.4475513,226.918033 38.4475513,226.888525 C38.4475513,226.859016 38.4170616,226.859016 38.4170616,226.829508 L38.4170616,226.8 C38.4170616,226.770492 38.3865719,226.770492 38.3865719,226.740984 L38.3865719,226.711475 L38.3560821,226.681967 C38.3560821,226.681967 38.3560821,226.681967 38.3560821,226.652459 C38.3560821,226.652459 38.3560821,226.622951 38.3255924,226.622951 L36.3742496,227.62623 C37.2279621,229.190164 38.1121643,230.72459 38.9658768,232.170492 L40.8867299,231.108197 C40.7647709,231.22623 40.6123223,230.990164 40.4598736,230.72459 L40.4598736,230.72459 L40.4598736,230.72459 Z" id="tongue_sublingual" fill="#B00246" sketch_type="MSShapeGroup" />
            <path d="M14.8789889,169.731148 L12.7447077,170.291803 C13.2020537,171.944262 13.7203791,173.62623 14.2082148,175.278689 L16.3424961,174.659016 C15.8546603,173.065574 15.3668246,171.413115 14.8789889,169.731148 L14.8789889,169.731148 L14.8789889,169.731148 Z" id="tongue_sublingual" fill="#B00246" sketch_type="MSShapeGroup" />
            <path d="M19.2390205,183.659016 L19.2390205,183.659016 C19.2390205,183.629508 19.2085308,183.6 19.2085308,183.570492 L19.2085308,183.570492 L19.2085308,183.540984 L19.2085308,183.511475 L19.2085308,183.481967 C19.2085308,183.481967 19.2085308,183.481967 19.2085308,183.452459 C19.2085308,183.452459 19.2085308,183.452459 19.2085308,183.422951 L19.2085308,183.393443 C19.2085308,183.393443 19.2085308,183.393443 19.2085308,183.363934 L19.2085308,183.334426 C19.0560821,182.891803 18.9036335,182.44918 18.7511848,182.006557 L18.7511848,182.006557 L18.7511848,181.977049 C18.7511848,181.947541 18.7511848,181.947541 18.7206951,181.918033 L18.7206951,181.918033 L18.7206951,181.888525 C18.7206951,181.888525 18.7206951,181.888525 18.7206951,181.859016 C18.7206951,181.859016 18.7206951,181.859016 18.7206951,181.829508 L18.7206951,181.8 C18.7206951,181.8 18.7206951,181.8 18.7206951,181.770492 L18.7206951,181.740984 L18.7206951,181.711475 C18.7206951,181.681967 18.6902054,181.652459 18.6902054,181.622951 L18.6902054,181.622951 C18.4767773,180.97377 18.2633491,180.354098 18.049921,179.704918 L15.9461295,180.354098 C16.4949447,181.977049 17.0437599,183.629508 17.6230648,185.281967 L19.7268562,184.603279 C19.4524487,184.219672 19.3609795,183.92459 19.2390205,183.659016 L19.2390205,183.659016 L19.2390205,183.659016 Z" id="tongue_sublingual" fill="#B00246" sketch_type="MSShapeGroup" />
            <path d="M27.1053712,209.301639 C27.8371248,210.895082 28.5688784,212.488525 29.3006319,214.022951 L31.3129542,213.137705 C30.5507109,211.485246 29.8189573,209.921311 29.1481833,208.445902 L27.1053712,209.301639 L27.1053712,209.301639 Z" id="tongue_sublingual" fill="#B00246" sketch_type="MSShapeGroup" />
            <path d="M110.12891,266.547541 L110.12891,266.547541 C108.9703,266.783607 107.781201,266.960656 106.622591,267.137705 L106.622591,267.137705 L106.531122,267.137705 L106.500632,267.137705 C106.500632,267.137705 106.500632,267.137705 106.470142,267.137705 L106.439652,267.137705 C106.439652,267.137705 106.439652,267.137705 106.409163,267.137705 C106.409163,267.137705 106.409163,267.137705 106.378673,267.137705 C106.378673,267.137705 106.378673,267.137705 106.348183,267.137705 C106.348183,267.137705 106.348183,267.137705 106.317694,267.137705 L106.287204,267.137705 C106.287204,267.137705 106.287204,267.137705 106.256714,267.137705 L106.226224,267.137705 L106.195735,267.137705 L106.165245,267.137705 L106.134755,267.137705 L106.104265,267.137705 L106.073776,267.137705 L106.043286,267.137705 C105.707899,267.167213 105.403002,267.22623 105.067615,267.255738 L105.311532,269.380328 C107.171406,269.17377 109.00079,268.878689 110.738705,268.554098 L110.281359,266.459016 C110.281359,266.518033 110.220379,266.547541 110.12891,266.547541 L110.12891,266.547541 L110.12891,266.547541 Z" id="tongue_sublingual" fill="#B00246" sketch_type="MSShapeGroup" />
            <path d="M99.1830964,267.727869 L99.1830964,267.727869 L99.1221169,267.727869 C99.1221169,267.727869 99.1221169,267.727869 99.0916272,267.727869 L99.0611374,267.727869 L99.0306477,267.727869 L99.000158,267.727869 L98.9696682,267.727869 C98.9696682,267.727869 98.9696682,267.727869 98.9391785,267.727869 L98.9086888,267.727869 L98.8781991,267.727869 L98.8477093,267.727869 L98.7867299,267.727869 L98.7257504,267.727869 C97.9939968,267.757377 97.2622433,267.757377 96.5609795,267.757377 L96.1951027,267.757377 L96.1341232,267.757377 L96.1036335,267.757377 L96.0731438,267.757377 L96.042654,267.757377 L96.0121643,267.757377 L95.9816746,267.757377 L95.9511848,267.757377 C95.9511848,267.757377 95.9511848,267.757377 95.9206951,267.757377 L95.8902054,267.757377 C95.8902054,267.757377 95.8902054,267.757377 95.8597156,267.757377 L95.8292259,267.757377 L95.7987362,267.757377 C95.7987362,267.757377 95.7987362,267.757377 95.7682464,267.757377 L95.7377567,267.757377 C95.3718799,267.757377 94.9755134,267.757377 94.6096367,267.727869 L94.5486572,269.881967 C95.1279621,269.881967 95.707267,269.911475 96.2865719,269.911475 L96.6829384,269.911475 C97.8110585,269.911475 98.9391785,269.881967 100.006319,269.852459 L99.9148499,267.698361 C99.6099526,267.727869 99.3965245,267.727869 99.1830964,267.727869 L99.1830964,267.727869 L99.1830964,267.727869 Z" id="tongue_sublingual" fill="#B00246" sketch_type="MSShapeGroup" />
            <path d="M84.6394945,266.813115 L84.6090047,266.813115 C84.578515,266.813115 84.5480253,266.813115 84.5175355,266.783607 L84.5175355,266.783607 L84.4870458,266.783607 L84.4565561,266.783607 C84.4260664,266.783607 84.3955766,266.783607 84.3650869,266.754098 L84.3650869,266.754098 L84.3345972,266.754098 C84.3345972,266.754098 84.3345972,266.754098 84.3041074,266.754098 C84.3041074,266.754098 84.3041074,266.754098 84.2736177,266.754098 C84.2736177,266.754098 84.2736177,266.754098 84.243128,266.754098 L84.2126382,266.754098 L84.1821485,266.754098 L84.1516588,266.754098 L84.121169,266.754098 L84.0906793,266.754098 L84.0601896,266.754098 L84.0296998,266.754098 L83.6028436,268.84918 C85.371248,269.17377 87.2006319,269.439344 89.0605055,269.645902 L89.2739336,267.521311 C87.7189573,267.314754 86.1944708,267.108197 84.6394945,266.813115 L84.6394945,266.813115 L84.6394945,266.813115 Z" id="tongue_sublingual" fill="#B00246" sketch_type="MSShapeGroup" />
            <path d="M118.940442,264.039344 L118.940442,264.039344 C118.940442,264.039344 118.909953,264.039344 118.940442,264.039344 L118.909953,264.039344 C118.879463,264.039344 118.848973,264.068852 118.848973,264.068852 L118.848973,264.068852 C118.848973,264.068852 118.848973,264.068852 118.818483,264.068852 L118.818483,264.068852 C118.818483,264.068852 118.818483,264.068852 118.787994,264.068852 L118.787994,264.068852 C118.787994,264.068852 118.787994,264.068852 118.757504,264.068852 L118.757504,264.068852 C118.757504,264.068852 118.757504,264.068852 118.727014,264.068852 L118.727014,264.068852 C118.696524,264.068852 118.666035,264.098361 118.635545,264.098361 L118.635545,264.098361 C118.635545,264.098361 118.635545,264.098361 118.605055,264.098361 L118.605055,264.098361 C118.605055,264.098361 118.605055,264.098361 118.574566,264.098361 L118.574566,264.098361 C117.842812,264.363934 117.111058,264.629508 116.348815,264.865574 L116.348815,264.865574 C116.348815,264.865574 116.348815,264.865574 116.318325,264.865574 L116.318325,264.865574 C116.318325,264.865574 116.318325,264.865574 116.287836,264.865574 L116.287836,264.865574 L116.257346,264.865574 L116.226856,264.865574 C116.226856,264.865574 116.226856,264.865574 116.196367,264.865574 L116.196367,264.865574 C116.196367,264.865574 116.196367,264.865574 116.165877,264.865574 L116.165877,264.865574 C116.165877,264.865574 116.165877,264.865574 116.135387,264.865574 L116.135387,264.865574 L116.104897,264.865574 L116.074408,264.865574 C116.043918,264.865574 116.013428,264.895082 115.982938,264.895082 L115.982938,264.895082 C115.982938,264.895082 115.982938,264.895082 115.952449,264.895082 L115.952449,264.895082 C115.952449,264.895082 115.952449,264.895082 115.921959,264.895082 L115.921959,264.895082 C115.860979,264.92459 115.8,264.92459 115.708531,264.954098 L116.379305,266.990164 C118.147709,266.459016 119.885624,265.809836 121.562559,265.101639 L120.678357,263.12459 C119.977093,263.655738 119.458768,263.862295 118.940442,264.039344 L118.940442,264.039344 L118.940442,264.039344 Z" id="tongue_sublingual" fill="#B00246" sketch_type="MSShapeGroup" />
            <path d="M68.8763033,261.472131 C68.8763033,261.472131 68.8458136,261.472131 68.8458136,261.442623 L68.8458136,261.442623 C68.8458136,261.442623 68.8153239,261.442623 68.8153239,261.413115 L68.8153239,261.413115 C68.8153239,261.413115 68.7848341,261.413115 68.7848341,261.383607 L68.7848341,261.383607 C68.7848341,261.383607 68.7543444,261.383607 68.7543444,261.354098 L68.7543444,261.354098 C68.7543444,261.354098 68.7238547,261.354098 68.7238547,261.32459 L68.7238547,261.32459 L68.6933649,261.32459 L68.6628752,261.32459 L68.6323855,261.32459 C68.6323855,261.32459 68.6323855,261.32459 68.6018957,261.32459 L68.6018957,261.32459 C68.6018957,261.32459 68.6018957,261.32459 68.571406,261.32459 C68.571406,261.32459 68.571406,261.32459 68.5409163,261.32459 C68.5409163,261.32459 68.5409163,261.32459 68.5104265,261.32459 C68.5104265,261.32459 68.5104265,261.32459 68.4799368,261.32459 L68.4799368,261.32459 C68.4799368,261.32459 68.4799368,261.32459 68.4494471,261.32459 L68.4494471,261.32459 L68.4189573,261.32459 L68.3884676,261.32459 C68.1445498,261.177049 67.8701422,261.059016 67.6262243,260.911475 L67.6262243,260.911475 C66.5895735,260.321311 65.5224329,259.701639 64.485782,259.022951 L63.2661927,260.822951 C64.821169,261.82623 66.4066351,262.740984 67.9921011,263.567213 L69.028752,261.678689 C68.9677725,261.531148 68.906793,261.501639 68.8763033,261.472131 L68.8763033,261.472131 L68.8763033,261.472131 Z" id="tongue_sublingual" fill="#B00246" sketch_type="MSShapeGroup" />
            <path d="M75.8279621,264.511475 L75.7974724,264.511475 L75.7669826,264.511475 C75.7060032,264.481967 75.6450237,264.481967 75.614534,264.452459 L75.614534,264.452459 L75.5840442,264.452459 L75.5535545,264.452459 L75.5230648,264.452459 L75.492575,264.452459 C75.4620853,264.452459 75.4315956,264.422951 75.4011058,264.422951 L75.4011058,264.422951 C75.4011058,264.422951 75.4011058,264.422951 75.3706161,264.422951 C75.3706161,264.422951 75.3706161,264.422951 75.3401264,264.422951 C75.3401264,264.422951 75.3401264,264.422951 75.3096367,264.422951 C75.3096367,264.422951 75.3096367,264.422951 75.2791469,264.422951 C75.2791469,264.422951 75.2791469,264.422951 75.2486572,264.422951 C75.2486572,264.422951 75.2486572,264.422951 75.2181675,264.422951 C75.2181675,264.422951 75.2181675,264.422951 75.1876777,264.422951 L75.1876777,264.422951 C75.1876777,264.422951 75.1876777,264.422951 75.157188,264.422951 L75.157188,264.422951 C75.157188,264.422951 75.1266983,264.422951 75.1266983,264.393443 C75.1266983,264.393443 75.1266983,264.393443 75.0962085,264.393443 C75.0962085,264.393443 75.0962085,264.393443 75.0657188,264.393443 C75.0657188,264.393443 75.0657188,264.393443 75.0352291,264.393443 C75.0352291,264.393443 75.0352291,264.393443 75.0047393,264.393443 C75.0047393,264.393443 75.0047393,264.393443 74.9742496,264.393443 C74.9742496,264.393443 74.9742496,264.393443 74.9437599,264.393443 C74.9437599,264.393443 74.9437599,264.393443 74.9132701,264.393443 C74.9132701,264.393443 74.9132701,264.393443 74.8827804,264.393443 C74.8827804,264.393443 74.8827804,264.393443 74.8522907,264.393443 C74.8522907,264.393443 74.8522907,264.393443 74.8218009,264.393443 C74.8218009,264.393443 74.8218009,264.393443 74.7913112,264.393443 L74.7913112,264.393443 L74.7608215,264.393443 L74.7303318,264.393443 L74.699842,264.393443 L74.6693523,264.393443 L74.6388626,264.393443 L74.6083728,264.393443 C74.5778831,264.393443 74.5473934,264.363934 74.5473934,264.363934 L74.5473934,264.363934 L74.5169036,264.363934 L74.4864139,264.363934 L74.4559242,264.363934 L74.4254344,264.363934 L74.3949447,264.363934 C74.364455,264.363934 74.3339652,264.334426 74.3034755,264.334426 L74.3034755,264.334426 L74.2729858,264.334426 L74.2424961,264.334426 L74.2120063,264.334426 L74.1815166,264.334426 C74.1510269,264.304918 74.0900474,264.304918 74.0595577,264.27541 L74.0595577,264.27541 L74.0290679,264.27541 L73.9985782,264.27541 L73.9680885,264.27541 L73.9375987,264.27541 C73.907109,264.27541 73.8766193,264.245902 73.8461295,264.245902 L72.9924171,266.222951 C74.699842,266.901639 76.4377567,267.521311 78.2061611,268.022951 L78.8464455,265.957377 C77.8097946,265.190164 76.8341232,264.865574 75.8279621,264.511475 L75.8279621,264.511475 L75.8279621,264.511475 Z" id="tongue_sublingual" fill="#B00246" sketch_type="MSShapeGroup" />
            <path d="M56.2840442,252.354098 L54.6985782,253.829508 C56.0401264,255.186885 57.4121643,256.42623 58.7537125,257.488525 L60.1562401,255.836066 C58.8451817,254.803279 57.564613,253.622951 56.2840442,252.354098 L56.2840442,252.354098 L56.2840442,252.354098 Z" id="tongue_sublingual" fill="#B00246" sketch_type="MSShapeGroup" />
            <path d="M50.4605055,245.714754 C50.4605055,245.714754 50.4300158,245.714754 50.4605055,245.714754 L50.4300158,245.685246 C50.4300158,245.685246 50.4300158,245.685246 50.3995261,245.655738 L50.3995261,245.655738 C50.3690363,245.62623 50.3690363,245.62623 50.3385466,245.596721 L50.3385466,245.596721 C50.3385466,245.596721 50.3385466,245.596721 50.3385466,245.567213 L50.3385466,245.567213 C50.3385466,245.567213 50.3385466,245.567213 50.3385466,245.537705 L50.3385466,245.537705 L50.3080569,245.508197 C50.3080569,245.508197 50.3080569,245.478689 50.2775671,245.478689 L50.2775671,245.478689 C50.2775671,245.478689 50.2775671,245.44918 50.2470774,245.44918 L50.2470774,245.44918 C50.0031596,245.12459 49.7592417,244.829508 49.5153239,244.504918 L47.7164297,245.77377 C48.81406,247.24918 49.9421801,248.636066 51.0703002,249.934426 L52.7777251,248.577049 C51.9849921,247.632787 51.2227488,246.688525 50.4605055,245.714754 L50.4605055,245.714754 L50.4605055,245.714754 Z" id="tongue_sublingual" fill="#B00246" sketch_type="MSShapeGroup" />
            <path d="M43.935703,236.419672 C43.9052133,236.419672 43.9052133,236.390164 43.935703,236.419672 L43.9052133,236.390164 C43.9052133,236.390164 43.9052133,236.390164 43.9052133,236.360656 L43.9052133,236.360656 C43.9052133,236.360656 43.9052133,236.360656 43.9052133,236.331148 C43.9052133,236.331148 43.9052133,236.331148 43.9052133,236.301639 L43.9052133,236.301639 C43.8747235,236.272131 43.8747235,236.242623 43.8442338,236.213115 L43.8442338,236.213115 C43.7832543,236.095082 43.7222749,236.006557 43.6308057,235.888525 L41.7404423,237.009836 C42.7161137,238.544262 43.6917852,240.019672 44.6369668,241.406557 L46.4663507,240.22623 C45.5821485,238.986885 44.7589258,237.718033 43.935703,236.419672 L43.935703,236.419672 L43.935703,236.419672 Z" id="tongue_sublingual" fill="#B00246" sketch_type="MSShapeGroup" />
        </g>
    </g>
</svg>
